<?xml version="1.0" encoding="utf-8"?>
<!-- Generator: Adobe Illustrator 19.1.0, SVG Export Plug-In . SVG Version: 6.00 Build 0)  -->
<svg version="1.1" id="background" xmlns="http://www.w3.org/2000/svg" xmlns:xlink="http://www.w3.org/1999/xlink" x="0px" y="0px"
	 viewBox="80 -160 800 800" style="enable-background:new 80 -160 800 800;" xml:space="preserve">
<style type="text/css">
	.st0{fill:#FFFFFE;}
	.st1{fill:#324554;}
	.st2{fill:#99999A;}
	.st3{fill:#F2675D;}
	.st4{fill:#9ACAE6;}
	.st5{fill:#CCCCCC;}
	.st6{fill:#4EC8EA;}
	.st7{fill:#FFFFFF;}
	.st8{fill:#DBD9DA;}
	.st9{fill:#E8674E;}
	.st10{fill:#EDCE5E;}
	.st11{fill:#FFFFFF;stroke:#FFFFFF;stroke-width:2.5635;stroke-linecap:round;stroke-linejoin:round;stroke-miterlimit:10;}
	.st12{fill:#CBCBCB;}
	.st13{fill:#F1F1F1;}
	.st14{fill:#3690A4;}
	.st15{fill:#4D4D4D;}
	.st16{fill:#38909E;}
	.st17{fill:#E5E5E5;}
	.st18{fill:#B3B3B3;}
	.st19{fill:none;stroke:#B3B3B3;stroke-width:3.3276;stroke-linecap:round;stroke-linejoin:round;stroke-miterlimit:10;}
	.st20{fill:#B3B3B3;stroke:#B3B3B3;stroke-width:3.3276;stroke-linecap:round;stroke-linejoin:round;stroke-miterlimit:10;}
	.st21{fill:#9DD9EA;}
	.st22{fill:#EBF0F1;}
	.st23{fill:#324554;stroke:#324554;stroke-width:2;stroke-linecap:round;stroke-linejoin:round;stroke-miterlimit:10;}
	.st24{fill:#FFDA96;}
	.st25{fill:#944232;}
	.st26{fill:#BA533F;}
	.st27{fill:#EBC580;}
	.st28{fill:#8E6C59;}
	.st29{fill:#A86C47;}
	.st30{fill:#B17B58;}
	.st31{opacity:0.35;fill:#B0CAD9;enable-background:new    ;}
	.st32{opacity:0.35;}
	.st33{fill:#D1E2EB;}
	.st34{font-family:'ArialMT';}
	.st35{font-size:47.0039px;}
	.st36{font-size:32.9027px;}
	.st37{fill:#8B8C8C;}
	.st38{fill:#C5C6C7;}
	.st39{display:none;fill:#FFFFFF;stroke:#58595B;stroke-width:0.75;stroke-miterlimit:10;}
	.st40{fill:#404041;}
	.st41{fill:#334553;}
	.st42{font-family:'HelveticaNeue';}
	.st43{font-size:32px;}
	.st44{fill:none;stroke:#334553;stroke-width:3;stroke-miterlimit:10;}
	.st45{fill:none;stroke:#334553;stroke-width:2.8;stroke-miterlimit:10;}
</style>
<g>
	<g>
		<g>
			<path class="st0" d="M505.8-32.7c29-17.6,38.3-55.2,20.9-84c-17.5-28.8-55.1-37.9-84.1-20.3s-38.3,55.2-20.9,84
				c6.7,11.1,16.4,19.2,27.4,24.1c8.4,4.6,15.9,11.1,21.6,19.6c4.4-5.4,9.7-10.2,16.1-14C488.9-24.8,501.8-30.3,505.8-32.7z"/>
			<g>
				<path class="st1" d="M447.9-95.9c-0.5,0-1,0-1.4,0.1c-0.4,0-0.9,0.1-1.4,0.2c-0.5,0.1-1.1,0.2-1.7,0.4l0.9,9.2l-6.2,0.6
					l-0.9-9.2c-0.6,0-1.2,0-1.7,0s-1,0-1.4,0.1c-0.4,0-0.8,0.1-1.4,0.2c-0.5,0.1-1.1,0.2-1.7,0.4l2.5,24.9c1.2,0.1,2.3,0.1,3.1,0
					c0.8-0.1,1.8-0.3,3-0.6l-1-10.2l6.2-0.6l1,10.2c1.2,0.1,2.3,0.1,3.1,0c0.8-0.1,1.8-0.3,3-0.6l-2.5-24.9
					C449-95.9,448.5-95.9,447.9-95.9z"/>
				<path class="st1" d="M470.7-96.6c-0.1-0.4-0.2-0.9-0.4-1.4l-17.8,1.8c-0.1,1-0.1,1.9,0,2.7c0.1,0.8,0.3,1.7,0.6,2.7l5.8-0.6
					l1.9,19.5c1.2,0.1,2.3,0.1,3.1,0c0.8-0.1,1.8-0.3,3-0.6L465-92l5.8-0.6c0.1-1.1,0.1-2,0-2.8C470.9-95.7,470.8-96.1,470.7-96.6z"
					/>
				<path class="st1" d="M494.6-100.5c-0.5,0-1,0-1.5,0.1c-0.5,0-0.9,0.1-1.4,0.2s-0.9,0.2-1.4,0.3l-3.8,13.5l-6.2-12.5
					c-0.5,0-1,0-1.5,0c-0.6,0-1.1,0-1.5,0.1c-0.5,0-1,0.1-1.6,0.2c-0.6,0.1-1.1,0.2-1.6,0.4l1.5,25c1.1,0.1,2,0.1,2.9,0
					c0.9-0.1,1.8-0.3,2.8-0.6l-1-14.3l4.3,9c0.4,0.1,0.8,0.1,1.2,0.1c0.4,0,0.7,0,1.1-0.1c0.3,0,0.7-0.1,1.1-0.2s0.8-0.2,1.2-0.3
					l2.9-9.9l1.9,14.4c1.1,0.1,2.1,0.1,2.9,0c0.7-0.1,1.3-0.2,1.8-0.3c0.4-0.1,0.9-0.2,1.2-0.3l-3.7-24.7
					C495.6-100.5,495.1-100.5,494.6-100.5z"/>
				<path class="st1" d="M517.9-80.2c0-0.3-0.1-0.7-0.2-1.2c-0.1-0.4-0.2-0.9-0.4-1.5l-8,0.8l-1.9-19.5c-0.6,0-1.2,0-1.7,0
					s-1,0-1.4,0.1c-0.4,0-0.8,0.1-1.4,0.2c-0.5,0.1-1.1,0.2-1.7,0.4l2.5,25l14.2-1.4c0.1-0.6,0.1-1.1,0.1-1.6
					C517.9-79.4,517.9-79.8,517.9-80.2z"/>
			</g>
		</g>
		<g>
			<path class="st0" d="M631.1-16.4c-2.3-30.8,20.7-57.6,51.3-59.9c30.6-2.3,57.2,20.9,59.5,51.6c2.3,30.8-20.7,57.6-51.3,59.9
				c-11.7,0.9-22.9-2-32.3-7.6c-7.8-3.9-16.7-5.9-25.9-5.7c1.7-6.1,2.4-12.6,1.9-19.3C634.1,0.4,631.4-12.1,631.1-16.4z"/>
		</g>
		<g>
			<path class="st0" d="M250.1,270.7c-24.9-20.3-61.5-16.5-81.7,8.5s-16.5,61.8,8.4,82.1s61.5,16.5,81.7-8.5
				c7.8-9.6,12-20.9,12.8-32.4c1.4-9,4.9-17.9,10.7-25.7c-6.2-2.2-12.2-5.4-17.6-9.9C262.5,283.3,253.5,273.5,250.1,270.7z"/>
		</g>
		<g>
			<path class="st0" d="M721.6,283.3c24.8-16.3,57.9-9.2,74,15.7c16.1,25,9,58.4-15.8,74.7s-57.9,9.2-74-15.7
				c-6.2-9.6-8.9-20.4-8.6-31c-0.4-8.5-2.8-16.9-7.3-24.7c5.9-1.4,11.7-3.8,17.1-7.4C708.9,293.7,718.2,285.5,721.6,283.3z"/>
			<g>
				<path class="st1" d="M728.8,320.8c1.2-1.1,2.8-1.5,4.6-1.3c0.4,0.1,0.8,0.1,1.1,0.2s0.7,0.2,1,0.3c0.3,0.1,0.7,0.3,1.1,0.4
					c0.4,0.2,0.8,0.4,1.2,0.6c0.4-0.6,0.8-1.4,1.3-2.2c0.4-0.8,0.7-1.7,0.9-2.7c-1.2-0.7-2.2-1.1-3.2-1.5c-1-0.3-2-0.5-3.1-0.7
					c-1.9-0.3-3.6-0.2-5.2,0.2c-1.6,0.4-2.9,1.2-4.1,2.2c-1.2,1-2.1,2.3-2.9,3.8c-0.8,1.5-1.3,3.2-1.5,5c-0.3,1.8-0.3,3.6,0,5.2
					s0.8,3.1,1.7,4.4c0.8,1.3,2,2.3,3.4,3.2c1.4,0.9,3.1,1.4,5,1.7c0.6,0.1,1.1,0.1,1.6,0.2c0.5,0,1.1,0.1,1.6,0.1s1.1,0,1.7-0.1
					c0.6-0.1,1.3-0.2,2-0.4c0-1.8-0.3-3.6-0.8-5.3c-1,0.2-1.8,0.3-2.5,0.3s-1.4,0-2.1-0.1c-4.1-0.6-5.8-3.3-5.1-8.2
					C726.8,323.7,727.6,321.9,728.8,320.8z"/>
				<path class="st1" d="M748.8,322.5c0.2-0.2,0.4-0.4,0.7-0.5s0.6-0.2,0.9-0.2c0.3,0,0.7,0,1.1,0c1.2,0.2,2.2,0.5,3,0.9
					s1.4,0.8,2,1.1c0.5-0.7,0.9-1.5,1.3-2.4c0.4-0.9,0.7-1.6,0.9-2.4c-1.2-0.6-2.3-1.1-3.4-1.5c-1.1-0.4-2.2-0.7-3.4-0.8
					c-1.3-0.2-2.5-0.2-3.6,0s-2.1,0.5-2.9,1.1c-0.8,0.5-1.5,1.3-2.1,2.2c-0.6,0.9-0.9,1.9-1.1,3.2c-0.1,1-0.1,1.9,0,2.7
					c0.2,0.8,0.4,1.5,0.8,2.1c0.4,0.6,0.9,1.2,1.5,1.7s1.3,1,2.1,1.4l1.8,1c0.3,0.2,0.6,0.3,0.8,0.5c0.3,0.2,0.5,0.4,0.7,0.6
					s0.4,0.5,0.5,0.8s0.1,0.6,0.1,1c-0.1,0.9-0.5,1.4-1.3,1.7c-0.7,0.3-1.7,0.3-2.8,0.1c-1.6-0.2-3.4-1-5.3-2.2
					c-0.5,0.9-0.9,1.8-1.2,2.7c-0.4,0.9-0.7,1.7-0.9,2.5c1.2,0.7,2.3,1.2,3.4,1.6c1.1,0.4,2.3,0.7,3.7,0.9c1.6,0.2,3,0.2,4.3,0
					s2.4-0.6,3.3-1.2c0.9-0.6,1.7-1.3,2.3-2.3c0.6-0.9,0.9-2,1.1-3.2c0.2-1.1,0.2-2.1,0-3c-0.2-0.8-0.5-1.6-1-2.2s-1.1-1.2-1.8-1.7
					s-1.5-1-2.4-1.6l-1.6-0.9c-0.6-0.3-1-0.7-1.4-1.1s-0.5-0.9-0.4-1.6C748.5,323.1,748.6,322.7,748.8,322.5z"/>
				<path class="st1" d="M767.6,325.2c0.2-0.2,0.4-0.4,0.7-0.5s0.6-0.2,0.9-0.2c0.3,0,0.7,0,1.1,0c1.2,0.2,2.2,0.5,3,0.9
					s1.4,0.8,2,1.1c0.5-0.7,0.9-1.5,1.3-2.4c0.4-0.9,0.7-1.6,0.9-2.4c-1.2-0.6-2.3-1.1-3.4-1.5c-1.1-0.4-2.2-0.7-3.4-0.8
					c-1.3-0.2-2.5-0.2-3.6,0s-2.1,0.5-2.9,1.1c-0.8,0.5-1.5,1.3-2.1,2.2c-0.6,0.9-0.9,1.9-1.1,3.2c-0.1,1-0.1,1.9,0,2.7
					c0.2,0.8,0.4,1.5,0.8,2.1c0.4,0.6,0.9,1.2,1.5,1.7s1.3,1,2.1,1.4l1.8,1c0.3,0.2,0.6,0.3,0.8,0.5c0.3,0.2,0.5,0.4,0.7,0.6
					s0.4,0.5,0.5,0.8s0.1,0.6,0.1,1c-0.1,0.9-0.5,1.4-1.3,1.7c-0.7,0.3-1.7,0.3-2.8,0.1c-1.6-0.2-3.3-1-5.3-2.2
					c-0.5,0.9-0.9,1.8-1.2,2.7c-0.4,0.9-0.7,1.7-0.9,2.5c1.2,0.7,2.3,1.2,3.4,1.6c1.1,0.4,2.3,0.7,3.7,0.9c1.6,0.2,3,0.2,4.3,0
					s2.4-0.6,3.3-1.2c0.9-0.6,1.7-1.3,2.3-2.3c0.6-0.9,0.9-2,1.1-3.2c0.2-1.1,0.2-2.1,0-3c-0.2-0.8-0.5-1.6-1-2.2s-1.1-1.2-1.8-1.7
					s-1.5-1-2.4-1.6l-1.6-0.9c-0.6-0.3-1-0.7-1.4-1.1s-0.5-0.9-0.4-1.6C767.3,325.8,767.4,325.5,767.6,325.2z"/>
			</g>
		</g>
		<g>
			<rect x="149" y="71.9" class="st2" width="103.3" height="144.3"/>
			<g>
				<rect x="156.5" y="80.2" class="st3" width="49.6" height="1.9"/>
				<rect x="156.5" y="84.9" class="st4" width="15.9" height="1.9"/>
				<rect x="156.5" y="89.5" class="st5" width="25.6" height="1.9"/>
				<rect x="168.4" y="94.2" class="st4" width="15" height="1.9"/>
				<rect x="168.4" y="98.8" class="st4" width="15" height="1.9"/>
				<rect x="178.8" y="103.5" class="st4" width="14.5" height="1.9"/>
				<rect x="177.7" y="84.9" class="st5" width="27.1" height="1.9"/>
				<rect x="208.7" y="84.9" class="st5" width="12.9" height="1.9"/>
				<rect x="226.6" y="84.9" class="st5" width="17.5" height="1.9"/>
				<rect x="186.4" y="89.5" class="st4" width="15.2" height="1.9"/>
				<rect x="187.9" y="94.2" class="st5" width="8.7" height="1.9"/>
				<rect x="187.9" y="98.8" class="st5" width="15" height="1.9"/>
				<rect x="200.8" y="94.2" class="st5" width="16.6" height="1.9"/>
				<rect x="220.8" y="94.2" class="st5" width="8.7" height="1.9"/>
				<rect x="233.2" y="94.2" class="st5" width="10.8" height="1.9"/>
				<rect x="206.2" y="98.8" class="st5" width="18.9" height="1.9"/>
				<rect x="227.9" y="98.8" class="st5" width="5.6" height="1.9"/>
				<rect x="197.5" y="103.5" class="st5" width="10.8" height="1.9"/>
				<rect x="168.4" y="112.8" class="st4" width="15" height="1.9"/>
				<rect x="168.4" y="117.4" class="st4" width="15" height="1.9"/>
				<rect x="187.9" y="112.8" class="st5" width="8.7" height="1.9"/>
				<rect x="187.9" y="117.4" class="st5" width="13.5" height="1.9"/>
				<rect x="200.8" y="112.8" class="st5" width="12.8" height="1.9"/>
				<rect x="216.2" y="112.8" class="st5" width="6.7" height="1.9"/>
				<rect x="225.8" y="112.8" class="st5" width="8.3" height="1.9"/>
				<rect x="214.5" y="117.4" class="st5" width="15" height="1.9"/>
				<rect x="168.4" y="122.1" class="st4" width="15" height="1.9"/>
				<rect x="168.4" y="126.7" class="st4" width="15" height="1.9"/>
				<rect x="187.9" y="122.1" class="st5" width="8.7" height="1.9"/>
				<rect x="187.9" y="126.7" class="st5" width="27.4" height="1.9"/>
				<rect x="200.8" y="122.1" class="st5" width="16.6" height="1.9"/>
				<rect x="220.8" y="122.1" class="st5" width="8.7" height="1.9"/>
				<rect x="233.2" y="122.1" class="st5" width="10.8" height="1.9"/>
				<rect x="218.7" y="126.7" class="st5" width="15.4" height="1.9"/>
				<rect x="204.4" y="117.4" class="st5" width="6.4" height="1.9"/>
				<rect x="156.5" y="136" class="st4" width="15.9" height="1.9"/>
				<rect x="156.5" y="140.7" class="st5" width="25.6" height="1.9"/>
				<rect x="168.4" y="145.4" class="st4" width="15" height="1.9"/>
				<rect x="168.4" y="150" class="st4" width="15" height="1.9"/>
				<rect x="178.8" y="154.7" class="st4" width="14.5" height="1.9"/>
				<rect x="177.7" y="136" class="st5" width="15" height="1.9"/>
				<rect x="196.6" y="136" class="st5" width="7.6" height="1.9"/>
				<rect x="209.1" y="136" class="st5" width="24.2" height="1.9"/>
				<rect x="186.4" y="140.7" class="st4" width="15.2" height="1.9"/>
				<rect x="187.9" y="145.4" class="st5" width="17" height="1.9"/>
				<rect x="187.9" y="150" class="st5" width="11.6" height="1.9"/>
				<rect x="209.1" y="145.4" class="st5" width="12.7" height="1.9"/>
				<rect x="202.9" y="150" class="st5" width="22.2" height="1.9"/>
				<rect x="227.9" y="150" class="st5" width="5.6" height="1.9"/>
				<rect x="197.5" y="154.7" class="st5" width="10.8" height="1.9"/>
				<rect x="210.7" y="154.7" class="st5" width="20.1" height="1.9"/>
				<rect x="233.8" y="154.7" class="st5" width="6" height="1.9"/>
				<rect x="168.4" y="164" class="st4" width="15" height="1.9"/>
				<rect x="168.4" y="168.6" class="st4" width="15" height="1.9"/>
				<rect x="187.9" y="164" class="st5" width="24.6" height="1.9"/>
				<rect x="187.9" y="168.6" class="st5" width="13.5" height="1.9"/>
				<rect x="216.2" y="164" class="st5" width="6.7" height="1.9"/>
				<rect x="225.8" y="164" class="st5" width="8.3" height="1.9"/>
				<rect x="214.5" y="168.6" class="st5" width="15" height="1.9"/>
				<rect x="204.4" y="168.6" class="st5" width="6.4" height="1.9"/>
				<rect x="156.5" y="176.2" class="st4" width="15.9" height="1.9"/>
				<rect x="156.5" y="180.9" class="st5" width="25.6" height="1.9"/>
				<rect x="168.4" y="185.6" class="st4" width="15" height="1.9"/>
				<rect x="168.4" y="190.2" class="st4" width="15" height="1.9"/>
				<rect x="178.8" y="194.9" class="st4" width="14.5" height="1.9"/>
				<rect x="177.7" y="176.2" class="st5" width="15" height="1.9"/>
				<rect x="196.6" y="176.2" class="st5" width="7.6" height="1.9"/>
				<rect x="209.1" y="176.2" class="st5" width="34.9" height="1.9"/>
				<rect x="186.4" y="180.9" class="st4" width="15.2" height="1.9"/>
				<rect x="187.9" y="185.6" class="st5" width="17" height="1.9"/>
				<rect x="187.9" y="190.2" class="st5" width="11.6" height="1.9"/>
				<rect x="209.1" y="185.6" class="st5" width="12.7" height="1.9"/>
				<rect x="225.1" y="185.6" class="st5" width="7.7" height="1.9"/>
				<rect x="236.6" y="185.6" class="st5" width="7.5" height="1.9"/>
				<rect x="202.9" y="190.2" class="st5" width="22.2" height="1.9"/>
				<rect x="227.9" y="190.2" class="st5" width="5.6" height="1.9"/>
				<rect x="197.5" y="194.9" class="st5" width="10.8" height="1.9"/>
				<rect x="168.4" y="204.2" class="st4" width="15" height="1.9"/>
				<rect x="168.4" y="208.8" class="st4" width="15" height="1.9"/>
				<rect x="187.9" y="204.2" class="st5" width="24.6" height="1.9"/>
				<rect x="187.9" y="208.8" class="st5" width="13.5" height="1.9"/>
				<rect x="216.2" y="204.2" class="st5" width="6.7" height="1.9"/>
				<rect x="225.8" y="204.2" class="st5" width="8.3" height="1.9"/>
				<rect x="214.5" y="208.8" class="st5" width="15" height="1.9"/>
				<rect x="204.4" y="208.8" class="st5" width="6.4" height="1.9"/>
			</g>
			<rect x="149" y="67.8" class="st6" width="103.3" height="8.3"/>
		</g>
		<g>
			<rect x="222.7" y="-50.3" class="st7" width="23.7" height="67.5"/>
			<rect x="253.6" y="-50.3" class="st7" width="23.7" height="67.5"/>
			<rect x="282.6" y="-50.3" class="st7" width="23.7" height="67.5"/>
			
				<rect x="324.5" y="-52.1" transform="matrix(0.9407 -0.3392 0.3392 0.9407 26.1793 113.0092)" class="st7" width="23.7" height="67.5"/>
			<g>
				<path class="st8" d="M281.5-56.7V20c0,0.6,1.7,1.1,3.9,1.1h18.1c2.1,0,3.9-0.5,3.9-1.1v-76.7c0-0.6-1.7-1.1-3.9-1.1h-18.1
					C283.3-57.9,281.5-57.4,281.5-56.7z M284,9.6l0.3-0.5h19.3l0.3,0.5v2.1l-0.3,0.5h-19.3l-0.3-0.5V9.6z M284-37.2l0.3-0.5h19.3
					l0.3,0.5v2.1l-0.3,0.5h-19.3l-0.3-0.5V-37.2z M284-46.6l0.3-0.5h19.3l0.3,0.5v2.1l-0.3,0.5h-19.3l-0.3-0.5V-46.6z"/>
				<path class="st6" d="M309.4-51.5L337.2,20c0.2,0.6,2,0.4,4-0.4l16.8-6.5c2-0.8,3.4-1.9,3.2-2.4l-27.7-71.6c-0.2-0.6-2-0.4-4,0.4
					L312.7-54C310.6-53.2,309.2-52.1,309.4-51.5z M335.8,9.4l0.1-0.5l18-7l0.4,0.3l0.8,2L355,4.7l-18,7l-0.4-0.3L335.8,9.4z
					 M318.8-34.3l0.1-0.5l18-7l0.4,0.3l0.8,2L338-39l-18,7l-0.4-0.3L318.8-34.3z M315.4-43l0.1-0.5l18-7l0.4,0.3l0.8,2l-0.1,0.5
					l-18,7l-0.4-0.3L315.4-43z"/>
				<path class="st9" d="M252.5-56.7V20c0,0.6,1.7,1.1,3.9,1.1h18.1c2.1,0,3.9-0.5,3.9-1.1v-76.7c0-0.6-1.7-1.1-3.9-1.1h-18.1
					C254.3-57.9,252.5-57.4,252.5-56.7z M255,9.6l0.3-0.5h19.3l0.3,0.5v2.1l-0.3,0.5h-19.3l-0.3-0.5V9.6z M255-37.2l0.3-0.5h19.3
					l0.3,0.5v2.1l-0.3,0.5h-19.3l-0.3-0.5V-37.2z M255-46.6l0.3-0.5h19.3l0.3,0.5v2.1l-0.3,0.5h-19.3l-0.3-0.5V-46.6z"/>
				<path class="st10" d="M221.7-56.7V20c0,0.6,1.7,1.1,3.9,1.1h18.1c2.1,0,3.9-0.5,3.9-1.1v-76.7c0-0.6-1.7-1.1-3.9-1.1h-18.2
					C223.4-57.9,221.7-57.4,221.7-56.7z M224.1,9.6l0.3-0.5h19.3l0.3,0.5v2.1l-0.3,0.5h-19.3l-0.3-0.5V9.6z M224.1-37.2l0.3-0.5
					h19.3l0.3,0.5v2.1l-0.3,0.5h-19.3l-0.3-0.5C224.1-35.1,224.1-37.2,224.1-37.2z M224.1-46.6l0.3-0.5h19.3l0.3,0.5v2.1l-0.3,0.5
					h-19.3l-0.3-0.5C224.1-44.5,224.1-46.6,224.1-46.6z"/>
				<rect x="214.3" y="23.7" class="st11" width="167.8" height="6.1"/>
			</g>
		</g>
		<g>
			<g>
				<rect x="741.9" y="214" class="st12" width="47.4" height="20.7"/>
				<rect x="735.9" y="229.8" class="st13" width="59.5" height="4.9"/>
				<path class="st13" d="M847.1,212.8c0,2.7-2.2,4.9-4.9,4.9H689c-2.7,0-4.9-2.2-4.9-4.9V103.6c0-2.7,2.2-4.9,4.9-4.9h153.3
					c2.7,0,4.9,2.2,4.9,4.9v109.2L847.1,212.8L847.1,212.8z"/>
				<path class="st14" d="M847.1,202.2v-98.6c0-2.7-2.2-4.9-4.9-4.9H689c-2.7,0-4.9,2.2-4.9,4.9v98.6H847.1z"/>
				<polygon class="st15" points="691.1,105.7 691.1,113.4 691.1,198.1 706.5,198.1 824.7,198.1 840.2,198.1 840.2,113.4 
					840.2,105.7 				"/>
				<path class="st16" d="M769.4,210.6c0,2.1-1.7,3.8-3.8,3.8s-3.8-1.7-3.8-3.8c0-2.1,1.7-3.8,3.8-3.8
					C767.7,206.9,769.4,208.6,769.4,210.6z"/>
			</g>
			<rect x="695.8" y="111.2" class="st17" width="14.2" height="1.6"/>
			<rect x="702.9" y="114" class="st17" width="14.2" height="1.6"/>
			<rect x="702.9" y="136.4" class="st17" width="14.2" height="1.6"/>
			<rect x="702.9" y="117" class="st17" width="32.9" height="1.6"/>
			<rect x="702.9" y="120.1" class="st17" width="25.9" height="1.6"/>
			<rect x="695.8" y="124.7" class="st17" width="27.9" height="1.6"/>
			<rect x="702.9" y="127.5" class="st17" width="51.2" height="1.6"/>
			<rect x="702.9" y="130.5" class="st17" width="32.9" height="1.6"/>
			<rect x="695.8" y="140.4" class="st17" width="27.9" height="1.6"/>
			<rect x="702.9" y="143.2" class="st17" width="51.2" height="1.6"/>
			<rect x="702.9" y="146.1" class="st17" width="32.9" height="1.6"/>
			<rect x="702.9" y="133.6" class="st17" width="44.1" height="1.6"/>
			<rect x="695.8" y="150.5" class="st17" width="14.2" height="1.6"/>
			<rect x="702.9" y="153.3" class="st17" width="14.2" height="1.6"/>
			<rect x="702.9" y="175.6" class="st17" width="14.2" height="1.6"/>
			<rect x="702.9" y="156.2" class="st17" width="32.9" height="1.6"/>
			<rect x="702.9" y="159.4" class="st17" width="25.9" height="1.6"/>
			<rect x="695.8" y="163.9" class="st17" width="27.9" height="1.6"/>
			<rect x="702.9" y="166.7" class="st17" width="51.2" height="1.6"/>
			<rect x="702.9" y="169.7" class="st17" width="32.9" height="1.6"/>
			<rect x="695.8" y="179.6" class="st17" width="27.9" height="1.6"/>
			<rect x="702.9" y="182.4" class="st17" width="51.2" height="1.6"/>
			<rect x="702.9" y="185.4" class="st17" width="32.9" height="1.6"/>
			<rect x="702.9" y="172.8" class="st17" width="44.1" height="1.6"/>
		</g>
		<g>
			<g>
				<g>
					<polyline class="st7" points="290.2,400 325,457.6 271.4,490.3 228.1,418.6 269,393.6 					"/>
					<polygon class="st18" points="269.1,393.6 290.2,400 277.5,407.7 					"/>
				</g>
				<line class="st19" x1="249.7" y1="440.8" x2="290.3" y2="416"/>
				<line class="st19" x1="253.3" y1="446.7" x2="293.9" y2="422"/>
				<line class="st19" x1="256.9" y1="452.7" x2="297.5" y2="428"/>
				<line class="st19" x1="260.5" y1="458.7" x2="301.1" y2="433.9"/>
				<line class="st19" x1="264.1" y1="464.6" x2="304.7" y2="439.9"/>
				<line class="st19" x1="267.7" y1="470.6" x2="308.3" y2="445.9"/>
				<polygon class="st20" points="265.6,418.5 244.7,431.3 238.8,421.4 259.7,408.7 				"/>
			</g>
			<g>
				<g>
					<polyline class="st7" points="360.2,423.5 333.2,485.2 275.7,460.3 309.3,383.5 353.2,402.6 					"/>
					<polygon class="st18" points="353.2,402.6 360.2,423.5 346.6,417.6 					"/>
				</g>
				<line class="st19" x1="303.6" y1="413.9" x2="347.1" y2="432.8"/>
				<line class="st19" x1="300.8" y1="420.3" x2="344.3" y2="439.2"/>
				<line class="st19" x1="298" y1="426.7" x2="341.5" y2="445.6"/>
				<line class="st19" x1="295.2" y1="433.1" x2="338.8" y2="452"/>
				<line class="st19" x1="292.4" y1="439.5" x2="336" y2="458.4"/>
				<line class="st19" x1="289.6" y1="445.9" x2="333.2" y2="464.8"/>
				<polygon class="st20" points="330.9,414.1 308.5,404.4 313.1,393.8 335.5,403.6 				"/>
			</g>
		</g>
		<g>
			<path class="st21" d="M623.8,433.5h1.1c0,0,0-0.3,0-0.6c0-9.9,8-17.8,17.9-17.8c1.7,0,3.4,0.3,4.9,0.7
				c3.8-10.7,13.9-18.3,25.9-18.3c14.5,0,26.2,11.3,27.1,25.6c13.8,0.1,24.7,11.3,24.7,25.2v0.7c0,13.9-10.7,26.2-24.6,26.2h-30.2
				c-0.1,0-0.2,0-0.3,0s-0.2,0-0.3,0h-46.2c-10.9,0-19.3-9.9-19.3-20.8v-0.7C604.4,442.7,612.8,433.5,623.8,433.5"/>
			<g>
				<path class="st22" d="M610.1,459.3l-0.1-1.9c0-0.6,0-1.3,0-1.9s0.1-1.3,0.2-1.9c0.1-0.6,0.3-1.3,0.4-1.9
					c0.1-0.6,0.4-1.2,0.6-1.9c0.2-0.6,0.5-1.2,0.8-1.8s0.6-1.2,0.9-1.8s0.8-1.1,1.1-1.7c0.4-0.5,0.9-1,1.3-1.5
					c0.5-0.5,1-0.9,1.5-1.4c0.5-0.4,1.1-0.8,1.7-1.2c0.6-0.3,1.2-0.7,1.8-1s1.3-0.6,1.9-0.8c0.7-0.2,1.3-0.4,2-0.6
					c0.7-0.1,1.4-0.3,2-0.4l2.1-0.2l-0.6,0.1c0.1,0,0.2-0.1,0.3-0.1s0.2-0.1,0,0l-0.1,0.1l-0.1,0.1c0,0-0.1,0.1-0.1,0.2
					s-0.1,0.1-0.1,0.2c-0.1,0.1-0.1,0.3-0.1,0.5s0,0.1,0,0.1l0,0v-0.3v-0.5c0-0.4,0-0.7,0-1.1l0.2-1.2c0.1-0.9,0.3-1.6,0.5-2.4
					s0.5-1.5,0.8-2.3c0.4-0.7,0.6-1.5,1.1-2.1l0.6-1c0.2-0.3,0.5-0.6,0.7-1c0.5-0.7,1-1.2,1.5-1.8s1.2-1.1,1.8-1.6s1.3-1,2-1.4
					l1-0.6c0.4-0.2,0.7-0.3,1.1-0.5c0.7-0.4,1.5-0.6,2.2-0.9c0.8-0.3,1.5-0.4,2.3-0.6c0.8-0.1,1.6-0.3,2.4-0.3s1.6-0.1,2.4,0
					c1.6,0.1,3.2,0.4,4.7,0.9l-2.3,1.2l0.8-2l0.9-1.9c0.3-0.6,0.7-1.2,1.1-1.8c0.4-0.6,0.8-1.2,1.2-1.7c0.4-0.6,0.9-1.1,1.4-1.6
					l1.5-1.5c0.5-0.5,1.1-0.9,1.6-1.4c0.6-0.4,1.1-0.8,1.7-1.2c0.6-0.3,1.2-0.7,1.8-1s1.2-0.6,1.9-0.9c0.7-0.2,1.3-0.5,2-0.7
					s1.3-0.4,2-0.5s1.3-0.3,2-0.3c0.7-0.1,1.4-0.2,2-0.2c0.7,0,1.4,0,2,0l2,0.1l-2,0.3c-0.7,0.1-1.3,0.3-1.9,0.4
					c-0.6,0.1-1.3,0.3-1.9,0.5c-0.6,0.2-1.2,0.4-1.9,0.6c-0.6,0.2-1.2,0.5-1.8,0.7s-1.1,0.6-1.7,0.9c-0.6,0.3-1.1,0.7-1.6,1
					s-1,0.7-1.5,1.1s-1,0.8-1.4,1.2l-1.3,1.3l-1.2,1.4c-0.4,0.5-0.7,1-1.1,1.5c-0.3,0.5-0.7,1.1-1,1.6l-0.8,1.7l-0.7,1.7l-0.6,1.8
					c-0.3,0.9-1.3,1.4-2.3,1.2l0,0c-1.3-0.3-2.5-0.5-3.8-0.6c-0.6,0-1.3,0.1-1.9,0.1c-0.6,0-1.3,0.2-1.9,0.3
					c-0.6,0.2-1.2,0.3-1.8,0.5s-1.2,0.4-1.8,0.7c-0.3,0.1-0.6,0.3-0.8,0.4l-0.8,0.5c-0.6,0.3-1,0.7-1.5,1.1s-1,0.8-1.4,1.3
					c-0.4,0.5-0.9,0.9-1.2,1.4c-0.2,0.3-0.4,0.5-0.6,0.8l-0.5,0.8c-0.4,0.5-0.6,1.1-0.9,1.7c-0.2,0.6-0.5,1.2-0.7,1.8
					s-0.4,1.2-0.5,1.8l-0.2,0.9c0,0.3-0.1,0.7-0.1,1.1v0.5v0.3v0.2c0,0.2-0.1,0.4-0.2,0.5c-0.1,0.1-0.1,0.2-0.2,0.3
					c-0.1,0.1-0.1,0.2-0.2,0.2l-0.1,0.1c-0.1,0.1-0.2,0.2-0.2,0.2c-0.5,0.3-0.7,0.4-0.9,0.5c-0.2,0.1-0.4,0.2-0.7,0.2
					c-0.2,0.1-0.3,0.1-0.5,0.1l0,0h-1.7l-1.7,0.2c-0.6,0.1-1.1,0.2-1.7,0.4c-0.5,0.2-1.1,0.4-1.6,0.6s-1,0.5-1.6,0.7l-1.5,0.9
					c-0.5,0.4-0.9,0.7-1.4,1.1c-0.4,0.4-0.9,0.8-1.3,1.2c-0.4,0.4-0.8,0.9-1.2,1.3c-0.3,0.5-0.7,0.9-1,1.5c-0.3,0.5-0.7,1-0.9,1.6
					c-0.3,0.5-0.6,1.1-0.8,1.6c-0.2,0.6-0.5,1.1-0.7,1.7s-0.4,1.2-0.5,1.8c-0.1,0.6-0.3,1.2-0.4,1.8L610.1,459.3z"/>
			</g>
			<path class="st23" d="M673,437.2c-1.1-0.5-2.6-0.9-4.4-0.9c-5.7,0-9.8,4.7-9.8,9.8c0,3.3,2.1,5.2,4.4,5.2c2.5,0,4.4-1.2,5.8-3.6
				h0.2c-0.1,2.5,1.4,3.6,3,3.6c3.9,0,7.3-3.6,7.3-9.8c0-6.9-4.8-11.9-12-11.9c-9.1,0-15,7.3-15,15.8c0,7.9,5.7,12.9,12.5,12.9
				c2.8,0,5.1-0.5,7.3-1.7l-0.7-1.8c-1.7,0.9-3.9,1.4-6.2,1.4c-6.1,0-10.6-4.2-10.6-11.1c0-8.4,5.6-13.7,12.4-13.7
				c6.4,0,10,4.3,10,10.3c0,4.8-2.3,7.6-4.4,7.5c-1.4,0-1.9-1.5-1.2-4.6L673,437.2z M669.3,443.5c-0.5,2.6-2.6,5.6-5,5.6
				c-1.8,0-2.7-1.3-2.7-3.1c0-4,2.9-7.4,6.5-7.4c0.9,0,1.6,0.2,2.1,0.3L669.3,443.5z"/>
		</g>
	</g>
	<g>
		<path class="st0" d="M533,176.3L533,176.3L533,176.3z"/>
		<path class="st24" d="M427.7,171.3c0,7.4-6,13.3-13.3,13.3c-7.4,0-13.3-6-13.3-13.3c0-7.4,6-13.3,13.3-13.3
			C421.8,158,427.7,164,427.7,171.3"/>
		<path class="st24" d="M567.8,171.3c0,7.4-6,13.3-13.3,13.3c-7.4,0-13.3-6-13.3-13.3c0-7.4,6-13.3,13.3-13.3
			C561.9,158,567.8,164,567.8,171.3"/>
		<g>
			<g>
				<g>
					<path class="st25" d="M534.2,306.9c3.4-0.2,6.7-1.4,10-2.3c3.7-1,7.5-1,11.2-1.9c0.2-0.1,0.1-0.4-0.1-0.3
						c-3.6,0.7-7.2,0.8-10.8,1.7C541.1,305,537.7,306,534.2,306.9C534.2,306.8,534.2,306.9,534.2,306.9L534.2,306.9z"/>
				</g>
			</g>
			<g>
				<g>
					<path class="st25" d="M536.2,306.7c-0.2,0.5-0.1,1.2,0.2,1.7c0,0.1,0.2,0.1,0.2,0c0.1-0.5,0-1.2-0.2-1.6
						C536.3,306.6,536.2,306.6,536.2,306.7L536.2,306.7z"/>
				</g>
			</g>
			<g>
				<g>
					<path class="st25" d="M537.3,306.3c-0.2,0.5-0.1,1.5,0.3,1.9c0.1,0.1,0.2,0.1,0.2,0c0.1-0.3,0.1-0.5,0-0.8
						c-0.1-0.4-0.1-0.8-0.3-1.1C537.6,306.2,537.4,306.1,537.3,306.3L537.3,306.3z"/>
				</g>
			</g>
			<g>
				<g>
					<path class="st25" d="M538.9,305.9c0.1,0.6,0.2,1.3,0.5,1.8h0.1C539.4,307,539.2,306.4,538.9,305.9
						C539,305.8,538.9,305.8,538.9,305.9L538.9,305.9z"/>
				</g>
			</g>
			<g>
				<g>
					<path class="st25" d="M540.3,305.7c0,0.6,0.2,1.4,0.6,1.9c0.1,0.1,0.2,0,0.2-0.1c0.1-0.6-0.2-1.3-0.5-1.9
						C540.6,305.4,540.3,305.5,540.3,305.7L540.3,305.7z"/>
				</g>
			</g>
			<g>
				<g>
					<path class="st25" d="M541.7,305.1c-0.1,0.4,0.1,0.8,0.2,1.2c0.1,0.4,0.2,0.8,0.6,1c0.1,0.1,0.2,0,0.2-0.1
						c0-0.4-0.1-0.8-0.3-1.2c-0.1-0.3-0.2-0.7-0.4-1C541.9,305,541.7,305,541.7,305.1L541.7,305.1z"/>
				</g>
			</g>
			<g>
				<g>
					<path class="st25" d="M542.9,304.8c0,0.4,0.1,0.7,0.3,1.1c0.1,0.3,0.1,0.7,0.4,0.9c0.1,0.1,0.2,0,0.3-0.1
						c0.1-0.4-0.1-0.7-0.2-1.1c-0.1-0.3-0.3-0.7-0.5-1C543,304.7,542.9,304.8,542.9,304.8L542.9,304.8z"/>
				</g>
			</g>
			<g>
				<g>
					<path class="st25" d="M544.6,304.5c-0.2,0.4-0.1,0.8,0,1.2c0.1,0.4,0.2,1,0.5,1.2c0.1,0.1,0.2,0,0.2-0.1
						c0.1-0.4-0.1-0.8-0.2-1.1c-0.1-0.4-0.2-0.8-0.4-1.2H544.6L544.6,304.5z"/>
				</g>
			</g>
			<g>
				<g>
					<path class="st25" d="M545.9,304.2c0,0.5,0.2,0.9,0.3,1.4c0.1,0.4,0.2,0.9,0.5,1.2c0.1,0.1,0.2,0,0.2-0.1
						c0.1-0.4-0.2-0.8-0.3-1.2c-0.1-0.4-0.3-0.9-0.5-1.3C546,304,545.9,304.1,545.9,304.2L545.9,304.2z"/>
				</g>
			</g>
			<g>
				<g>
					<path class="st25" d="M547.1,304.1c0.2,0.7,0.4,1.3,0.7,1.9c0,0.1,0.1,0,0.1,0c0-0.7-0.3-1.3-0.6-2
						C547.3,303.9,547.1,304,547.1,304.1L547.1,304.1z"/>
				</g>
			</g>
			<g>
				<g>
					<path class="st25" d="M548.4,303.9c-0.1,0.4,0.1,0.7,0.2,1.1c0.1,0.4,0.2,0.8,0.5,1.1h0.1c0.2-0.7-0.2-1.7-0.7-2.2
						C548.5,303.8,548.4,303.8,548.4,303.9L548.4,303.9z"/>
				</g>
			</g>
			<g>
				<g>
					<path class="st25" d="M549.8,303.8c0.2,0.7,0.5,1.4,0.9,2c0,0.1,0.2,0,0.1-0.1c-0.2-0.7-0.6-1.4-0.9-2
						C549.9,303.6,549.8,303.7,549.8,303.8L549.8,303.8z"/>
				</g>
			</g>
			<g>
				<g>
					<path class="st25" d="M551,303.5c0.1,0.4,0.2,0.8,0.3,1.2c0.1,0.3,0.1,0.7,0.4,0.9c0,0.1,0.1,0,0.2,0c0.3-0.7-0.3-1.6-0.7-2.2
						C551.1,303.4,551,303.4,551,303.5L551,303.5z"/>
				</g>
			</g>
			<g>
				<g>
					<path class="st25" d="M552.2,303.3c0,0.6,0.2,1.5,0.7,1.9c0.1,0.1,0.2,0,0.2-0.1c0-0.4-0.2-0.7-0.3-1c-0.1-0.3-0.3-0.6-0.4-0.9
						C552.4,303.2,552.2,303.2,552.2,303.3L552.2,303.3z"/>
				</g>
			</g>
			<g>
				<g>
					<path class="st25" d="M553.3,303c0.1,0.4,0.2,0.8,0.3,1.2c0.1,0.3,0,0.7,0.3,1h0.1c0.2-0.3,0-0.7-0.1-1
						C553.8,303.8,553.6,303.4,553.3,303C553.3,302.9,553.3,303,553.3,303L553.3,303z"/>
				</g>
			</g>
			<g>
				<g>
					<path class="st25" d="M554.7,303c-0.3,0.7,0,1.7,0.3,2.3c0.1,0.1,0.2,0.1,0.2,0c0.1-0.4,0.1-0.7,0-1.1
						c-0.1-0.4-0.2-0.8-0.3-1.2C554.9,302.9,554.8,302.9,554.7,303L554.7,303z"/>
				</g>
			</g>
		</g>
		<g>
			<g>
				<g>
					<path class="st25" d="M414,302.8c-0.2,0.3-0.3,0.7-0.4,1c-0.1,0.4-0.3,0.7-0.3,1.1c0,0.1,0.1,0.2,0.2,0.1
						c0.3-0.3,0.3-0.7,0.5-1.1C414.1,303.5,414.2,303.2,414,302.8C414.1,302.7,414.1,302.7,414,302.8L414,302.8z"/>
				</g>
			</g>
			<g>
				<g>
					<path class="st25" d="M415.5,303.3c-0.1,0.4-0.2,0.8-0.2,1.2c-0.1,0.3-0.2,0.6,0,0.9c0,0.1,0.2,0.1,0.2,0.1
						c0.3-0.2,0.3-0.6,0.3-0.9c0-0.4,0.1-0.9,0-1.3C415.8,303.1,415.6,303.1,415.5,303.3L415.5,303.3z"/>
				</g>
			</g>
			<g>
				<g>
					<path class="st25" d="M417.3,303.5c-0.1,0.3-0.1,0.8-0.1,1.1c-0.1,0.4-0.3,0.8-0.2,1.2c0,0.1,0.2,0.2,0.3,0.1
						c0.4-0.3,0.4-1,0.5-1.4c0-0.3,0.1-1-0.3-1.1C417.4,303.4,417.4,303.4,417.3,303.5L417.3,303.5z"/>
				</g>
			</g>
			<g>
				<g>
					<path class="st25" d="M419,303.9c-0.1,0.3,0,0.8,0,1.2c0,0.4-0.2,0.8,0,1.1c0,0,0.1,0.1,0.2,0c0.4-0.2,0.3-0.9,0.3-1.3
						c0-0.3,0-0.9-0.4-1C419.1,303.8,419,303.8,419,303.9L419,303.9z"/>
				</g>
			</g>
			<g>
				<g>
					<path class="st25" d="M421.5,304.4c-0.2,0.3-0.2,0.6-0.3,0.9c0,0.3-0.2,0.7,0,0.9c0.1,0.1,0.1,0.1,0.2,0.1
						c0.3-0.2,0.3-0.4,0.3-0.7c0-0.4,0.1-0.7,0-1.1C421.7,304.4,421.5,304.4,421.5,304.4L421.5,304.4z"/>
				</g>
			</g>
			<g>
				<g>
					<path class="st25" d="M423,304.5c-0.1,0.4-0.1,0.8-0.2,1.2c-0.1,0.4-0.2,0.7-0.2,1.1c0,0.2,0.3,0.2,0.4,0
						c0.3-0.7,0.4-1.6,0.4-2.3C423.3,304.4,423.1,304.3,423,304.5L423,304.5z"/>
				</g>
			</g>
			<g>
				<g>
					<path class="st25" d="M425.3,304.5c-0.4,0.8-0.5,1.8-0.6,2.7c0,0.3,0.5,0.4,0.6,0.1c0.2-0.9,0.3-1.9,0.2-2.7
						C425.6,304.4,425.4,304.4,425.3,304.5L425.3,304.5z"/>
				</g>
			</g>
			<g>
				<g>
					<path class="st25" d="M427.4,305c-0.1,0.4-0.1,0.8-0.2,1.2c0,0.4-0.1,0.9,0,1.2c0,0.1,0.1,0.1,0.2,0.1c0.3-0.3,0.2-0.7,0.2-1.1
						C427.6,305.9,427.6,305.5,427.4,305C427.5,305,427.4,305,427.4,305L427.4,305z"/>
				</g>
			</g>
			<g>
				<g>
					<path class="st25" d="M429.2,305.5c-0.2,0.5-0.2,1-0.3,1.5c-0.1,0.4-0.2,0.8-0.1,1.2c0,0.1,0.2,0.1,0.2,0.1
						c0.6-0.6,0.6-2,0.4-2.8C429.4,305.4,429.2,305.4,429.2,305.5L429.2,305.5z"/>
				</g>
			</g>
			<g>
				<g>
					<path class="st25" d="M430.7,305.9c-0.1,0.4-0.1,0.8-0.1,1.2c0,0.4-0.2,0.8-0.1,1.2c0,0.1,0.1,0.1,0.2,0.1
						c0.3-0.3,0.3-0.7,0.4-1.1c0-0.5,0-0.9-0.1-1.4C430.9,305.7,430.7,305.7,430.7,305.9L430.7,305.9z"/>
				</g>
			</g>
			<g>
				<g>
					<path class="st25" d="M432.5,306.4c-0.2,0.4-0.2,0.8-0.3,1.2c-0.1,0.3-0.2,0.7-0.1,1c0,0.1,0.1,0.1,0.2,0.1
						c0.6-0.4,0.5-1.6,0.5-2.2C432.8,306.2,432.6,306.2,432.5,306.4L432.5,306.4z"/>
				</g>
			</g>
			<g>
				<g>
					<path class="st25" d="M412.2,302.6c3.4,0.8,7,1.4,10.5,2c3.6,0.6,7.2,0.8,10.7,2c0.3,0.1,0.4-0.3,0.1-0.4
						c-3.7-1.4-7.7-1.6-11.5-2.3C418.9,303.3,415.4,301.8,412.2,302.6C412.2,302.5,412.2,302.6,412.2,302.6L412.2,302.6z"/>
				</g>
			</g>
		</g>
		<path class="st26" d="M524.3,245.8c-9.6-2.1-24.4-4.7-39.8-4.7s-30.3,2.6-39.9,4.7c-6.1,1.3-10.9,7.8-10.9,14v101.5h101.6V259.9
			C535.2,253.7,530.3,247.2,524.3,245.8"/>
		<g>
			<path class="st24" d="M531.4,321.7c-8.9-5.5-39.1-5-48.7-1c-0.2,0-0.4-0.1-0.6-0.1c-13.3,0.5-29.9,0.4-42.3,7
				c2-5.9,2.4-20.7,1-21.3c-5.3-1.9-11.1-2-16.5-3.5c-3.8-1.1-8.7-1.9-11.6,1.6c-1,1.2-1.3,3-1.5,4.5c-0.5,3.6-1.2,7.1-1.8,10.7
				c-1.2,7.1-2,14.3-2.3,21.6c0,0.1,0,0.3,0,0.4c0,0.2,0,0.4,0,0.6c2.2,17.4,39.7,6,40,5.9c20.1-6.6,40.1-13.7,61.2-16.6
				c0.1,0,0.2,0.1,0.3,0.1c2.8,0.4,24,1,25.5-2.3C535.4,326.4,534.1,323.4,531.4,321.7z"/>
			<g id="XMLID_1_">
				<g>
					<path class="st24" d="M512.5,324.7c3.2,1.5,2,2.6,0,3c-0.3-0.4-0.8-0.6-1.5-0.5c-17.6,2-34.4,7.1-51.1,12.5
						c0-1.4-46.6,20.6-48.9,2.5c0-0.2-0.1-0.3-0.1-0.4c0-0.2,0.1-0.4,0.1-0.6c0.5-10.1,2.5-19.8,3.7-29.8c0.9-7.1,6.1-5.3,11.2-3.8
						c3.9,1.1,7.9,1.2,11.8,2.2c1.3,7.5-0.7,14.9-3.8,21.9c-0.7,0.5-2.5,5.2-2.7,5.6c-1.2,2.3,2.3,4.3,3.5,2
						c0.9-1.7,1.7-3.4,2.5-5.1c11.5-9.1,29.7-8.9,43.7-9.3c0.6,0.4,1.3,0.6,2.1,0.2c6.1-3,13-3.3,19.7-2.7
						C506,322.5,509.6,323.3,512.5,324.7z"/>
				</g>
			</g>
			<g id="XMLID_2_">
				<g>
					<path class="st24" d="M559.6,332.7c0,0.2,0,0.4-0.1,0.5c0,0.1,0.1,0.3,0.1,0.5c-0.1,35.9-61.4,2.7-78,3.5
						c-0.4,0-0.8-0.1-1.1-0.3c-2.5-0.1-2.5-4,0.1-4c6,0,11.6-0.4,17.2-2.6c4.8-1.9,9.9-3.4,15-4.5c4.3-0.9,9.1-1.7,13.4-0.4
						c2.5,0.7,5,2.1,7.7,1.8c0.1,0,0.1,0,0.2,0c-3-4.7-7.3-18.1-5.8-18.9c0.7-0.4,1.4-1.4,2.3-1.6c1.7-0.5,3.7-0.4,5.5-0.8
						c3-0.6,6.1-1.1,9.1-1.8c3.2-0.6,7.6-2.9,9.6,0c1.9,2.6,2.9,8.5,3.4,11.3C559,321.1,559.5,326.9,559.6,332.7z M555.6,333.2
						c0-0.2-0.1-0.3-0.1-0.5c0-4,0-26.7-5.7-25.5c-3.6,0.7-7.3,1.5-10.9,2.2c-2.4,0.5-4.6,0.7-6.8,1.5c1.1,5.9,3,11.7,6.8,16.4
						c0.1,0,0.2,0,0.3,0c2.4,0.4,1.5,4-0.8,3.9c-0.5,0.2-1,0.2-1.4-0.1c-2.4-0.1-4.7,0.7-7-0.1c-2.5-0.9-5.3-2.1-8-2.1
						c-5.3,0-10.2,1.3-15.2,2.6c-4.2,1.1-8.2,3.2-12.5,4.2c22.5,6.4,61.1,21.4,61.1-2C555.6,333.5,555.6,333.3,555.6,333.2z"/>
					<path class="st24" d="M555.6,332.7c0,0.2,0,0.3,0.1,0.5c0,0.2-0.1,0.3-0.1,0.5c-0.1,23.4-38.6,8.4-61.1,2
						c4.2-1,8.2-3.1,12.5-4.2c5.1-1.3,10-2.6,15.2-2.6c2.7,0,5.4,1.2,8,2.1c2.3,0.8,4.7,0,7,0.1c0.5,0.3,1,0.3,1.4,0.1
						c2.3,0.1,3.2-3.5,0.8-3.9c-0.1,0-0.2,0-0.3,0c-3.8-4.7-5.7-10.6-6.8-16.4c2.1-0.8,4.3-1,6.8-1.5c3.6-0.7,7.3-1.5,10.9-2.2
						C555.6,306,555.5,328.7,555.6,332.7z"/>
				</g>
			</g>
			<path class="st24" d="M483.1,320.7c-1.9-0.7-13.9-2.2-15.8-2.6c-0.2-0.4-18.4-0.9-25.7,2.1c-1.1,0.5-1.5,1.6-1.3,2.6l-3.2,5.7
				l32.8-5.4l-0.2-0.2c0.8,0.2,11.6,1.5,12.3,1.7C484.5,325.5,485.5,321.7,483.1,320.7z"/>
		</g>
		<path class="st9" d="M536.9,252.9c-2-2.3-4.5-4.2-7.5-5.4c-2.9-1.1-6-1.5-8.7-0.9c-1.3,0.2-2.4,0.7-3.4,1.4
			c-0.9,0.6-1.7,1.3-2.3,2.2c-1.2,1.7-1.7,3.6-1.7,5.6c0,4,3.1,18.5,3.9,19.9c1.6,2.8,3.5,7.5,5.1,12.6c1.6,5.1,2.9,10.6,3.7,14.8
			c0.9,4.2,1.3,7,1.3,7l28.7-5c0,0-0.5-3.1-1.5-7.9c-1-4.7-2.4-11.1-4.4-17.5s-4.6-13-7.5-18.1c-1.4-2.5-2.9-4.7-4-6.2
			c-0.5-0.8-1.1-1.4-1.4-1.8C537.1,253.1,536.9,252.9,536.9,252.9"/>
		<path class="st9" d="M454.6,255.7c0-2-0.5-3.9-1.7-5.6c-0.6-0.9-1.4-1.6-2.3-2.2c-1-0.6-2.1-1.1-3.4-1.4c-2.6-0.6-5.7-0.2-8.7,0.9
			c-3,1.2-5.5,3.1-7.5,5.4c0,0-0.2,0.2-0.5,0.6c-0.3,0.4-0.9,1-1.4,1.8c-1.1,1.5-2.6,3.7-4,6.2c-2.9,5.1-5.5,11.7-7.5,18.1
			s-3.5,12.8-4.4,17.5c-1,4.7-1.5,7.9-1.5,7.9l30.7,5c0,0,0.1-2.5,0.3-7c0.2-4.2,1.1-9.6,2.7-14.8
			C447.1,283.2,454.6,259.7,454.6,255.7z"/>
		<g>
			<g>
				<g>
					<path class="st25" d="M458.8,243.1c-3.3,5.8,1.8,12.4,6.3,15.8c5.4,4.1,12.4,6.9,19.1,7.4s12.8-2.1,17.9-6.3
						c4.5-3.7,10.1-10.1,8.5-16.5c-0.2-0.6-1.1-0.4-1,0.3c1,6.7-4.5,12.6-9.5,16.3c-4.6,3.4-9.9,5.4-15.6,5.1c-6-0.4-12-2.7-17-5.9
						c-2.6-1.7-5-3.8-6.7-6.4c-2-3.1-2.2-6.1-1.6-9.7C459.3,243,458.9,242.8,458.8,243.1L458.8,243.1z"/>
				</g>
			</g>
			<g>
				<g>
					<path class="st25" d="M458.7,245.6c1,0.2,2.2-0.1,3-0.7c0.1-0.1,0.1-0.3-0.1-0.3c-0.5,0-0.9,0.2-1.3,0.3
						c-0.5,0.2-1,0.3-1.6,0.3C458.5,245.3,458.5,245.6,458.7,245.6L458.7,245.6z"/>
				</g>
			</g>
			<g>
				<g>
					<path class="st25" d="M458.8,248.3c0.6,0.1,1.1-0.1,1.7-0.2c0.6-0.2,1.1-0.3,1.6-0.6c0.1-0.1,0.1-0.3-0.1-0.3
						c-0.6,0-1.1,0.2-1.6,0.3c-0.6,0.2-1.1,0.4-1.7,0.6C458.7,248.1,458.7,248.3,458.8,248.3L458.8,248.3z"/>
				</g>
			</g>
			<g>
				<g>
					<path class="st25" d="M459.3,250.4c0.5,0.1,1.1-0.1,1.6-0.3c0.6-0.3,1.2-0.6,1.7-1c0.1-0.1,0-0.3-0.1-0.3
						c-0.5,0.1-1,0.4-1.5,0.6c-0.5,0.3-1.2,0.5-1.7,0.8C459.2,250.2,459.2,250.4,459.3,250.4L459.3,250.4z"/>
				</g>
			</g>
			<g>
				<g>
					<path class="st25" d="M461,252.7c0.5-0.2,1-0.5,1.5-0.7c0.5-0.3,0.9-0.6,1.2-1c0.1-0.2-0.1-0.3-0.2-0.3c-0.5,0.1-1,0.4-1.5,0.7
						c-0.4,0.3-0.9,0.5-1.3,0.9C460.6,252.4,460.8,252.8,461,252.7L461,252.7z"/>
				</g>
			</g>
			<g>
				<g>
					<path class="st25" d="M462.2,255.2c0.7-0.5,1.3-0.9,2-1.4c0.5-0.4,1.2-0.8,1.6-1.3c0.1-0.1-0.1-0.3-0.2-0.3
						c-0.7,0.2-1.2,0.7-1.7,1.2c-0.7,0.5-1.2,1.1-1.8,1.7C462.1,255.2,462.2,255.3,462.2,255.2L462.2,255.2z"/>
				</g>
			</g>
			<g>
				<g>
					<path class="st25" d="M464.1,257.2c0.7-0.4,1.3-0.9,2-1.4c0.5-0.4,1.1-0.8,1.4-1.4c0.1-0.1-0.1-0.2-0.2-0.2
						c-0.6,0.3-1.1,0.8-1.7,1.2c-0.6,0.5-1.2,0.9-1.7,1.5C463.9,257.1,464,257.3,464.1,257.2L464.1,257.2z"/>
				</g>
			</g>
			<g>
				<g>
					<path class="st25" d="M466.2,258.6c0.6-0.3,1.1-0.8,1.6-1.2c0.5-0.5,1-1,1.2-1.6c0.1-0.2-0.2-0.3-0.3-0.2c-0.6,0.4-1,1-1.4,1.5
						C466.9,257.5,466.4,257.9,466.2,258.6C466.1,258.6,466.2,258.6,466.2,258.6L466.2,258.6z"/>
				</g>
			</g>
			<g>
				<g>
					<path class="st25" d="M468.8,260.3c0.5-0.5,0.9-1.1,1.3-1.6c0.4-0.6,0.9-1.2,1.1-1.9c0.1-0.2-0.2-0.3-0.3-0.2
						c-0.5,0.5-0.9,1.2-1.4,1.8c-0.4,0.6-0.9,1.1-1,1.8C468.6,260.3,468.7,260.3,468.8,260.3L468.8,260.3z"/>
				</g>
			</g>
			<g>
				<g>
					<path class="st25" d="M471.7,261.5c0.4-0.6,0.7-1.3,1-1.9c0.2-0.5,0.5-1,0.6-1.6c0-0.2-0.2-0.2-0.3-0.1c-0.4,0.5-0.7,1.2-1,1.8
						c-0.3,0.6-0.5,1.2-0.5,1.8C471.4,261.6,471.6,261.6,471.7,261.5L471.7,261.5z"/>
				</g>
			</g>
			<g>
				<g>
					<path class="st25" d="M474.5,262.9c0.5-0.3,0.6-1,0.8-1.5c0.3-0.7,0.5-1.4,0.6-2.1c0-0.2-0.3-0.2-0.3-0.1
						c-0.3,0.6-0.5,1.2-0.7,1.8c-0.2,0.6-0.5,1.2-0.5,1.8C474.3,262.9,474.4,263,474.5,262.9L474.5,262.9z"/>
				</g>
			</g>
			<g>
				<g>
					<path class="st25" d="M477.8,263.7c0.2-0.7,0.3-1.3,0.5-2c0.2-0.6,0.5-1.2,0.4-1.9c0-0.2-0.2-0.2-0.3-0.1
						c-0.4,0.6-0.6,1.4-0.7,2.1c-0.1,0.6-0.2,1.3-0.1,1.9C477.6,263.8,477.8,263.8,477.8,263.7L477.8,263.7z"/>
				</g>
			</g>
			<g>
				<g>
					<path class="st25" d="M481.2,264.8c0.4-1.6,0.4-3.7-0.1-5.2c0-0.2-0.3-0.1-0.3,0c0,0.9,0,1.9,0,2.8c0,0.8-0.1,1.6,0.1,2.4
						C481,265,481.2,265,481.2,264.8L481.2,264.8z"/>
				</g>
			</g>
			<g>
				<g>
					<path class="st25" d="M485,265.1c0.2-0.7,0.2-1.4,0.2-2.1s0.1-1.5-0.1-2.2c-0.1-0.2-0.3-0.2-0.4,0c-0.2,0.7-0.2,1.5-0.1,2.2
						c0,0.7,0,1.4,0.2,2.1C484.7,265.3,484.9,265.3,485,265.1L485,265.1z"/>
				</g>
			</g>
			<g>
				<g>
					<path class="st25" d="M488.3,265.2c0.3-1.7-0.3-3.6-0.7-5.2c0-0.2-0.3-0.2-0.4,0c-0.3,1.7,0.4,3.5,0.8,5.2
						C488.1,265.3,488.3,265.3,488.3,265.2L488.3,265.2z"/>
				</g>
			</g>
			<g>
				<g>
					<path class="st25" d="M493.2,263.2c-0.2-0.8-0.5-1.5-0.9-2.3c-0.3-0.6-0.5-1.3-1-1.8c-0.1-0.1-0.5-0.1-0.4,0.2
						c0.1,0.7,0.4,1.4,0.7,2.1c0.3,0.7,0.6,1.4,1,2C492.9,263.7,493.3,263.6,493.2,263.2L493.2,263.2z"/>
				</g>
			</g>
			<g>
				<g>
					<path class="st25" d="M496.4,262.8c-0.2-0.8-0.7-1.5-1.2-2.2c-0.5-0.8-0.9-1.6-1.5-2.4c-0.1-0.2-0.4-0.1-0.4,0.1
						c0,1.7,1.7,3.6,2.9,4.6C496.3,262.9,496.4,262.9,496.4,262.8L496.4,262.8z"/>
				</g>
			</g>
			<g>
				<g>
					<path class="st25" d="M499.9,260.2c-0.3-0.6-0.7-1.2-1-1.8c-0.3-0.6-0.6-1.1-1.1-1.5c-0.1-0.1-0.3,0-0.3,0.2
						c0.3,1.2,1.2,2.6,2.2,3.4C499.8,260.6,499.9,260.4,499.9,260.2L499.9,260.2z"/>
				</g>
			</g>
			<g>
				<g>
					<path class="st25" d="M502.1,258.7c-0.1-0.6-0.7-1.2-1-1.6c-0.4-0.5-0.7-1-1.3-1.3c-0.2-0.1-0.3,0.1-0.2,0.2
						c0.3,0.6,0.8,1.2,1.2,1.8c0.3,0.4,0.7,1,1.2,1.2C502,259,502.2,258.9,502.1,258.7L502.1,258.7z"/>
				</g>
			</g>
			<g>
				<g>
					<path class="st25" d="M504.1,257.1c-0.1-0.6-0.5-1.1-0.9-1.6c-0.5-0.6-1-1.3-1.7-1.7c-0.2-0.1-0.4,0.1-0.3,0.2
						c0.2,0.7,0.9,1.3,1.3,1.8c0.5,0.5,0.9,1,1.4,1.4C503.9,257.2,504.1,257.2,504.1,257.1L504.1,257.1z"/>
				</g>
			</g>
			<g>
				<g>
					<path class="st25" d="M506.4,254.5c-0.1-0.6-0.6-1.1-1-1.5s-1-0.9-1.5-1.1c-0.2-0.1-0.3,0.2-0.2,0.3c0.3,0.5,0.8,0.9,1.3,1.3
						C505.4,253.9,505.9,254.3,506.4,254.5C506.4,254.7,506.5,254.6,506.4,254.5L506.4,254.5z"/>
				</g>
			</g>
			<g>
				<g>
					<path class="st25" d="M507.9,251.6c-0.3-0.2-0.6-0.3-0.8-0.4c-0.4-0.2-0.7-0.4-1-0.7c-0.5-0.4-0.9-0.9-1.5-1.2
						c-0.2-0.1-0.4,0.1-0.3,0.3c0.3,0.7,0.9,1.3,1.5,1.7c0.5,0.4,1.4,0.9,2,0.6C508,251.9,508,251.7,507.9,251.6L507.9,251.6z"/>
				</g>
			</g>
			<g>
				<g>
					<path class="st25" d="M509.2,249.9c-1-1-2.4-1.7-3.7-2.2c-0.2,0-0.2,0.1-0.1,0.3c0.9,1,2.5,1.5,3.7,2.1
						C509.1,250.3,509.3,250.1,509.2,249.9L509.2,249.9z"/>
				</g>
			</g>
			<g>
				<g>
					<path class="st25" d="M509.7,247c-0.6-0.2-1.2-0.4-1.8-0.6c-0.5-0.2-1.1-0.5-1.7-0.5c-0.2,0-0.3,0.2-0.2,0.4
						c0.5,0.4,1.1,0.5,1.7,0.7s1.3,0.3,2,0.3C509.9,247.3,509.9,247.1,509.7,247L509.7,247z"/>
				</g>
			</g>
			<g>
				<g>
					<path class="st25" d="M507.1,244.2c0.5,0.7,2,0.8,2.8,0.8c0.2,0,0.3-0.3,0.1-0.3c-0.8-0.5-1.9-0.5-2.8-0.5
						C507.1,244.1,507.1,244.2,507.1,244.2L507.1,244.2z"/>
				</g>
			</g>
		</g>
		<path class="st24" d="M505.4,231.5l1.6,13.7c0,0-3.9,15-22.6,15s-22.6-15-22.6-15l1.6-13.7H505.4z"/>
		<path class="st27" d="M505.6,237.1c0,0-6.7,3.3-21.1,3.3s-21.3-3.3-21.3-3.3s11.4-2.4,21.3-2.4
			C494.3,234.6,505.6,237.1,505.6,237.1"/>
		<path class="st24" d="M503,59.8h-37.2c-50.7,0-51.5,94.4-51.5,94.4v25.4c0,32.2,26.1,58.3,58.3,58.3h23.6
			c32.2,0,58.3-26.1,58.3-58.3v-25.3C554.5,154.2,553.8,59.8,503,59.8"/>
		<path class="st28" d="M456.2,172.8c0,4-3.2,7.3-7.3,7.3c-4,0-7.3-3.2-7.3-7.3v-3.1c0-4,3.2-7.3,7.3-7.3c4,0,7.3,3.2,7.3,7.3V172.8
			z"/>
		<path class="st28" d="M529.1,172.8c0,4-3.3,7.3-7.3,7.3s-7.3-3.2-7.3-7.3v-3.1c0-4,3.2-7.3,7.3-7.3c4,0,7.3,3.2,7.3,7.3V172.8z"/>
		<g>
			<path class="st29" d="M570.5,130.9c-1.9,0.9-3.6,2.1-5.8,1.8c-1.9-0.3-3.4-1.7-4.7-2.9c-1.1-1.1-2-2.4-2.9-3.7
				c-0.7-1.9-1.4-3.9-2.1-5.8c0.6-2.7,0.5-5.6,0.1-8.4c0.2,0.5,0.4,1,0.7,1.4c0.2,0.5,1,0.1,0.8-0.3c-1-3.4-1.9-6.7-2.8-10
				c-0.6-3.4-1.3-6.7-2.3-9.9c2.1,0.2,4.2-0.7,5.9-3c0.3-0.5-0.3-1-0.7-0.7c-2.1,1.3-4.2,1.6-6.1,1.2c-0.6-1.5-1.3-3-2.1-4.6
				c-1.3-3.5-2.8-6.8-4.6-10.2c-1.2-3-2.7-5.9-4.7-8.8c1.3,1.1,2.6,2.2,3.9,3.2c0.7,0.5,1.5-0.3,0.9-0.9c-2.8-3.5-6.7-7.5-11.1-9.9
				c-6-6.2-13.2-10.9-21-14.1c2.3,0.2,4.7,0.4,7,0.6c0.8,0.1,0.9-1.2,0.2-1.4c-5.4-1.7-11.1-2.5-16.8-2.1c-3-0.7-6.1-1.2-9.3-1.4
				c-2.6-0.2-5.4-0.3-8.3-0.2c2.1-0.7,4.2-1.3,6.3-1.9c0.5-0.1,0.3-0.8-0.2-0.7c-3.4,0.5-6.7,1.5-10,2.8c-3.8,0.3-7.7,0.8-11.6,1.6
				c2.7-2.1,5.2-4.3,7.5-6.8c0.6-0.6-0.2-1.6-0.9-1.2c-5,3.2-9.7,6.7-14.7,9.9c-12.3,3.6-23.8,9.7-30.8,18.9
				c1.1-3.6,3.1-6.8,6.1-9.8c3.4-3.5,7.3-6.3,9.8-10.7c0.3-0.6-0.4-1.5-1-1c-7.7,5.8-18.6,14.4-17.2,25c-0.4,0.6-0.7,1.3-1,1.9
				c0.5-2.5,0.9-5,1-7.6c0.1-1.1-1.4-1.4-2-0.5c-2.9,4.5-4,10.2-2.8,15.4c-1.8-1.6-3.9-2.7-6.1-3.8c-0.3-0.2-0.8,0.3-0.4,0.6
				c0.9,0.7,1.9,1.4,2.8,2c-7-3-15-0.2-18.6,8c-0.3,0.7,0.6,1.7,1.2,0.9c4.5-5.4,11-8,17.4-6.5c-0.4,0-0.8,0.1-1.2,0.2
				c-5.2,1.1-8.6,4.3-10.5,8.4c-7.8,8.1-7.2,24.3-4.8,34.2c0.1,0.6,1.1,0.6,1.2,0c1.2-5.4,0.4-11.2,0.5-16.6
				c0.1-2.2,0.3-4.3,0.8-6.4c-0.3,8,1,16.3,1.2,24.2c0.2,8.6,0.6,19.6-5,26.7c-1.2,1.5,0.3,4.1,2.2,2.9c0.3-0.2,0.7-0.5,1-0.7
				c0,0.3,0.1,0.7,0.1,1c0,0.1,0.1,0.3,0.1,0.4c-1.1,1.9-4.4,7.5-0.1,7.6c3.4,0.1,5.8-5.3,6.9-7.9c0.2-0.4,0.3-0.7,0.4-1.1
				c0.2,0.4,0.5,0.7,0.8,1c0.8,0.6,1.6,0.6,2.4,0c2-1.7,1.3-5.2,0.6-7.3c-0.2-0.5-0.4-1-0.6-1.5c1.7-2.3,3.7-4.5,5.6-6.6
				c4.8-5.3,9.9-10.4,13.9-16.3c3-4.3,4.8-9.2,4.4-14.4c4.3,5.4,11.4,8.8,18.2,9.3c1.1,0.1,1.4-1.5,0.5-2c-3.6-2.1-7.7-3.2-11.4-5
				c-1.9-1-3.7-2.2-5.3-3.6c11.4,4.4,25.4,5.5,35.2,6.1c13.2,0.8,26.2,0.8,39.1,4.7c7.8,2.3,15.1,6,21.8,10.7
				c6.4,4.6,10.8,10.6,15.2,16.8c-0.2,3.2,0.7,7.1,1.4,9.7c1,3.9,4.1,9.2,8.7,7.8c0.9-0.3,1.3-1.1,1.2-2c-0.4-1.8-1.3-2.8-2.5-4.1
				c-1.4-1.5-1.9-3.8-2.3-5.7c-0.1-0.6-0.2-1.2-0.4-1.9c0.6-0.5,1-1.4,0.7-2.5c-0.2-0.6-0.4-1.2-0.6-1.9c0.4,0,0.8,0,1.2-0.2
				c1.8,2.4,4.2,4.3,6.8,4.9c0.8,0.2,1.3-0.7,0.8-1.3c-1.6-1.8-3.7-3.2-5.3-5.1c-0.5-0.6-0.9-1.2-1.3-1.8c-0.4-1.6-0.9-3.2-1.4-4.7
				c0.3,0.2,0.5,0.5,0.8,0.7c3.6,2.6,8.8,2.9,11.4-1.4C572.1,131.3,571.2,130.6,570.5,130.9z M471.9,75.9L471.9,75.9
				c0.1,0,0.1,0.1,0.1,0.1L471.9,75.9z M453.8,75.2c-0.2-1-0.3-2.1-0.4-3.2C453.5,73.1,453.7,74.1,453.8,75.2z M495.3,87.8
				c0.7,1.6,1.4,3.2,1.9,4.8C496.4,91.1,495.8,89.5,495.3,87.8z M419.1,127.3c0.4-0.1,0.7-0.3,1-0.5c-0.3,0.4-0.7,0.7-1,1.1
				C419.1,127.6,419.1,127.5,419.1,127.3z M421,125.7L421,125.7c0,0.1-0.1,0.2-0.1,0.2C420.9,125.8,420.9,125.8,421,125.7z
				 M489.6,103.4c0,0,0.1,0,0.1,0.1C489.7,103.4,489.6,103.4,489.6,103.4L489.6,103.4z M495.8,103.3c0.2,0.2,0.4,0.4,0.6,0.5
				c-0.3,0-0.7-0.1-1-0.1C495.5,103.6,495.7,103.5,495.8,103.3z"/>
			<g>
				<g>
					<g>
						<path class="st30" d="M440.5,92.4c13.8,6.8,30.3,7.5,45.4,8.5c16.6,1.1,32.7,2.9,48.2,9.3c0.6,0.2,0.9-0.7,0.4-1
							c-12.9-8.2-28.9-9.6-43.7-10.7c-17-1.3-33.2-2.6-49.6-7.6C440.2,90.6,439.6,92,440.5,92.4L440.5,92.4z"/>
					</g>
				</g>
				<g>
					<g>
						<path class="st30" d="M431.3,72.4c4.3-11.8,18.2-15.5,29.1-18.8c0.9-0.3,0.5-1.5-0.4-1.4c-10,1.5-30.1,6.6-29.5,20
							C430.5,72.8,431.1,72.9,431.3,72.4L431.3,72.4z"/>
					</g>
				</g>
				<g>
					<g>
						<path class="st30" d="M418.2,85.2c-6.7,0-7.8,9.1-8.4,14.1c-1,8.3-0.6,16.7,0.4,25c0.1,0.9,1.3,0.9,1.4,0
							c0.7-6.3,0.2-12.7,0.4-19.1c0.2-5.4,0.1-16.6,6.3-19.1C418.8,85.9,418.8,85.2,418.2,85.2L418.2,85.2z"/>
					</g>
				</g>
				<g>
					<g>
						<path class="st30" d="M423.7,89.9c-11.6-4.4-12.9,25.9-12.9,32.4c0,0.9,1.4,1.2,1.6,0.2c1.3-5.3,1.7-10.8,2.8-16.1
							c0.9-4.1,2.6-15.3,8.4-15.7C424,90.7,424.1,90.1,423.7,89.9L423.7,89.9z"/>
					</g>
				</g>
				<g>
					<g>
						<path class="st30" d="M430,98.4c2,12.6-3.2,21.7-10.2,31.7c-0.4,0.5,0.4,1.1,0.9,0.7c8.3-8.4,15.1-20.8,9.8-32.5
							C430.3,97.9,429.9,98.1,430,98.4L430,98.4z"/>
					</g>
				</g>
				<g>
					<g>
						<path class="st30" d="M429.7,94.6c-6.1-2.1-10,8.5-11.5,12.5c-2.7,7.4-4.6,15.3-5.5,23.2c-0.1,0.8,1.3,1.2,1.6,0.4
							c4.8-11.3,4.4-27.7,15.5-35.4C430.1,95.2,430,94.7,429.7,94.6L429.7,94.6z"/>
					</g>
				</g>
				<g>
					<g>
						<path class="st30" d="M438.5,80.7c8.6,9.5,22.2,13.3,34.6,15.1c13.8,1.9,27.9,2,41.8,2.7c0.2,0,0.3-0.4,0.1-0.4
							c-26.1-4-53.6-0.9-75.7-18.2C438.7,79.5,438,80.2,438.5,80.7L438.5,80.7z"/>
					</g>
				</g>
				<g>
					<g>
						<path class="st30" d="M446.7,75.9c7.3,8.9,20,10.2,30.6,12.3c16.7,3.3,33.3,7.8,50.2,10.6c0.6,0.1,0.8-0.7,0.2-0.9
							c-15.1-4.5-30.7-7.5-46.1-10.6c-11.5-2.3-25.8-3-34.4-11.9C446.8,75.1,446.4,75.6,446.7,75.9L446.7,75.9z"/>
					</g>
				</g>
				<g>
					<g>
						<path class="st30" d="M436.3,76.6c9.7-1.3,19-4.4,28.8-5.2c10.1-0.9,19.9,0.3,29.7,2.8c0.8,0.2,1-0.9,0.3-1.2
							c-18.7-7.5-40.9-5.6-59,3C435.8,76.2,436,76.7,436.3,76.6L436.3,76.6z"/>
					</g>
				</g>
				<g>
					<g>
						<path class="st30" d="M454.2,76.6c12.4,3.2,25,5,37.6,7.2c12.7,2.2,25.2,5.1,37.6,8.5c0.9,0.2,1.2-1,0.4-1.4
							c-23.5-9.8-50.4-12.3-75.5-14.9C453.9,76,453.8,76.5,454.2,76.6L454.2,76.6z"/>
					</g>
				</g>
				<g>
					<g>
						<path class="st30" d="M437.7,72.5c22.7-14.5,52-8.5,76.4-2.3c0.7,0.2,1-0.9,0.3-1.1c-22.8-7.9-57.2-15.2-77,3.1
							C437.3,72.4,437.5,72.6,437.7,72.5L437.7,72.5z"/>
					</g>
				</g>
				<g>
					<g>
						<path class="st30" d="M435.7,70.5c2-1.1,3.3-3.1,5.1-4.6c2.4-1.9,5-3.6,7.7-4.9c5.7-2.9,12.1-4.6,18.4-5.8
							c11.8-2.2,24.7-2.5,36.5-0.2c1,0.2,1.3-1.1,0.4-1.5c-12.1-4.8-26.5-3.7-39-1.2c-6.7,1.3-13.3,3.5-19.2,6.9
							c-3.8,2.2-9.8,6.3-10.2,11.1C435.3,70.5,435.5,70.6,435.7,70.5L435.7,70.5z"/>
					</g>
				</g>
				<g>
					<g>
						<path class="st30" d="M507.1,77.8c6.8,4.8,14.9,7.1,22.2,10.9c8.1,4.2,14,9.7,19.8,16.8c0.4,0.5,1.4,0,1.2-0.7
							c-6.9-16.4-26.6-23.9-42.4-28.7C506.8,75.8,506.3,77.2,507.1,77.8L507.1,77.8z"/>
					</g>
				</g>
				<g>
					<g>
						<path class="st30" d="M498.8,57.3c19.4,2.7,32.2,15.4,42.3,31.3c0.4,0.6,1.2,0.1,0.9-0.6c-7.5-17.3-24-30.8-43.1-31.4
							C498.5,56.6,498.4,57.3,498.8,57.3L498.8,57.3z"/>
					</g>
				</g>
				<g>
					<g>
						<path class="st30" d="M502.1,47.5c13.4,3.3,23.3,12.8,33.1,21.8c0.5,0.4,1-0.2,0.7-0.7c-8-10-20-21.8-33.7-22.2
							C501.7,46.5,501.5,47.4,502.1,47.5L502.1,47.5z"/>
					</g>
				</g>
				<g>
					<g>
						<path class="st30" d="M529.4,97.3c11.4,7.1,15.9,20.7,23,31.3c0.4,0.6,1.2,0.1,0.9-0.6c-5.4-11.9-11.5-25.1-23.6-31.3
							C529.4,96.6,529.1,97.1,529.4,97.3L529.4,97.3z"/>
					</g>
				</g>
				<g>
					<g>
						<path class="st30" d="M447.4,97.2c10.6,11.7,29.6,10.9,44,12.5c20.3,2.3,40.2,6,56.6,18.9c0.4,0.3,0.9-0.2,0.6-0.6
							c-13.7-13.7-32.7-16.6-51.1-19.5c-15.8-2.5-37-0.2-49.7-11.7C447.5,96.6,447.2,96.9,447.4,97.2L447.4,97.2z"/>
					</g>
				</g>
				<g>
					<g>
						<path class="st30" d="M434.3,93.7c0.8-6.8,5.8-11.6,10.4-16.2c0.6-0.6-0.2-1.5-0.9-1.1c-6.1,3.6-11.3,9.9-11,17.3
							C432.9,94.6,434.2,94.6,434.3,93.7L434.3,93.7z"/>
					</g>
				</g>
			</g>
		</g>
		<g>
			<path class="st14" d="M523.1,202.5c0.7,0,1.5-0.1,2.2-0.1c20.7-1.7,25.8-10.9,28.1-22.7c2.6-12.9,2.8-17.4,6.1-18.5
				c2.4-0.9,3-3.7,3-7.1c-0.1-3.3-0.2-3.7-4.2-5.1c-3.2-1.1-20.8-2.8-34.1-2l-0.1,3.5c10.4-0.5,20.5,0.7,23.4,2.6
				c6.6,4.3,4.6,25-1,35.3c-3.9,7.1-14.2,10.7-23.4,10.8V202.5z M484.7,153.6c-4.6,0.1-23.2-5.3-36.5-6.5c-0.9-0.1-1.9-0.2-2.9-0.2
				l-0.1,3.5c10.8,0.5,21.9,3,25.8,8.8c6.3,9.5-5.1,32.5-15.3,37.7c-3.1,1.6-7.2,2.3-11.5,2.4l-0.1,3.3
				c17.9,0.1,24.5-12.8,26.7-17.1c4.2-8.1,3.4-19.2,13.6-19.2s8.8,11,12.5,19c2,4.4,7.7,17.8,26.3,17.3l0.1-3.3
				c-4.6,0.1-8.9-0.7-12.1-2.4c-9.9-5.1-19.7-28.2-12.8-37.7c4.1-5.7,15.2-8.2,25.9-8.7l0.1-3.5c-0.8,0.1-1.6,0.1-2.4,0.2
				C509.9,148.2,495.4,153.4,484.7,153.6z M445.3,146.9c-13.1-0.7-30.5,0.9-33.7,2c-4.1,1.4-4.3,1.8-4.6,5.1
				c-0.3,3.3,0.1,6.2,2.5,7.1c3.2,1.2,3.1,5.7,4.9,18.5c1.6,11.7,6.1,21,26.6,22.7c1.1,0.1,2.1,0.1,3.1,0.1l0.1-3.3
				c-9.5,0.1-20-3.6-23.5-10.9c-4.9-10.3-5.6-31,1.4-35.3c3-1.9,12.9-3.1,23.1-2.6L445.3,146.9z"/>
			<path class="st31" d="M422.1,153c6.1-3.8,41.5-5.1,48.9,6.1c6.3,9.5-5.1,32.5-15.3,37.7c-9.9,5-29.8,2.2-35-8.5
				C415.8,178,415.1,157.3,422.1,153L422.1,153z M547.6,153.1c-5.9-3.8-41.1-5.2-49.3,6.1c-6.9,9.5,2.9,32.5,12.8,37.7
				c9.6,5,29.7,2.2,35.5-8.5C552.3,178.1,554.2,157.4,547.6,153.1z"/>
			<g class="st32">
				<path class="st33" d="M425.5,151.7c10.9-2.7,39-2.5,45.5,7.4c4.4,6.6,0.1,20-6.4,29.1L425.5,151.7z"/>
				<path class="st33" d="M504.1,154.7l39.9,37.2c1.1-1.1,2-2.2,2.7-3.5c5.6-10.3,7.6-31,1-35.3C542.7,149.8,517,148.4,504.1,154.7z
					"/>
			</g>
		</g>
		<g>
			<text transform="matrix(0.9973 0 0 1 462.8151 311.6824)" class="st7 st34 st35">C</text>
			<text transform="matrix(0.9973 0 0 1 487.2565 296.2498)" class="st7 st34 st36">+</text>
			<text transform="matrix(0.9973 0 0 1 487.2565 315.99)" class="st7 st34 st36">+</text>
		</g>
		<path class="st7" d="M458.4,214.2c0,0,22.6,7,48.6,0C533.1,207.2,458.4,214.2,458.4,214.2z"/>
		<ellipse class="st7" cx="451.6" cy="172.2" rx="2.7" ry="4.1"/>
		<ellipse class="st7" cx="518.9" cy="172.2" rx="2.7" ry="4.1"/>
	</g>
	<g>
		<path class="st7" d="M420.1,449c-0.5-0.4-1.1-0.6-1.7-0.8c-0.7-0.1-1.4-0.2-2.1-0.2c-0.3,0-0.6,0-0.9,0s-0.6,0-0.9,0
			s-0.6,0-0.9,0.1c-0.3,0-0.5,0.1-0.7,0.1v14.5c0.2,0,0.3,0,0.5,0c0.2,0,0.4,0,0.5,0c0.4,0,0.7,0,1-0.1v-5.2c0.2,0,0.4,0,0.6,0
			s0.4,0,0.7,0c0.7,0,1.3-0.1,2-0.2c0.7-0.2,1.2-0.4,1.8-0.8c0.5-0.4,0.9-0.9,1.2-1.5c0.3-0.6,0.5-1.4,0.5-2.3s-0.1-1.6-0.4-2.2
			C421,449.9,420.6,449.4,420.1,449z M419.3,454.2c-0.2,0.4-0.4,0.7-0.8,0.9c-0.3,0.2-0.7,0.4-1.1,0.5c-0.4,0.1-0.8,0.1-1.2,0.1
			c-0.3,0-0.5,0-0.7,0c-0.2,0-0.3,0-0.6-0.1v-5.8c0.4,0,0.8-0.1,1.3-0.1s0.9,0,1.3,0.1c0.4,0.1,0.8,0.3,1.1,0.5
			c0.3,0.2,0.5,0.5,0.7,0.9c0.2,0.4,0.2,0.8,0.2,1.4C419.6,453.3,419.5,453.9,419.3,454.2z"/>
		<path class="st7" d="M430.1,456.5c0.3-0.2,0.6-0.4,1-0.6c0.3-0.2,0.6-0.5,0.9-0.9c0.3-0.3,0.5-0.7,0.7-1.1
			c0.2-0.4,0.3-0.9,0.3-1.4c0-0.9-0.2-1.6-0.5-2.2c-0.3-0.6-0.8-1-1.3-1.3s-1.1-0.6-1.8-0.7c-0.7-0.1-1.3-0.2-2-0.2
			c-0.3,0-0.6,0-0.8,0c-0.3,0-0.5,0-0.7,0c-0.2,0-0.5,0-0.7,0.1c-0.2,0-0.5,0.1-0.8,0.1v14.4c0.2,0,0.3,0,0.5,0c0.2,0,0.4,0,0.5,0
			c0.2,0,0.3,0,0.5,0c0.2,0,0.3,0,0.5,0v-12.8c0.2,0,0.5,0,0.7-0.1c0.2,0,0.4,0,0.6,0c1,0,1.7,0.2,2.3,0.7s0.8,1.2,0.8,2.1
			c0,0.5-0.1,1-0.3,1.3c-0.2,0.4-0.5,0.7-0.9,0.9c-0.3,0.3-0.7,0.5-1.1,0.6c-0.4,0.1-0.8,0.3-1.1,0.4h-0.2v0.1l4.6,6.7
			c0.4,0,0.7,0.1,1.1,0.1c0.5,0,0.9,0,1.2-0.1l-4.2-6.1L430.1,456.5z"/>
		<path class="st7" d="M446,450.2c-0.5-0.7-1.1-1.2-1.9-1.5c-0.8-0.4-1.7-0.6-2.7-0.6s-1.9,0.2-2.7,0.6c-0.8,0.4-1.4,0.9-1.9,1.5
			c-0.5,0.7-0.9,1.4-1.1,2.3s-0.4,1.9-0.4,3s0.1,2.1,0.4,3c0.2,0.9,0.6,1.7,1.1,2.4s1.1,1.2,1.9,1.5c0.8,0.4,1.7,0.5,2.7,0.5
			s1.9-0.2,2.7-0.5c0.8-0.4,1.4-0.9,1.9-1.5c0.5-0.7,0.9-1.4,1.1-2.4c0.2-0.9,0.4-1.9,0.4-3s-0.1-2.1-0.4-3
			C446.9,451.6,446.5,450.8,446,450.2z M445.1,457.9c-0.2,0.7-0.4,1.3-0.7,1.8c-0.3,0.5-0.7,0.9-1.2,1.1c-0.5,0.3-1.1,0.4-1.7,0.4
			c-0.7,0-1.2-0.1-1.7-0.4s-0.9-0.6-1.2-1.1c-0.3-0.5-0.6-1.1-0.7-1.8c-0.2-0.7-0.2-1.5-0.2-2.4s0.1-1.7,0.2-2.4
			c0.2-0.7,0.4-1.3,0.7-1.8c0.3-0.5,0.7-0.9,1.2-1.1c0.5-0.3,1.1-0.4,1.7-0.4c0.7,0,1.2,0.1,1.7,0.4s0.9,0.6,1.2,1.1
			c0.3,0.5,0.6,1.1,0.7,1.8c0.2,0.7,0.2,1.5,0.2,2.4S445.2,457.2,445.1,457.9z"/>
		<path class="st7" d="M459.8,455.2c-0.2,0-0.3,0-0.5,0s-0.3,0-0.5,0.1v5.6c-0.2,0.1-0.5,0.1-0.8,0.2c-0.3,0-0.7,0.1-1.1,0.1
			c-0.7,0-1.4-0.1-1.9-0.3c-0.6-0.2-1.1-0.6-1.5-1c-0.4-0.5-0.8-1-1-1.7s-0.4-1.5-0.4-2.4s0.1-1.7,0.3-2.5c0.2-0.7,0.5-1.3,0.9-1.8
			s0.9-0.9,1.5-1.1c0.6-0.3,1.2-0.4,1.9-0.4c0.7,0,1.2,0,1.6,0.1s0.8,0.2,1.2,0.3c0.1-0.3,0.2-0.6,0.3-0.8c0.1-0.3,0.1-0.5,0.2-0.8
			c-0.5-0.2-1-0.3-1.5-0.4c-0.6-0.1-1.2-0.2-2-0.2c-1,0-1.9,0.2-2.7,0.5c-0.8,0.4-1.5,0.9-2.1,1.5c-0.6,0.7-1,1.4-1.4,2.4
			c-0.3,0.9-0.5,2-0.5,3.1s0.2,2.2,0.5,3.1s0.8,1.7,1.4,2.3s1.3,1.1,2.2,1.5c0.9,0.3,1.8,0.5,2.9,0.5c0.3,0,0.7,0,1,0
			c0.4,0,0.7-0.1,1.1-0.1s0.7-0.1,1-0.2s0.6-0.2,0.9-0.3v-7c-0.1,0-0.3,0-0.5-0.1C460.1,455.2,460,455.2,459.8,455.2z"/>
		<path class="st7" d="M469.9,456.5c0.3-0.2,0.6-0.4,1-0.6c0.3-0.2,0.6-0.5,0.9-0.9c0.3-0.3,0.5-0.7,0.7-1.1s0.3-0.9,0.3-1.4
			c0-0.9-0.2-1.6-0.5-2.2s-0.8-1-1.3-1.3s-1.1-0.6-1.8-0.7c-0.7-0.1-1.3-0.2-2-0.2c-0.3,0-0.6,0-0.8,0c-0.3,0-0.5,0-0.7,0
			s-0.5,0-0.7,0.1c-0.2,0-0.5,0.1-0.8,0.1v14.4c0.2,0,0.3,0,0.5,0s0.4,0,0.5,0c0.2,0,0.3,0,0.5,0s0.3,0,0.5,0v-12.8
			c0.2,0,0.5,0,0.7-0.1c0.2,0,0.4,0,0.6,0c1,0,1.7,0.2,2.3,0.7c0.6,0.5,0.8,1.2,0.8,2.1c0,0.5-0.1,1-0.3,1.3
			c-0.2,0.4-0.5,0.7-0.9,0.9c-0.3,0.3-0.7,0.5-1.1,0.6c-0.4,0.2-0.8,0.3-1.1,0.4H467v0.1l4.6,6.7c0.4,0,0.7,0.1,1.1,0.1
			c0.5,0,0.9,0,1.2-0.1l-4.2-6.1L469.9,456.5z"/>
		<path class="st7" d="M481,448.2c-0.2,0-0.4,0-0.6,0s-0.4,0-0.6,0s-0.4,0-0.6,0.1l-4.7,14.4c0.1,0,0.3,0,0.5,0.1c0.2,0,0.4,0,0.5,0
			c0.2,0,0.3,0,0.5,0s0.3,0,0.5-0.1l1-3.3h5.5l1,3.3c0.2,0,0.3,0,0.5,0.1c0.2,0,0.4,0,0.5,0c0.2,0,0.4,0,0.6,0s0.4,0,0.5-0.1
			l-4.7-14.4C481.4,448.3,481.2,448.2,481,448.2z M478.2,457.6l2.2-7.3l2.2,7.3H478.2z"/>
		<path class="st7" d="M500.2,448.2c-0.2,0-0.4,0-0.6,0s-0.4,0-0.6,0s-0.4,0-0.5,0.1l-3.7,9l-3.7-9c-0.1,0-0.3,0-0.5-0.1
			c-0.2,0-0.4,0-0.6,0s-0.4,0-0.6,0s-0.4,0-0.5,0.1l-0.6,14.4c0.1,0,0.3,0,0.5,0.1c0.2,0,0.3,0,0.5,0c0.1,0,0.3,0,0.5,0
			s0.3,0,0.5-0.1l0.5-11.2l3.4,8.3c0.3,0,0.5,0.1,0.8,0.1s0.6,0,0.8-0.1l3.5-8.2l0.5,11.2c0.1,0,0.3,0,0.5,0.1c0.2,0,0.3,0,0.5,0
			s0.3,0,0.5,0s0.3,0,0.5-0.1l-0.7-14.4C500.6,448.3,500.4,448.2,500.2,448.2z"/>
		<path class="st7" d="M516.5,448.2c-0.2,0-0.4,0-0.6,0s-0.4,0-0.6,0s-0.4,0-0.5,0.1l-3.7,9l-3.7-9c-0.1,0-0.3,0-0.5-0.1
			c-0.2,0-0.4,0-0.6,0s-0.4,0-0.6,0s-0.4,0-0.5,0.1l-0.6,14.4c0.1,0,0.3,0,0.5,0.1c0.2,0,0.3,0,0.5,0c0.1,0,0.3,0,0.5,0
			s0.3,0,0.5-0.1l0.5-11.2l3.4,8.3c0.3,0,0.5,0.1,0.8,0.1s0.6,0,0.8-0.1l3.5-8.2l0.5,11.2c0.1,0,0.3,0,0.5,0.1c0.2,0,0.3,0,0.5,0
			s0.3,0,0.5,0s0.3,0,0.5-0.1l-0.7-14.4C516.9,448.3,516.7,448.2,516.5,448.2z"/>
		<path class="st7" d="M522,448.2c-0.2,0-0.3,0-0.5,0s-0.3,0-0.5,0.1v14.4c0.1,0,0.3,0,0.5,0.1c0.2,0,0.4,0,0.5,0c0.2,0,0.4,0,0.5,0
			c0.2,0,0.3,0,0.5-0.1v-14.4c-0.2,0-0.3,0-0.5-0.1C522.3,448.2,522.2,448.2,522,448.2z"/>
		<path class="st7" d="M535.7,448.2c-0.2,0-0.3,0-0.5,0s-0.3,0-0.5,0.1v10.8l-6.3-10.8c-0.1,0-0.3,0-0.5-0.1c-0.2,0-0.3,0-0.5,0
			c-0.1,0-0.3,0-0.5,0s-0.3,0-0.5,0.1v14.4c0.1,0,0.3,0,0.5,0.1c0.2,0,0.3,0,0.5,0s0.3,0,0.5,0s0.3,0,0.5-0.1V452l6.3,10.7
			c0.1,0,0.3,0,0.5,0.1c0.2,0,0.3,0,0.5,0c0.1,0,0.3,0,0.5,0s0.3,0,0.5-0.1v-14.4c-0.1,0-0.3,0-0.5-0.1
			C536,448.2,535.8,448.2,535.7,448.2z"/>
		<path class="st7" d="M550,455.2c-0.2,0-0.3,0-0.5,0s-0.3,0-0.5,0s-0.3,0-0.5,0.1v5.6c-0.2,0.1-0.5,0.1-0.8,0.2
			c-0.3,0-0.7,0.1-1.1,0.1c-0.7,0-1.3-0.1-1.9-0.3c-0.6-0.2-1.1-0.6-1.5-1c-0.4-0.5-0.8-1-1-1.7s-0.3-1.5-0.3-2.4s0.1-1.7,0.3-2.5
			c0.2-0.7,0.5-1.3,0.9-1.8c0.4-0.5,0.9-0.9,1.5-1.1c0.6-0.3,1.2-0.4,1.9-0.4s1.2,0,1.6,0.1c0.4,0.1,0.8,0.2,1.2,0.3
			c0.1-0.3,0.2-0.6,0.3-0.8c0.1-0.3,0.1-0.5,0.2-0.8c-0.5-0.2-1-0.3-1.5-0.4c-0.6-0.1-1.2-0.2-2-0.2c-1,0-1.9,0.2-2.7,0.5
			c-0.8,0.4-1.5,0.9-2.1,1.5c-0.6,0.7-1.1,1.4-1.4,2.4c-0.3,0.9-0.5,2-0.5,3.1s0.2,2.2,0.5,3.1s0.8,1.7,1.4,2.3
			c0.6,0.6,1.3,1.1,2.2,1.5c0.9,0.3,1.8,0.5,2.9,0.5c0.3,0,0.7,0,1,0c0.4,0,0.7-0.1,1.1-0.1c0.4,0,0.7-0.1,1-0.2s0.6-0.2,0.9-0.3v-7
			C550.3,455.2,550.2,455.2,550,455.2z"/>
	</g>
</g>
<path class="st37" d="M643.4,487.9c0,2.6-1.7,4.8-3.9,4.8H451.3c-2.2,0-3.9-2.1-3.9-4.8l0,0c0-2.6,1.7-4.8,3.9-4.8h188.2
	C641.7,483.1,643.4,485.2,643.4,487.9L643.4,487.9z"/>
<g>
	<g>
		<path class="st38" d="M449.8,486.9h17.4h38.2h8.4h9h8.4h29.3h8.8h8.6h8.8h37.7h17.4c1.6,0,2-1.4,1-3.1l-1.9-3.2l-0.2-0.3
			l-20.4-34.9c-0.5-0.8-2-1.4-3.4-1.4h-42.2h-19.4h-23h-19.1h-42.5c-1.4,0-2.8,0.6-3.2,1.4l-17.3,34.9l-0.1,0.3l-1.6,3.2
			C447.6,485.5,448.2,486.9,449.8,486.9z"/>
		<g>
			<g id="keys_9_">
				<g>
					<path class="st7" d="M609.3,471.2c-0.2-0.4,0.3-0.8,1.2-0.8h7.9c0.8,0,1.7,0.3,1.9,0.8l2,4.1c0.2,0.4-0.3,0.8-1.2,0.8H613
						c-0.8,0-1.7-0.3-1.9-0.8L609.3,471.2z"/>
					<path class="st39" d="M610.4,470.4h7.9c0.9,0,1.8,0.4,2,0.8l2,4.1c0.2,0.5-0.3,0.8-1.2,0.8H613c-0.9,0-1.8-0.4-2-0.8l-1.8-4.1
						C608.9,470.8,609.5,470.4,610.4,470.4z M621,476c0.8,0,1.3-0.3,1.1-0.7l-2-4.1c-0.2-0.4-1-0.7-1.7-0.7h-7.9
						c-0.8,0-1.2,0.3-1.1,0.7l1.8,4.1c0.2,0.4,0.9,0.7,1.7,0.7H621z"/>
				</g>
				<g>
					<path class="st7" d="M621.4,471.2c-0.2-0.4,0.3-0.8,1.1-0.8h7.9c0.8,0,1.7,0.3,1.9,0.8l2.3,4.1c0.2,0.4-0.2,0.8-1.1,0.8h-8.1
						c-0.9,0-1.7-0.3-1.9-0.8L621.4,471.2z"/>
					<path class="st39" d="M622.5,470.4h7.8c0.9,0,1.8,0.4,2.1,0.8l2.3,4.1c0.3,0.5-0.3,0.8-1.2,0.8h-8.1c-0.9,0-1.9-0.4-2.1-0.8
						l-2.1-4.1C621,470.8,621.6,470.4,622.5,470.4z M633.5,476c0.8,0,1.2-0.3,1-0.7l-2.3-4.1c-0.2-0.4-1-0.7-1.8-0.7h-7.9
						c-0.8,0-1.2,0.3-1,0.7l2.1,4.1c0.2,0.4,1,0.7,1.8,0.7H633.5z"/>
				</g>
				<g>
					<path class="st7" d="M585,471.2c-0.1-0.4,0.4-0.8,1.3-0.8h7.9c0.8,0,1.6,0.3,1.8,0.8l1.4,4.1c0.2,0.4-0.4,0.8-1.3,0.8H588
						c-0.8,0-1.6-0.3-1.8-0.8L585,471.2z"/>
					<path class="st39" d="M586.3,470.4h7.8c0.9,0,1.7,0.4,1.9,0.8l1.5,4.1c0.2,0.5-0.5,0.8-1.4,0.8H588c-0.9,0-1.8-0.4-1.9-0.8
						l-1.2-4.1C584.8,470.8,585.4,470.4,586.3,470.4z M596.1,476c0.8,0,1.3-0.3,1.2-0.7l-1.4-4.1c-0.1-0.4-0.9-0.7-1.6-0.7h-8
						c-0.8,0-1.3,0.3-1.2,0.7l1.2,4.1c0.1,0.4,0.8,0.7,1.6,0.7H596.1z"/>
				</g>
				<g>
					<path class="st7" d="M597.1,471.2c-0.2-0.4,0.4-0.8,1.2-0.8h7.9c0.8,0,1.6,0.3,1.8,0.8l1.7,4.1c0.2,0.4-0.4,0.8-1.2,0.8h-8.1
						c-0.8,0-1.7-0.3-1.8-0.8L597.1,471.2z"/>
					<path class="st39" d="M598.3,470.4h7.8c0.9,0,1.8,0.4,2,0.8l1.7,4.1c0.2,0.5-0.4,0.8-1.3,0.8h-8.1c-0.9,0-1.8-0.4-2-0.8
						l-1.5-4.1C596.9,470.8,597.4,470.4,598.3,470.4z M608.5,476c0.8,0,1.3-0.3,1.1-0.7l-1.7-4.1c-0.2-0.4-0.9-0.7-1.7-0.7h-7.9
						c-0.8,0-1.2,0.3-1.1,0.7l1.5,4.1c0.1,0.4,0.9,0.7,1.7,0.7H608.5z"/>
				</g>
				<g>
					<path class="st7" d="M560.7,471.2c-0.1-0.4,0.6-0.8,1.4-0.8h7.9c0.8,0,1.6,0.3,1.6,0.8l0.8,4.1c0.1,0.4-0.5,0.8-1.4,0.8h-8.1
						c-0.8,0-1.6-0.3-1.6-0.8L560.7,471.2z"/>
					<path class="st39" d="M562.1,470.4h7.8c0.9,0,1.7,0.4,1.8,0.8l0.9,4.1c0.1,0.5-0.6,0.8-1.5,0.8H563c-0.9,0-1.7-0.4-1.8-0.8
						l-0.6-4.1C560.5,470.8,561.2,470.4,562.1,470.4z M571,476c0.8,0,1.3-0.3,1.3-0.7l-0.8-4.1c-0.1-0.4-0.8-0.7-1.5-0.7h-7.9
						c-0.8,0-1.3,0.3-1.3,0.7l0.6,4.1c0.1,0.4,0.7,0.7,1.5,0.7H571z"/>
				</g>
				<g>
					<path class="st7" d="M572.8,471.2c-0.1-0.4,0.5-0.8,1.3-0.8h7.9c0.8,0,1.6,0.3,1.7,0.8l1.1,4.1c0.1,0.4-0.5,0.8-1.3,0.8h-8.1
						c-0.8,0-1.6-0.3-1.7-0.8L572.8,471.2z"/>
					<path class="st39" d="M574.1,470.4h7.8c0.9,0,1.7,0.4,1.8,0.8l1.2,4.1c0.1,0.5-0.5,0.8-1.4,0.8h-8.1c-0.9,0-1.7-0.4-1.8-0.8
						l-0.9-4.1C572.6,470.8,573.2,470.4,574.1,470.4z M583.5,476c0.8,0,1.3-0.3,1.2-0.7l-1.1-4.1c-0.1-0.4-0.8-0.7-1.6-0.7h-7.9
						c-0.8,0-1.3,0.3-1.2,0.7l0.9,4.1c0.1,0.4,0.8,0.7,1.6,0.7H583.5z"/>
				</g>
				<g>
					<path class="st7" d="M536.4,471.2c0-0.4,0.7-0.8,1.5-0.8h7.9c0.8,0,1.5,0.3,1.5,0.8l0.3,4.1c0,0.4-0.6,0.8-1.5,0.8H538
						c-0.9,0-1.5-0.3-1.5-0.8L536.4,471.2z"/>
					<path class="st39" d="M537.9,470.4h7.8c0.9,0,1.6,0.4,1.7,0.8l0.3,4.1c0,0.5-0.7,0.8-1.6,0.8H538c-0.9,0-1.7-0.4-1.7-0.8v-4.1
						C536.3,470.8,537,470.4,537.9,470.4z M546.1,476c0.8,0,1.4-0.3,1.4-0.7l-0.3-4.1c0-0.4-0.7-0.7-1.4-0.7h-7.9
						c-0.8,0-1.4,0.3-1.4,0.7v4.1c0,0.4,0.6,0.7,1.4,0.7H546.1z"/>
				</g>
				<g>
					<path class="st7" d="M548.6,471.2c0-0.4,0.6-0.8,1.4-0.8h7.9c0.8,0,1.5,0.3,1.6,0.8l0.6,4.1c0.1,0.4-0.6,0.8-1.4,0.8h-8.1
						c-0.8,0-1.6-0.3-1.6-0.8L548.6,471.2z"/>
					<path class="st39" d="M550,470.4h7.8c0.9,0,1.7,0.4,1.7,0.8l0.6,4.1c0.1,0.5-0.6,0.8-1.6,0.8h-8.1c-0.9,0-1.7-0.4-1.7-0.8
						l-0.3-4.1C548.4,470.8,549.1,470.4,550,470.4z M558.6,476c0.8,0,1.4-0.3,1.3-0.7l-0.5-4.1c-0.1-0.4-0.7-0.7-1.5-0.7H550
						c-0.8,0-1.3,0.3-1.3,0.7l0.3,4.1c0,0.4,0.7,0.7,1.5,0.7H558.6z"/>
				</g>
				<g>
					<path class="st7" d="M524.2,471.2c0-0.4,0.7-0.8,1.5-0.8h7.9c0.8,0,1.5,0.3,1.5,0.8v4.1c0,0.4-0.7,0.8-1.5,0.8h-8.1
						c-0.8,0-1.5-0.3-1.5-0.8L524.2,471.2z"/>
					<path class="st39" d="M525.8,470.4h7.8c0.9,0,1.6,0.4,1.6,0.8v4.1c0,0.5-0.8,0.8-1.7,0.8h-8.1c-0.9,0-1.6-0.4-1.6-0.8l0.3-4.1
						C524.1,470.8,524.9,470.4,525.8,470.4z M533.5,476c0.8,0,1.4-0.3,1.4-0.7v-4.1c0-0.4-0.6-0.7-1.4-0.7h-7.9
						c-0.8,0-1.4,0.3-1.4,0.7l-0.3,4.1c0,0.4,0.6,0.7,1.4,0.7H533.5z"/>
				</g>
				<g>
					<path class="st7" d="M499.9,471.2c0.1-0.4,0.8-0.8,1.7-0.8h7.9c0.8,0,1.4,0.3,1.4,0.8l-0.6,4.1c-0.1,0.4-0.8,0.8-1.7,0.8h-8.1
						c-0.9,0-1.5-0.3-1.4-0.8L499.9,471.2z"/>
					<path class="st39" d="M501.6,470.4h7.8c0.9,0,1.6,0.4,1.5,0.8l-0.6,4.1c-0.1,0.5-0.9,0.8-1.8,0.8h-8.2c-0.9,0-1.6-0.4-1.5-0.8
						l0.9-4.1C499.9,470.8,500.7,470.4,501.6,470.4z M508.5,476c0.8,0,1.5-0.3,1.5-0.7l0.6-4.1c0.1-0.4-0.5-0.7-1.3-0.7h-7.9
						c-0.8,0-1.4,0.3-1.5,0.7l-0.9,4.1c-0.1,0.4,0.5,0.7,1.3,0.7H508.5z"/>
				</g>
				<g>
					<path class="st7" d="M512,471.2c0.1-0.4,0.8-0.8,1.6-0.8h7.9c0.8,0,1.5,0.3,1.4,0.8l-0.3,4.1c0,0.4-0.8,0.8-1.6,0.8h-8.1
						c-0.8,0-1.5-0.3-1.4-0.8L512,471.2z"/>
					<path class="st39" d="M513.6,470.4h7.8c0.9,0,1.6,0.4,1.5,0.8l-0.3,4.1c0,0.5-0.8,0.8-1.7,0.8h-8.1c-0.9,0-1.6-0.4-1.5-0.8
						l0.6-4.1C512,470.8,512.7,470.4,513.6,470.4z M521,476c0.8,0,1.4-0.3,1.5-0.7l0.3-4.1c0-0.4-0.6-0.7-1.3-0.7h-7.9
						c-0.8,0-1.4,0.3-1.5,0.7l-0.6,4.1c-0.1,0.4,0.5,0.7,1.3,0.7H521z"/>
				</g>
				<g>
					<path class="st7" d="M475.7,471.2c0.2-0.4,1-0.8,1.8-0.8h7.9c0.8,0,1.4,0.3,1.3,0.8l-1.2,4.1c-0.1,0.4-0.9,0.8-1.8,0.8h-8.1
						c-0.8,0-1.4-0.3-1.3-0.8L475.7,471.2z"/>
					<path class="st39" d="M477.4,470.4h7.8c0.9,0,1.5,0.4,1.4,0.8l-1.2,4.1c-0.1,0.5-1,0.8-1.9,0.8h-8.1c-0.9,0-1.5-0.4-1.4-0.8
						l1.5-4.1C475.7,470.8,476.6,470.4,477.4,470.4z M483.5,476c0.8,0,1.5-0.3,1.6-0.7l1.2-4.1c0.1-0.4-0.4-0.7-1.1-0.7h-7.9
						c-0.8,0-1.5,0.3-1.6,0.7l-1.5,4.1c-0.1,0.4,0.4,0.7,1.1,0.7H483.5z"/>
				</g>
				<g>
					<path class="st7" d="M487.8,471.2c0.1-0.4,0.9-0.8,1.7-0.8h7.9c0.8,0,1.4,0.3,1.3,0.8l-0.9,4.1c-0.1,0.4-0.9,0.8-1.7,0.8H488
						c-0.8,0-1.4-0.3-1.3-0.8L487.8,471.2z"/>
					<path class="st7" d="M489.5,470.4h7.8c0.9,0,1.5,0.4,1.4,0.8l-0.9,4.1c-0.1,0.5-0.9,0.8-1.9,0.8h-8.1c-0.9,0-1.6-0.4-1.4-0.8
						l1.2-4.1C487.8,470.8,488.6,470.4,489.5,470.4z M496,476c0.8,0,1.5-0.3,1.6-0.7l0.9-4.1c0.1-0.4-0.4-0.7-1.2-0.7h-7.9
						c-0.8,0-1.5,0.3-1.6,0.7l-1.2,4.1c-0.1,0.4,0.4,0.7,1.2,0.7H496z"/>
				</g>
				<g>
					<path class="st7" d="M515.6,470c0.7,0,1.4-0.3,1.4-0.7l0.5-4.1c0-0.4-0.5-0.7-1.2-0.7h-7.6c-0.7,0-1.4,0.3-1.4,0.7l-0.8,4.1
						c-0.1,0.4,0.5,0.7,1.2,0.7H515.6z"/>
				</g>
				<g>
					<path class="st7" d="M483.7,465.2c0.1-0.4,0.9-0.8,1.7-0.8h7.6c0.8,0,1.3,0.3,1.2,0.8l-1.1,4.1c-0.1,0.4-0.9,0.8-1.7,0.8h-7.8
						c-0.8,0-1.4-0.3-1.2-0.8L483.7,465.2z"/>
					<path class="st39" d="M485.4,464.2h7.6c0.9,0,1.5,0.4,1.3,0.8l-1.1,4.1c-0.1,0.5-0.9,0.8-1.8,0.8h-7.8c-0.9,0-1.5-0.4-1.3-0.8
						l1.4-4.1C483.8,464.7,484.6,464.2,485.4,464.2z M491.4,470c0.7,0,1.4-0.3,1.5-0.7l1.1-4.1c0.1-0.4-0.4-0.7-1.1-0.7h-7.6
						c-0.7,0-1.4,0.3-1.5,0.7l-1.4,4.1c-0.1,0.4,0.4,0.7,1.1,0.7H491.4z"/>
				</g>
				<g>
					<path class="st7" d="M495.4,465.2c0.1-0.4,0.8-0.8,1.6-0.8h7.6c0.8,0,1.4,0.3,1.3,0.8l-0.8,4.1c-0.1,0.4-0.8,0.8-1.6,0.8h-7.8
						c-0.8,0-1.4-0.3-1.3-0.8L495.4,465.2z"/>
					<path class="st39" d="M497.1,464.2h7.6c0.9,0,1.5,0.4,1.4,0.8l-0.8,4.1c-0.1,0.5-0.9,0.8-1.8,0.8h-7.8c-0.9,0-1.5-0.4-1.4-0.8
						l1.1-4.1C495.4,464.7,496.2,464.2,497.1,464.2z M503.5,470c0.8,0,1.4-0.3,1.5-0.7l0.8-4.1c0.1-0.4-0.5-0.7-1.2-0.7H497
						c-0.7,0-1.4,0.3-1.5,0.7l-1.1,4.1c-0.1,0.4,0.4,0.7,1.2,0.7H503.5z"/>
				</g>
				<g>
					<path class="st7" d="M460.4,465.2c0.2-0.4,1-0.8,1.8-0.8h7.6c0.8,0,1.3,0.3,1.1,0.8l-1.7,4.1c-0.2,0.4-1,0.8-1.8,0.8h-7.8
						c-0.8,0-1.3-0.3-1.1-0.8L460.4,465.2z"/>
					<path class="st39" d="M462.2,464.2h7.6c0.9,0,1.4,0.4,1.2,0.8l-1.7,4.1c-0.2,0.5-1.1,0.8-2,0.8h-7.8c-0.9,0-1.4-0.4-1.2-0.8
						l2-4.1C460.5,464.7,461.3,464.2,462.2,464.2z M467.4,470c0.8,0,1.5-0.3,1.7-0.7l1.7-4.1c0.2-0.4-0.3-0.7-1-0.7h-7.6
						c-0.7,0-1.5,0.3-1.7,0.7l-1.9,4.1c-0.2,0.4,0.3,0.7,1,0.7H467.4z"/>
				</g>
				<g>
					<path class="st7" d="M472,465.2c0.2-0.4,1-0.8,1.7-0.8h7.6c0.8,0,1.3,0.3,1.2,0.8l-1.4,4.1c-0.1,0.4-0.9,0.8-1.7,0.8h-7.8
						c-0.8,0-1.3-0.3-1.2-0.8L472,465.2z"/>
					<path class="st39" d="M473.8,464.2h7.6c0.9,0,1.4,0.4,1.3,0.8l-1.4,4.1c-0.2,0.5-1,0.8-1.9,0.8h-7.8c-0.9,0-1.5-0.4-1.3-0.8
						l1.7-4.1C472.1,464.7,473,464.2,473.8,464.2z M479.4,470c0.7,0,1.5-0.3,1.6-0.7l1.4-4.1c0.1-0.4-0.3-0.7-1.1-0.7h-7.6
						c-0.7,0-1.4,0.3-1.6,0.7l-1.6,4.1c-0.2,0.4,0.3,0.7,1.1,0.7H479.4z"/>
				</g>
				<g>
					<path class="st7" d="M565.7,465.2c-0.1-0.4,0.5-0.8,1.3-0.8h7.6c0.8,0,1.5,0.3,1.6,0.8l1,4.1c0.1,0.4-0.5,0.8-1.3,0.8h-7.8
						c-0.8,0-1.5-0.3-1.6-0.8L565.7,465.2z"/>
					<path class="st39" d="M567,464.2h7.6c0.9,0,1.6,0.4,1.8,0.8l1,4.1c0.1,0.5-0.5,0.8-1.4,0.8h-7.8c-0.9,0-1.7-0.4-1.8-0.8
						l-0.7-4.1C565.5,464.7,566.2,464.2,567,464.2z M575.9,470c0.7,0,1.3-0.3,1.2-0.7l-1-4.1c-0.1-0.4-0.8-0.7-1.5-0.7H567
						c-0.7,0-1.3,0.3-1.2,0.7l0.7,4.1c0.1,0.4,0.7,0.7,1.5,0.7H575.9z"/>
				</g>
				<g>
					<path class="st7" d="M542.3,465.2c0-0.4,0.6-0.8,1.4-0.8h7.6c0.8,0,1.5,0.3,1.5,0.8l0.4,4.1c0,0.4-0.6,0.8-1.4,0.8H544
						c-0.8,0-1.5-0.3-1.5-0.8L542.3,465.2z"/>
					<path class="st39" d="M543.7,464.2h7.6c0.9,0,1.6,0.4,1.6,0.8l0.4,4.1c0,0.5-0.6,0.8-1.5,0.8H544c-0.9,0-1.6-0.4-1.6-0.8
						l-0.1-4.1C542.2,464.7,542.8,464.2,543.7,464.2z M551.8,470c0.7,0,1.3-0.3,1.3-0.7l-0.4-4.1c0-0.4-0.7-0.7-1.4-0.7h-7.6
						c-0.7,0-1.3,0.3-1.3,0.7l0.1,4.1c0,0.4,0.6,0.7,1.4,0.7H551.8z"/>
				</g>
				<g>
					<path class="st7" d="M554,465.2c0-0.4,0.6-0.8,1.4-0.8h7.6c0.8,0,1.5,0.3,1.6,0.8l0.7,4.1c0.1,0.4-0.5,0.8-1.4,0.8h-7.8
						c-0.8,0-1.5-0.3-1.6-0.8L554,465.2z"/>
					<path class="st39" d="M555.3,464.2h7.6c0.9,0,1.6,0.4,1.7,0.8l0.7,4.1c0.1,0.5-0.6,0.8-1.5,0.8H556c-0.9,0-1.6-0.4-1.7-0.8
						l-0.4-4.1C553.8,464.7,554.5,464.2,555.3,464.2z M563.8,470c0.7,0,1.3-0.3,1.2-0.7l-0.7-4.1c-0.1-0.4-0.7-0.7-1.4-0.7h-7.6
						c-0.7,0-1.3,0.3-1.2,0.7l0.4,4.1c0,0.4,0.7,0.7,1.4,0.7H563.8z"/>
				</g>
				<g>
					<path class="st7" d="M600.8,465.2c-0.2-0.4,0.3-0.8,1.1-0.8h7.6c0.8,0,1.6,0.3,1.8,0.8l1.9,4.1c0.2,0.4-0.3,0.8-1.1,0.8h-7.8
						c-0.8,0-1.6-0.3-1.8-0.8L600.8,465.2z"/>
					<path class="st39" d="M601.9,464.2h7.6c0.9,0,1.7,0.4,1.9,0.8l1.9,4.1c0.2,0.5-0.3,0.8-1.2,0.8h-7.8c-0.9,0-1.8-0.4-1.9-0.8
						l-1.6-4.1C600.5,464.7,601,464.2,601.9,464.2z M612,470c0.7,0,1.2-0.3,1-0.7l-1.9-4.1c-0.2-0.4-0.9-0.7-1.6-0.7h-7.6
						c-0.7,0-1.2,0.3-1,0.7l1.6,4.1c0.2,0.4,0.9,0.7,1.6,0.7H612z"/>
				</g>
				<g>
					<path class="st7" d="M577.3,465.2c-0.1-0.4,0.4-0.8,1.2-0.8h7.6c0.8,0,1.5,0.3,1.7,0.8l1.3,4.1c0.1,0.4-0.4,0.8-1.2,0.8h-7.8
						c-0.8,0-1.6-0.3-1.7-0.8L577.3,465.2z"/>
					<path class="st39" d="M578.6,464.2h7.6c0.9,0,1.7,0.4,1.8,0.8l1.3,4.1c0.1,0.5-0.5,0.8-1.3,0.8h-7.8c-0.9,0-1.7-0.4-1.8-0.8
						l-1-4.1C577.1,464.7,577.7,464.2,578.6,464.2z M587.9,470c0.7,0,1.3-0.3,1.1-0.7l-1.3-4.1c-0.1-0.4-0.8-0.7-1.5-0.7h-7.6
						c-0.7,0-1.2,0.3-1.1,0.7l1,4.1c0.1,0.4,0.8,0.7,1.5,0.7H587.9z"/>
				</g>
				<g>
					<path class="st7" d="M589,465.2c-0.1-0.4,0.4-0.8,1.2-0.8h7.6c0.8,0,1.6,0.3,1.7,0.8l1.6,4.1c0.2,0.4-0.4,0.8-1.2,0.8h-7.8
						c-0.8,0-1.6-0.3-1.7-0.8L589,465.2z"/>
					<path class="st39" d="M590.2,464.2h7.6c0.9,0,1.7,0.4,1.9,0.8l1.6,4.1c0.2,0.5-0.4,0.8-1.3,0.8h-7.8c-0.9,0-1.7-0.4-1.9-0.8
						L589,465C588.8,464.7,589.3,464.2,590.2,464.2z M599.9,470c0.8,0,1.2-0.3,1.1-0.7l-1.6-4.1c-0.2-0.4-0.9-0.7-1.6-0.7h-7.6
						c-0.7,0-1.2,0.3-1.1,0.7l1.3,4.1c0.1,0.4,0.8,0.7,1.6,0.7H599.9z"/>
				</g>
				<g>
					<path class="st7" d="M518.9,465.2c0-0.4,0.7-0.8,1.5-0.8h7.6c0.8,0,1.4,0.3,1.4,0.8l-0.2,4.1c0,0.4-0.7,0.8-1.5,0.8h-7.8
						c-0.8,0-1.4-0.3-1.4-0.8L518.9,465.2z"/>
					<path class="st39" d="M520.5,464.2h7.6c0.9,0,1.5,0.4,1.5,0.8l-0.2,4.1c0,0.5-0.8,0.8-1.6,0.8H520c-0.9,0-1.6-0.4-1.5-0.8
						l0.5-4.1C518.9,464.7,519.6,464.2,520.5,464.2z M527.7,470c0.8,0,1.4-0.3,1.4-0.7l0.2-4.1c0-0.4-0.6-0.7-1.3-0.7h-7.6
						c-0.7,0-1.3,0.3-1.4,0.7l-0.5,4.1c0,0.4,0.5,0.7,1.3,0.7H527.7z"/>
				</g>
				<g>
					<path class="st7" d="M530.6,465.2c0-0.4,0.7-0.8,1.5-0.8h7.6c0.8,0,1.4,0.3,1.5,0.8l0.1,4.1c0,0.4-0.6,0.8-1.5,0.8H532
						c-0.8,0-1.5-0.3-1.5-0.8L530.6,465.2z"/>
					<path class="st39" d="M532.1,464.2h7.6c0.9,0,1.6,0.4,1.6,0.8l0.1,4.1c0,0.5-0.7,0.8-1.6,0.8H532c-0.9,0-1.6-0.4-1.6-0.8
						l0.2-4.1C530.5,464.7,531.2,464.2,532.1,464.2z M539.7,470c0.7,0,1.4-0.3,1.3-0.7l-0.1-4.1c0-0.4-0.6-0.7-1.3-0.7H532
						c-0.7,0-1.3,0.3-1.3,0.7l-0.2,4.1c0,0.4,0.6,0.7,1.3,0.7H539.7z"/>
				</g>
				<g>
					<path class="st7" d="M505.6,459c0.1-0.4,0.8-0.8,1.5-0.8h7.3c0.8,0,1.3,0.3,1.3,0.8l-0.6,4.1c-0.1,0.4-0.7,0.8-1.5,0.8h-7.5
						c-0.8,0-1.4-0.3-1.3-0.8L505.6,459z"/>
					<path class="st39" d="M507.1,458.1h7.3c0.8,0,1.4,0.4,1.4,0.8l-0.6,4.1c-0.1,0.5-0.8,0.8-1.7,0.8H506c-0.9,0-1.5-0.4-1.4-0.8
						l0.8-4.1C505.6,458.5,506.3,458.1,507.1,458.1z M513.6,463.8c0.7,0,1.4-0.3,1.4-0.7l0.6-4.1c0.1-0.4-0.5-0.7-1.2-0.7h-7.3
						c-0.7,0-1.3,0.3-1.4,0.7l-0.8,4.1c-0.1,0.4,0.4,0.7,1.2,0.7H513.6z"/>
				</g>
				<g>
					<path class="st7" d="M483,459c0.1-0.4,0.9-0.8,1.6-0.8h7.3c0.8,0,1.3,0.3,1.2,0.8l-1.2,4.1c-0.1,0.4-0.9,0.8-1.6,0.8h-7.5
						c-0.8,0-1.3-0.3-1.2-0.8L483,459z"/>
					<path class="st39" d="M484.7,458.1h7.3c0.8,0,1.4,0.4,1.3,0.8l-1.2,4.1c-0.1,0.5-0.9,0.8-1.8,0.8h-7.5c-0.9,0-1.4-0.4-1.3-0.8
						l1.4-4.1C483.1,458.5,483.9,458.1,484.7,458.1z M490.3,463.8c0.7,0,1.4-0.3,1.5-0.7l1.2-4.1c0.1-0.4-0.4-0.7-1.1-0.7h-7.3
						c-0.7,0-1.4,0.3-1.5,0.7l-1.4,4.1c-0.1,0.4,0.3,0.7,1.1,0.7H490.3z"/>
				</g>
				<g>
					<path class="st7" d="M494.3,459c0.1-0.4,0.8-0.8,1.6-0.8h7.3c0.8,0,1.3,0.3,1.2,0.8l-0.9,4.1c-0.1,0.4-0.8,0.8-1.6,0.8h-7.5
						c-0.8,0-1.3-0.3-1.2-0.8L494.3,459z"/>
					<path class="st39" d="M495.9,458.1h7.3c0.8,0,1.4,0.4,1.3,0.8l-0.9,4.1c-0.1,0.5-0.9,0.8-1.7,0.8h-7.6c-0.9,0-1.4-0.4-1.3-0.8
						l1.1-4.1C494.3,458.5,495.1,458.1,495.9,458.1z M501.9,463.8c0.7,0,1.4-0.3,1.5-0.7l0.9-4.1c0.1-0.4-0.4-0.7-1.1-0.7h-7.3
						c-0.7,0-1.4,0.3-1.5,0.7l-1.1,4.1c-0.1,0.4,0.4,0.7,1.1,0.7H501.9z"/>
				</g>
				<g>
					<path class="st7" d="M561.9,459c-0.1-0.4,0.5-0.8,1.3-0.8h7.3c0.8,0,1.5,0.3,1.6,0.8l0.9,4.1c0.1,0.4-0.5,0.8-1.3,0.8h-7.5
						c-0.8,0-1.5-0.3-1.6-0.8L561.9,459z"/>
					<path class="st39" d="M563.1,458.1h7.3c0.8,0,1.6,0.4,1.7,0.8l0.9,4.1c0.1,0.5-0.5,0.8-1.4,0.8h-7.5c-0.9,0-1.6-0.4-1.7-0.8
						l-0.7-4.1C561.7,458.5,562.3,458.1,563.1,458.1z M571.6,463.8c0.7,0,1.2-0.3,1.1-0.7l-0.9-4.1c-0.1-0.4-0.7-0.7-1.4-0.7h-7.3
						c-0.7,0-1.2,0.3-1.1,0.7l0.7,4.1c0.1,0.4,0.7,0.7,1.4,0.7H571.6z"/>
				</g>
				<g>
					<path class="st7" d="M539.4,459c0-0.4,0.6-0.8,1.4-0.8h7.3c0.8,0,1.4,0.3,1.4,0.8l0.3,4.1c0,0.4-0.6,0.8-1.4,0.8h-7.5
						c-0.8,0-1.4-0.3-1.4-0.8L539.4,459z"/>
					<path class="st39" d="M540.7,458.1h7.3c0.8,0,1.5,0.4,1.6,0.8l0.3,4.1c0,0.5-0.6,0.8-1.5,0.8h-7.5c-0.9,0-1.6-0.4-1.6-0.8
						l-0.1-4.1C539.2,458.5,539.9,458.1,540.7,458.1z M548.4,463.8c0.7,0,1.3-0.3,1.3-0.7l-0.4-4.1c0-0.4-0.6-0.7-1.3-0.7h-7.3
						c-0.7,0-1.3,0.3-1.3,0.7l0.1,4.1c0,0.4,0.6,0.7,1.3,0.7L548.4,463.8L548.4,463.8z"/>
				</g>
				<g>
					<path class="st7" d="M550.6,459c0-0.4,0.5-0.8,1.3-0.8h7.3c0.8,0,1.4,0.3,1.5,0.8l0.6,4.1c0.1,0.4-0.5,0.8-1.3,0.8h-7.5
						c-0.8,0-1.5-0.3-1.5-0.8L550.6,459z"/>
					<path class="st39" d="M551.9,458.1h7.3c0.8,0,1.5,0.4,1.6,0.8l0.6,4.1c0.1,0.5-0.6,0.8-1.4,0.8h-7.5c-0.9,0-1.6-0.4-1.6-0.8
						l-0.4-4.1C550.4,458.5,551.1,458.1,551.9,458.1z M560,463.8c0.7,0,1.3-0.3,1.2-0.7l-0.6-4.1c-0.1-0.4-0.7-0.7-1.4-0.7h-7.3
						c-0.7,0-1.2,0.3-1.2,0.7l0.4,4.1c0,0.4,0.6,0.7,1.4,0.7H560z"/>
				</g>
				<g>
					<path class="st7" d="M595.6,459c-0.2-0.4,0.3-0.8,1.1-0.8h7.3c0.8,0,1.5,0.3,1.7,0.8l1.8,4.1c0.2,0.4-0.3,0.8-1.1,0.8h-7.5
						c-0.8,0-1.6-0.3-1.7-0.8L595.6,459z"/>
					<path class="st39" d="M596.7,458.1h7.3c0.8,0,1.7,0.4,1.9,0.8l1.8,4.1c0.2,0.5-0.3,0.8-1.2,0.8H599c-0.9,0-1.7-0.4-1.9-0.8
						l-1.6-4.1C595.3,458.5,595.8,458.1,596.7,458.1z M606.4,463.8c0.7,0,1.2-0.3,1-0.7l-1.8-4.1c-0.2-0.4-0.9-0.7-1.6-0.7h-7.3
						c-0.7,0-1.1,0.3-1,0.7l1.6,4.1c0.1,0.4,0.9,0.7,1.6,0.7H606.4z"/>
				</g>
				<g>
					<path class="st7" d="M573.1,459c-0.1-0.4,0.4-0.8,1.2-0.8h7.3c0.8,0,1.5,0.3,1.6,0.8l1.2,4.1c0.1,0.4-0.4,0.8-1.2,0.8h-7.5
						c-0.8,0-1.5-0.3-1.6-0.8L573.1,459z"/>
					<path class="st39" d="M574.2,458.1h7.3c0.8,0,1.6,0.4,1.7,0.8l1.2,4.1c0.1,0.5-0.4,0.8-1.3,0.8h-7.5c-0.9,0-1.6-0.4-1.7-0.8
						l-1-4.1C572.8,458.5,573.4,458.1,574.2,458.1z M583.1,463.8c0.7,0,1.2-0.3,1.1-0.7l-1.2-4.1c-0.1-0.4-0.8-0.7-1.5-0.7h-7.2
						c-0.7,0-1.2,0.3-1.1,0.7l1,4.1c0.1,0.4,0.8,0.7,1.5,0.7H583.1z"/>
				</g>
				<g>
					<path class="st7" d="M584.3,459c-0.1-0.4,0.4-0.8,1.1-0.8h7.3c0.8,0,1.5,0.3,1.7,0.8l1.5,4.1c0.2,0.4-0.4,0.8-1.1,0.8h-7.5
						c-0.8,0-1.5-0.3-1.7-0.8L584.3,459z"/>
					<path class="st39" d="M585.4,458.1h7.3c0.8,0,1.6,0.4,1.8,0.8l1.5,4.1c0.2,0.5-0.4,0.8-1.2,0.8h-7.5c-0.9,0-1.7-0.4-1.8-0.8
						l-1.3-4.1C584,458.5,584.6,458.1,585.4,458.1z M594.7,463.8c0.7,0,1.2-0.3,1-0.7l-1.5-4.1c-0.1-0.4-0.8-0.7-1.5-0.7h-7.3
						c-0.7,0-1.2,0.3-1,0.7l1.3,4.1c0.1,0.4,0.8,0.7,1.5,0.7H594.7z"/>
				</g>
				<g>
					<path class="st7" d="M516.9,459c0.1-0.4,0.7-0.8,1.5-0.8h7.3c0.8,0,1.4,0.3,1.3,0.8l-0.3,4.1c0,0.4-0.7,0.8-1.5,0.8h-7.5
						c-0.8,0-1.4-0.3-1.3-0.8L516.9,459z"/>
					<path class="st39" d="M518.4,458.1h7.3c0.8,0,1.5,0.4,1.4,0.8l-0.3,4.1c0,0.5-0.7,0.8-1.6,0.8h-7.5c-0.9,0-1.5-0.4-1.4-0.8
						l0.5-4.1C516.8,458.5,517.6,458.1,518.4,458.1z M525.2,463.8c0.7,0,1.3-0.3,1.4-0.7l0.3-4.1c0-0.4-0.5-0.7-1.2-0.7h-7.3
						c-0.7,0-1.3,0.3-1.4,0.7l-0.5,4.1c-0.1,0.4,0.5,0.7,1.2,0.7H525.2z"/>
				</g>
				<g>
					<path class="st7" d="M528.1,459c0-0.4,0.7-0.8,1.4-0.8h7.3c0.8,0,1.4,0.3,1.4,0.8v4.1c0,0.4-0.6,0.8-1.4,0.8h-7.5
						c-0.8,0-1.4-0.3-1.4-0.8L528.1,459z"/>
					<path class="st39" d="M529.6,458.1h7.3c0.8,0,1.5,0.4,1.5,0.8v4.1c0,0.5-0.7,0.8-1.5,0.8h-7.6c-0.9,0-1.5-0.4-1.5-0.8l0.2-4.1
						C528,458.5,528.7,458.1,529.6,458.1z M536.8,463.8c0.7,0,1.3-0.3,1.3-0.7V459c0-0.4-0.6-0.7-1.3-0.7h-7.3
						c-0.7,0-1.3,0.3-1.3,0.7l-0.2,4.1c0,0.4,0.5,0.7,1.3,0.7L536.8,463.8L536.8,463.8z"/>
				</g>
				<g>
					<path class="st7" d="M501.5,452.9c0.1-0.4,0.8-0.8,1.5-0.8h7c0.7,0,1.3,0.3,1.2,0.8l-0.7,4.1c-0.1,0.4-0.7,0.8-1.5,0.8h-7.2
						c-0.8,0-1.3-0.3-1.2-0.8L501.5,452.9z"/>
					<path class="st39" d="M503,452h7c0.8,0,1.4,0.4,1.3,0.8l-0.7,4.1c-0.1,0.5-0.8,0.8-1.6,0.8h-7.3c-0.8,0-1.4-0.4-1.3-0.8l1-4.1
						C501.5,452.4,502.2,452,503,452z M508.9,457.7c0.7,0,1.3-0.3,1.4-0.7l0.7-4.1c0.1-0.4-0.4-0.7-1.1-0.7h-7
						c-0.7,0-1.3,0.3-1.4,0.7l-1,4.1c-0.1,0.4,0.4,0.7,1.1,0.7H508.9z"/>
				</g>
				<g>
					<path class="st7" d="M490.6,452.9c0.1-0.4,0.8-0.8,1.6-0.8h7c0.7,0,1.2,0.3,1.1,0.8l-1,4.1c-0.1,0.4-0.8,0.8-1.6,0.8h-7.2
						c-0.8,0-1.3-0.3-1.1-0.8L490.6,452.9z"/>
					<path class="st39" d="M492.2,452h7c0.8,0,1.3,0.4,1.2,0.8l-1,4.1c-0.1,0.5-0.9,0.8-1.7,0.8h-7.3c-0.8,0-1.4-0.4-1.2-0.8
						l1.3-4.1C490.7,452.4,491.4,452,492.2,452z M497.7,457.7c0.7,0,1.3-0.3,1.4-0.7l1-4.1c0.1-0.4-0.4-0.7-1-0.7h-7
						c-0.7,0-1.3,0.3-1.4,0.7l-1.3,4.1c-0.1,0.4,0.3,0.7,1,0.7H497.7z"/>
				</g>
				<g>
					<path class="st7" d="M555.6,452.9c-0.1-0.4,0.5-0.8,1.2-0.8h7c0.7,0,1.4,0.3,1.5,0.8l0.8,4.1c0.1,0.4-0.5,0.8-1.2,0.8h-7.2
						c-0.8,0-1.4-0.3-1.5-0.8L555.6,452.9z"/>
					<path class="st39" d="M556.8,452h7c0.8,0,1.5,0.4,1.6,0.8l0.8,4.1c0.1,0.5-0.5,0.8-1.3,0.8h-7.3c-0.8,0-1.5-0.4-1.6-0.8
						l-0.5-4.1C555.4,452.4,556,452,556.8,452z M564.8,457.7c0.7,0,1.2-0.3,1.1-0.7l-0.8-4.1c-0.1-0.4-0.7-0.7-1.3-0.7h-7
						c-0.7,0-1.2,0.3-1.1,0.7l0.5,4.1c0,0.4,0.7,0.7,1.3,0.7H564.8z"/>
				</g>
				<g>
					<path class="st7" d="M533.9,452.9c0-0.4,0.6-0.8,1.3-0.8h7c0.7,0,1.3,0.3,1.4,0.8l0.2,4.1c0,0.4-0.6,0.8-1.3,0.8h-7.2
						c-0.8,0-1.4-0.3-1.4-0.8V452.9z"/>
					<path class="st39" d="M535.2,452h7c0.8,0,1.4,0.4,1.5,0.8l0.2,4.1c0,0.5-0.6,0.8-1.4,0.8h-7.3c-0.8,0-1.5-0.4-1.5-0.8l0.1-4.1
						C533.8,452.4,534.5,452,535.2,452z M542.4,457.7c0.7,0,1.2-0.3,1.2-0.7l-0.2-4.1c0-0.4-0.6-0.7-1.2-0.7h-7
						c-0.7,0-1.2,0.3-1.2,0.7l-0.1,4.1c0,0.4,0.6,0.7,1.2,0.7H542.4z"/>
				</g>
				<g>
					<path class="st7" d="M544.7,452.9c0-0.4,0.6-0.8,1.3-0.8h7c0.7,0,1.4,0.3,1.4,0.8l0.5,4.1c0.1,0.4-0.5,0.8-1.3,0.8h-7.3
						c-0.8,0-1.4-0.3-1.4-0.8L544.7,452.9z"/>
					<path class="st39" d="M546,452h7c0.8,0,1.5,0.4,1.5,0.8l0.5,4.1c0.1,0.5-0.6,0.8-1.4,0.8h-7.3c-0.8,0-1.5-0.4-1.5-0.8l-0.2-4.1
						C544.6,452.4,545.2,452,546,452z M553.6,457.7c0.7,0,1.2-0.3,1.2-0.7l-0.5-4.1c0-0.4-0.6-0.7-1.3-0.7h-7
						c-0.7,0-1.2,0.3-1.2,0.7l0.2,4.1c0,0.4,0.6,0.7,1.3,0.7H553.6z"/>
				</g>
				<g>
					<path class="st7" d="M587.9,452.9c-0.1-0.4,0.3-0.8,1.1-0.8h7c0.7,0,1.5,0.3,1.6,0.8l1.7,4.1c0.2,0.4-0.3,0.8-1.1,0.8H591
						c-0.8,0-1.5-0.3-1.6-0.8L587.9,452.9z"/>
					<path class="st39" d="M588.9,452h7c0.8,0,1.6,0.4,1.8,0.8l1.7,4.1c0.2,0.5-0.3,0.8-1.1,0.8H591c-0.8,0-1.6-0.4-1.8-0.8
						l-1.4-4.1C587.6,452.4,588.2,452,588.9,452z M598.2,457.7c0.7,0,1.1-0.3,1-0.7l-1.7-4.1c-0.2-0.4-0.8-0.7-1.5-0.7h-7
						c-0.7,0-1.1,0.3-1,0.7l1.4,4.1c0.1,0.4,0.8,0.7,1.5,0.7H598.2z"/>
				</g>
				<g>
					<path class="st7" d="M608.6,446.1c-0.2-0.5,0.1-0.9,0.8-0.9h6.7c0.7,0,1.5,0.4,1.8,0.9l2.7,4.6c0.3,0.5-0.1,0.9-0.8,0.9h-7
						c-0.7,0-1.5-0.4-1.8-0.9L608.6,446.1z"/>
					<path class="st39" d="M609.4,445.1h6.7c0.8,0,1.6,0.4,1.9,0.9l2.7,4.6c0.3,0.5-0.1,0.9-0.9,0.9h-7c-0.8,0-1.6-0.4-1.9-0.9
						l-2.3-4.6C608.2,445.6,608.6,445.1,609.4,445.1z M619.7,451.5c0.7,0,1-0.4,0.7-0.8l-2.6-4.6c-0.3-0.4-1-0.8-1.6-0.8h-6.7
						c-0.6,0-1,0.4-0.7,0.8l2.4,4.6c0.2,0.4,1,0.8,1.6,0.8H619.7z"/>
				</g>
				<g>
					<path class="st7" d="M598.3,446.1c-0.2-0.5,0.2-0.9,0.9-0.9h6.7c0.7,0,1.5,0.4,1.7,0.9l2.3,4.6c0.2,0.5-0.2,0.9-0.9,0.9h-7
						c-0.7,0-1.5-0.4-1.7-0.9L598.3,446.1z"/>
					<path class="st39" d="M599.2,445.1h6.7c0.8,0,1.6,0.4,1.8,0.9l2.3,4.6c0.3,0.5-0.2,0.9-1,0.9h-7c-0.8,0-1.6-0.4-1.8-0.9l-2-4.6
						C598,445.6,598.4,445.1,599.2,445.1z M609,451.5c0.7,0,1-0.4,0.8-0.8l-2.3-4.6c-0.2-0.4-0.9-0.8-1.6-0.8h-6.7
						c-0.6,0-1,0.4-0.8,0.8l2,4.6c0.2,0.4,0.9,0.8,1.6,0.8H609z"/>
				</g>
				<g>
					<path class="st7" d="M588,446.1c-0.2-0.5,0.2-0.9,0.9-0.9h6.7c0.7,0,1.4,0.4,1.6,0.9l2,4.6c0.2,0.5-0.2,0.9-0.9,0.9h-7
						c-0.7,0-1.5-0.4-1.6-0.9L588,446.1z"/>
					<path class="st39" d="M589,445.1h6.7c0.8,0,1.5,0.4,1.8,0.9l2,4.6c0.2,0.5-0.2,0.9-1,0.9h-7c-0.8,0-1.6-0.4-1.8-0.9L588,446
						C587.7,445.6,588.2,445.1,589,445.1z M598.3,451.5c0.7,0,1.1-0.4,0.9-0.8l-2-4.6c-0.2-0.4-0.9-0.8-1.5-0.8H589
						c-0.6,0-1,0.4-0.9,0.8l1.7,4.6c0.2,0.4,0.8,0.8,1.5,0.8H598.3z"/>
				</g>
				<g>
					<path class="st7" d="M500.4,446.1c0.1-0.5,0.8-0.9,1.5-0.9h6.7c0.7,0,1.2,0.4,1.1,0.9l-0.9,4.6c-0.1,0.5-0.8,0.9-1.5,0.9h-7
						c-0.7,0-1.2-0.4-1.1-0.9L500.4,446.1z"/>
					<path class="st39" d="M501.9,445.1h6.7c0.8,0,1.3,0.4,1.2,0.9l-0.9,4.6c-0.1,0.5-0.8,0.9-1.6,0.9h-7c-0.8,0-1.3-0.4-1.2-0.9
						l1.2-4.6C500.4,445.6,501.1,445.1,501.9,445.1z M507.2,451.5c0.7,0,1.3-0.4,1.4-0.8l0.9-4.6c0.1-0.4-0.4-0.8-1-0.8h-6.7
						c-0.6,0-1.3,0.4-1.4,0.8l-1.2,4.6c-0.1,0.4,0.3,0.8,1,0.8H507.2z"/>
				</g>
				<g>
					<path class="st7" d="M566.3,452.9c-0.1-0.4,0.4-0.8,1.2-0.8h7c0.7,0,1.4,0.3,1.5,0.8l1.1,4.1c0.1,0.4-0.4,0.8-1.2,0.8h-7.2
						c-0.8,0-1.4-0.3-1.5-0.8L566.3,452.9z"/>
					<path class="st39" d="M567.4,452h7c0.8,0,1.5,0.4,1.7,0.8l1.1,4.1c0.1,0.5-0.4,0.8-1.3,0.8h-7.3c-0.8,0-1.6-0.4-1.7-0.8
						l-0.8-4.1C566.1,452.4,566.6,452,567.4,452z M575.8,457.7c0.7,0,1.2-0.3,1.1-0.7l-1.1-4.1c-0.1-0.4-0.7-0.7-1.4-0.7h-7
						c-0.7,0-1.2,0.3-1.1,0.7l0.8,4.1c0.1,0.4,0.7,0.7,1.4,0.7H575.8z"/>
				</g>
				<g>
					<path class="st7" d="M577,452.9c-0.1-0.4,0.4-0.8,1.1-0.8h7c0.7,0,1.4,0.3,1.6,0.8l1.4,4.1c0.1,0.4-0.4,0.8-1.1,0.8h-7.2
						c-0.8,0-1.5-0.3-1.6-0.8L577,452.9z"/>
					<path class="st39" d="M578.1,452h7c0.8,0,1.6,0.4,1.7,0.8l1.4,4.1c0.2,0.5-0.4,0.8-1.2,0.8h-7.3c-0.8,0-1.6-0.4-1.7-0.8
						l-1.1-4.1C576.8,452.4,577.4,452,578.1,452z M587,457.7c0.7,0,1.2-0.3,1-0.7l-1.4-4.1c-0.1-0.4-0.8-0.7-1.5-0.7h-7
						c-0.7,0-1.1,0.3-1,0.7l1.1,4.1c0.1,0.4,0.8,0.7,1.5,0.7H587z"/>
				</g>
				<g>
					<path class="st7" d="M512.3,452.9c0.1-0.4,0.7-0.8,1.5-0.8h7c0.7,0,1.3,0.3,1.2,0.8l-0.4,4.1c0,0.4-0.7,0.8-1.5,0.8h-7.2
						c-0.8,0-1.3-0.3-1.2-0.8L512.3,452.9z"/>
					<path class="st39" d="M513.8,452h7c0.8,0,1.4,0.4,1.3,0.8l-0.4,4.1c0,0.5-0.8,0.8-1.6,0.8h-7.3c-0.8,0-1.4-0.4-1.3-0.8l0.7-4.1
						C512.3,452.4,513,452,513.8,452z M520.2,457.7c0.7,0,1.3-0.3,1.3-0.7l0.4-4.1c0-0.4-0.5-0.7-1.1-0.7h-7c-0.7,0-1.3,0.3-1.3,0.7
						l-0.7,4.1c-0.1,0.4,0.4,0.7,1.1,0.7H520.2z"/>
				</g>
				<g>
					<path class="st7" d="M523.1,452.9c0-0.4,0.7-0.8,1.4-0.8h7c0.7,0,1.3,0.3,1.3,0.8l-0.1,4.1c0,0.4-0.6,0.8-1.4,0.8h-7.2
						c-0.8,0-1.3-0.3-1.3-0.8L523.1,452.9z"/>
					<path class="st39" d="M524.5,452h7c0.8,0,1.4,0.4,1.4,0.8l-0.1,4.1c0,0.5-0.7,0.8-1.5,0.8H524c-0.8,0-1.5-0.4-1.4-0.8l0.4-4.1
						C523.1,452.4,523.7,452,524.5,452z M531.3,457.7c0.7,0,1.3-0.3,1.3-0.7l0.1-4.1c0-0.4-0.5-0.7-1.2-0.7h-7
						c-0.7,0-1.2,0.3-1.3,0.7l-0.4,4.1c0,0.4,0.5,0.7,1.2,0.7H531.3z"/>
				</g>
				<g>
					<path class="st7" d="M624.5,477.4c-0.2-0.4,0.3-0.8,1.2-0.8h8.1c0.9,0,1.7,0.3,2,0.8l1,1.7c0.2,0.4-0.3,0.8-1.1,0.8h-8.3
						c-0.9,0-1.7-0.3-2-0.8L624.5,477.4z"/>
					<path class="st39" d="M625.6,476.5h8.1c0.9,0,1.9,0.4,2.2,0.8l1,1.7c0.3,0.5-0.3,0.8-1.2,0.8h-8.3c-0.9,0-1.9-0.4-2.1-0.8
						l-0.9-1.7C624.2,477,624.7,476.5,625.6,476.5z M635.6,479.9c0.8,0,1.3-0.3,1-0.7l-1-1.7c-0.2-0.4-1-0.7-1.8-0.7h-8.1
						c-0.8,0-1.3,0.3-1.1,0.7l0.9,1.7c0.2,0.4,1,0.7,1.8,0.7H635.6z"/>
				</g>
				<g>
					<path class="st7" d="M611.3,477.4c-0.2-0.4,0.4-0.8,1.2-0.8h8.1c0.9,0,1.7,0.3,1.9,0.8l0.9,1.7c0.2,0.4-0.3,0.8-1.2,0.8h-8.3
						c-0.9,0-1.7-0.3-1.9-0.8L611.3,477.4z"/>
					<path class="st39" d="M612.5,476.5h8.1c0.9,0,1.9,0.4,2.1,0.8l0.9,1.7c0.2,0.5-0.3,0.8-1.3,0.8H614c-0.9,0-1.9-0.4-2.1-0.8
						l-0.7-1.7C611,477,611.6,476.5,612.5,476.5z M622.2,479.9c0.8,0,1.3-0.3,1.1-0.7l-0.9-1.7c-0.2-0.4-1-0.7-1.8-0.7h-8.1
						c-0.8,0-1.3,0.3-1.1,0.7l0.8,1.7c0.2,0.4,1,0.7,1.7,0.7H622.2z"/>
				</g>
				<g>
					<path class="st7" d="M598.4,477.4c-0.2-0.4,0.4-0.8,1.3-0.8h8.1c0.9,0,1.7,0.3,1.9,0.8l0.7,1.7c0.2,0.4-0.4,0.8-1.2,0.8h-8.3
						c-0.9,0-1.7-0.3-1.8-0.8L598.4,477.4z"/>
					<path class="st39" d="M599.6,476.5h8.1c0.9,0,1.8,0.4,2,0.8l0.7,1.7c0.2,0.5-0.4,0.8-1.3,0.8h-8.3c-0.9,0-1.8-0.4-2-0.8
						l-0.6-1.7C598.1,477,598.7,476.5,599.6,476.5z M609.1,479.9c0.8,0,1.3-0.3,1.1-0.7l-0.7-1.7c-0.2-0.4-0.9-0.7-1.7-0.7h-8.1
						c-0.8,0-1.3,0.3-1.2,0.7l0.6,1.7c0.1,0.4,0.9,0.7,1.7,0.7H609.1z"/>
				</g>
				<g>
					<path class="st7" d="M585.2,477.4c-0.1-0.4,0.5-0.8,1.3-0.8h8.1c0.9,0,1.7,0.3,1.8,0.8l0.6,1.7c0.1,0.4-0.4,0.8-1.3,0.8h-8.3
						c-0.9,0-1.7-0.3-1.8-0.8L585.2,477.4z"/>
					<path class="st39" d="M586.5,476.5h8.1c0.9,0,1.8,0.4,2,0.8l0.6,1.7c0.2,0.5-0.5,0.8-1.4,0.8h-8.3c-0.9,0-1.8-0.4-1.9-0.8
						l-0.5-1.7C584.9,477,585.6,476.5,586.5,476.5z M595.7,479.9c0.8,0,1.3-0.3,1.2-0.7l-0.6-1.7c-0.1-0.4-0.9-0.7-1.7-0.7h-8.1
						c-0.8,0-1.3,0.3-1.2,0.7l0.5,1.7c0.1,0.4,0.8,0.7,1.6,0.7H595.7z"/>
				</g>
				<g>
					<path class="st7" d="M572.4,477.4c-0.1-0.4,0.5-0.8,1.4-0.8h8.1c0.9,0,1.6,0.3,1.8,0.8l0.5,1.7c0.1,0.4-0.5,0.8-1.4,0.8h-8.3
						c-0.9,0-1.6-0.3-1.7-0.8L572.4,477.4z"/>
					<path class="st39" d="M573.7,476.5h8.1c0.9,0,1.8,0.4,1.9,0.8l0.5,1.7c0.1,0.5-0.5,0.8-1.5,0.8h-8.3c-0.9,0-1.8-0.4-1.9-0.8
						l-0.4-1.7C572.1,477,572.8,476.5,573.7,476.5z M582.7,479.9c0.8,0,1.4-0.3,1.2-0.7l-0.5-1.7c-0.1-0.4-0.8-0.7-1.6-0.7h-8.1
						c-0.8,0-1.3,0.3-1.3,0.7l0.4,1.7c0.1,0.4,0.8,0.7,1.6,0.7H582.7z"/>
				</g>
				<g>
					<path class="st7" d="M559.1,477.4c-0.1-0.4,0.6-0.8,1.4-0.8h8.1c0.9,0,1.6,0.3,1.7,0.8l0.3,1.7c0.1,0.4-0.6,0.8-1.4,0.8h-8.3
						c-0.9,0-1.6-0.3-1.7-0.8L559.1,477.4z"/>
					<path class="st39" d="M560.6,476.5h8.1c0.9,0,1.7,0.4,1.8,0.8l0.3,1.7c0.1,0.5-0.6,0.8-1.5,0.8H561c-0.9,0-1.8-0.4-1.8-0.8
						l-0.2-1.7C558.9,477,559.7,476.5,560.6,476.5z M569.3,479.9c0.8,0,1.4-0.3,1.3-0.7l-0.3-1.7c-0.1-0.4-0.8-0.7-1.6-0.7h-8.1
						c-0.8,0-1.4,0.3-1.3,0.7l0.2,1.7c0.1,0.4,0.7,0.7,1.5,0.7H569.3z"/>
				</g>
				<g>
					<path class="st7" d="M546.1,477.4c0-0.4,0.7-0.8,1.5-0.8h8.1c0.9,0,1.6,0.3,1.6,0.8l0.2,1.7c0.1,0.4-0.6,0.8-1.5,0.8h-8.3
						c-0.9,0-1.6-0.3-1.6-0.8L546.1,477.4z"/>
					<path class="st39" d="M547.6,476.5h8.1c0.9,0,1.7,0.4,1.8,0.8l0.2,1.7c0.1,0.5-0.7,0.8-1.6,0.8h-8.3c-0.9,0-1.7-0.4-1.7-0.8
						l-0.1-1.7C546,477,546.7,476.5,547.6,476.5z M556.1,479.9c0.8,0,1.4-0.3,1.4-0.7l-0.2-1.7c0-0.4-0.7-0.7-1.5-0.7h-8.1
						c-0.8,0-1.4,0.3-1.4,0.7l0.1,1.7c0,0.4,0.7,0.7,1.5,0.7H556.1z"/>
				</g>
				<g>
					<path class="st7" d="M532.9,477.4c0-0.4,0.7-0.8,1.6-0.8h8.1c0.9,0,1.6,0.3,1.6,0.8l0.1,1.7c0,0.4-0.7,0.8-1.5,0.8h-8.3
						c-0.9,0-1.6-0.3-1.6-0.8V477.4z"/>
					<path class="st39" d="M534.5,476.5h8.1c0.9,0,1.7,0.4,1.7,0.8l0.1,1.7c0,0.5-0.7,0.8-1.7,0.8h-8.3c-0.9,0-1.7-0.4-1.7-0.8v-1.7
						C532.8,477,533.5,476.5,534.5,476.5z M542.7,479.9c0.8,0,1.4-0.3,1.4-0.7l-0.1-1.7c0-0.4-0.7-0.7-1.4-0.7h-8.1
						c-0.8,0-1.4,0.3-1.4,0.7v1.7c0,0.4,0.6,0.7,1.4,0.7H542.7z"/>
				</g>
				<g>
					<path class="st7" d="M520,477.4c0-0.4,0.8-0.8,1.6-0.8h8.1c0.9,0,1.5,0.3,1.5,0.8l-0.1,1.7c0,0.4-0.7,0.8-1.6,0.8h-8.2
						c-0.9,0-1.5-0.3-1.5-0.8L520,477.4z"/>
					<path class="st39" d="M521.6,476.5h8.1c0.9,0,1.7,0.4,1.6,0.8l-0.1,1.7c0,0.5-0.8,0.8-1.7,0.8h-8.2c-0.9,0-1.7-0.4-1.6-0.8
						l0.2-1.7C519.9,477,520.7,476.5,521.6,476.5z M529.6,479.9c0.8,0,1.5-0.3,1.5-0.7l0.1-1.7c0-0.4-0.6-0.7-1.4-0.7h-8.1
						c-0.8,0-1.4,0.3-1.5,0.7l-0.2,1.7c0,0.4,0.6,0.7,1.4,0.7H529.6z"/>
				</g>
				<g>
					<path class="st7" d="M506.7,477.4c0.1-0.4,0.8-0.8,1.7-0.8h8.1c0.9,0,1.5,0.3,1.5,0.8l-0.2,1.7c0,0.4-0.8,0.8-1.7,0.8h-8.3
						c-0.9,0-1.5-0.3-1.4-0.8L506.7,477.4z"/>
					<path class="st39" d="M508.4,476.5h8.1c0.9,0,1.6,0.4,1.6,0.8l-0.2,1.7c-0.1,0.5-0.9,0.8-1.8,0.8h-8.3c-0.9,0-1.6-0.4-1.6-0.8
						l0.3-1.7C506.7,477,507.5,476.5,508.4,476.5z M516.2,479.9c0.8,0,1.5-0.3,1.5-0.7l0.2-1.7c0-0.4-0.6-0.7-1.3-0.7h-8.1
						c-0.8,0-1.5,0.3-1.5,0.7l-0.3,1.7c-0.1,0.4,0.5,0.7,1.3,0.7H516.2z"/>
				</g>
				<g>
					<path class="st7" d="M493.9,477.4c0.1-0.4,0.9-0.8,1.7-0.8h8.1c0.9,0,1.5,0.3,1.4,0.8l-0.3,1.7c-0.1,0.4-0.8,0.8-1.7,0.8h-8.3
						c-0.9,0-1.5-0.3-1.4-0.8L493.9,477.4z"/>
					<path class="st39" d="M495.7,476.5h8.1c0.9,0,1.6,0.4,1.5,0.8L505,479c-0.1,0.5-0.9,0.8-1.9,0.8h-8.3c-0.9,0-1.6-0.4-1.5-0.8
						l0.4-1.7C493.9,477,494.8,476.5,495.7,476.5z M503.2,479.9c0.8,0,1.5-0.3,1.6-0.7l0.3-1.7c0.1-0.4-0.5-0.7-1.3-0.7h-8.1
						c-0.8,0-1.5,0.3-1.6,0.7l-0.4,1.7c-0.1,0.4,0.5,0.7,1.3,0.7H503.2z"/>
				</g>
				<g>
					<path class="st7" d="M480.7,477.4c0.1-0.4,0.9-0.8,1.8-0.8h8.1c0.9,0,1.5,0.3,1.3,0.8l-0.5,1.7c-0.1,0.4-0.9,0.8-1.8,0.8h-8.3
						c-0.9,0-1.5-0.3-1.3-0.8L480.7,477.4z"/>
					<path class="st39" d="M482.5,476.5h8.1c0.9,0,1.6,0.4,1.5,0.8l-0.5,1.7c-0.1,0.5-1,0.8-1.9,0.8h-8.3c-0.9,0-1.6-0.4-1.4-0.8
						l0.6-1.7C480.7,477,481.6,476.5,482.5,476.5z M489.8,479.9c0.8,0,1.5-0.3,1.6-0.7l0.5-1.7c0.1-0.4-0.4-0.7-1.2-0.7h-8.1
						c-0.8,0-1.5,0.3-1.6,0.7l-0.6,1.7c-0.1,0.4,0.4,0.7,1.2,0.7H489.8z"/>
				</g>
				<g>
					<path class="st7" d="M467.7,477.4c0.2-0.4,1-0.8,1.9-0.8h8.1c0.9,0,1.4,0.3,1.3,0.8l-0.6,1.7c-0.1,0.4-1,0.8-1.8,0.8h-8.3
						c-0.9,0-1.4-0.3-1.3-0.8L467.7,477.4z"/>
					<path class="st39" d="M469.6,476.5h8.1c0.9,0,1.5,0.4,1.4,0.8l-0.6,1.7c-0.2,0.5-1,0.8-2,0.8h-8.2c-0.9,0-1.6-0.4-1.4-0.8
						l0.7-1.7C467.8,477,468.7,476.5,469.6,476.5z M476.6,479.9c0.8,0,1.5-0.3,1.7-0.7l0.6-1.7c0.1-0.4-0.4-0.7-1.2-0.7h-8.1
						c-0.8,0-1.5,0.3-1.7,0.7l-0.7,1.7c-0.2,0.4,0.4,0.7,1.2,0.7H476.6z"/>
				</g>
				<g>
					<path class="st7" d="M454.5,477.4c0.2-0.4,1.1-0.8,1.9-0.8h8.1c0.9,0,1.4,0.3,1.2,0.8l-0.7,1.7c-0.2,0.4-1,0.8-1.9,0.8h-8.3
						c-0.9,0-1.4-0.3-1.2-0.8L454.5,477.4z"/>
					<path class="st39" d="M456.5,476.5h8.1c0.9,0,1.5,0.4,1.3,0.8l-0.7,1.7c-0.2,0.5-1.1,0.8-2.1,0.8h-8.3c-0.9,0-1.5-0.4-1.3-0.8
						l0.8-1.7C454.6,477,455.5,476.5,456.5,476.5z M463.2,479.9c0.8,0,1.6-0.3,1.7-0.7l0.7-1.7c0.2-0.4-0.3-0.7-1.1-0.7h-8.1
						c-0.8,0-1.6,0.3-1.8,0.7l-0.8,1.7c-0.2,0.4,0.3,0.7,1.1,0.7H463.2z"/>
				</g>
				<g>
					<path class="st7" d="M612.6,465.2c-0.2-0.4,0.3-0.8,1.1-0.8H627c0.8,0,1.6,0.3,1.9,0.8l2.3,4.1c0.2,0.4-0.2,0.8-1,0.8h-13.7
						c-0.8,0-1.6-0.3-1.8-0.8L612.6,465.2z"/>
					<path class="st39" d="M613.6,464.2h13.3c0.9,0,1.8,0.4,2,0.8l2.3,4.1c0.3,0.5-0.2,0.8-1.1,0.8h-13.7c-0.9,0-1.8-0.4-2-0.8
						l-1.9-4.1C612.3,464.7,612.8,464.2,613.6,464.2z M630.1,470c0.7,0,1.2-0.3,1-0.7l-2.3-4.1c-0.2-0.4-1-0.7-1.7-0.7h-13.3
						c-0.7,0-1.2,0.3-1,0.7l1.9,4.1c0.2,0.4,0.9,0.7,1.7,0.7H630.1z"/>
				</g>
				<g>
					<path class="st7" d="M606.8,459c-0.2-0.4,0.3-0.8,1-0.8h15.6c0.8,0,1.6,0.3,1.8,0.8l2.3,4.1c0.2,0.4-0.2,0.8-1,0.8h-16.2
						c-0.8,0-1.6-0.3-1.8-0.8L606.8,459z"/>
					<path class="st39" d="M607.8,458.1h15.6c0.8,0,1.7,0.4,2,0.8l2.3,4.1c0.3,0.5-0.2,0.8-1.1,0.8h-16.2c-0.9,0-1.7-0.4-1.9-0.8
						l-1.8-4.1C606.5,458.5,607,458.1,607.8,458.1z M626.6,463.8c0.7,0,1.1-0.3,0.9-0.7l-2.3-4.1c-0.2-0.4-1-0.7-1.7-0.7h-15.6
						c-0.7,0-1.1,0.3-0.9,0.7l1.9,4.1c0.2,0.4,0.9,0.7,1.6,0.7H626.6z"/>
				</g>
				<g>
					<path class="st7" d="M598.5,452.9c-0.2-0.4,0.3-0.8,1-0.8H620c0.7,0,1.5,0.3,1.8,0.8l2.3,4.1c0.2,0.4-0.2,0.8-0.9,0.8h-21.3
						c-0.8,0-1.5-0.3-1.7-0.8L598.5,452.9z"/>
					<path class="st39" d="M599.4,452h20.5c0.8,0,1.6,0.4,1.9,0.8l2.3,4.1c0.3,0.5-0.2,0.8-1,0.8h-21.3c-0.8,0-1.6-0.4-1.8-0.8
						l-1.7-4.1C598.2,452.4,598.7,452,599.4,452z M623.1,457.7c0.7,0,1.1-0.3,0.9-0.7l-2.3-4.1c-0.2-0.4-0.9-0.7-1.6-0.7h-20.5
						c-0.7,0-1.1,0.3-0.9,0.7l1.7,4.1c0.2,0.4,0.9,0.7,1.6,0.7H623.1z"/>
				</g>
				<g>
					<path class="st7" d="M575.2,446c-0.1-0.4,0.4-0.8,1.1-0.8h9.2c0.7,0,1.4,0.3,1.5,0.8l1.7,4.8c0.2,0.4-0.3,0.8-1,0.8h-9.6
						c-0.7,0-1.4-0.3-1.5-0.8L575.2,446z"/>
					<path class="st39" d="M576.2,445.1h9.2c0.8,0,1.5,0.4,1.7,0.8l1.7,4.8c0.2,0.5-0.3,0.8-1.1,0.8h-9.6c-0.8,0-1.5-0.4-1.7-0.8
						l-1.3-4.8C575,445.5,575.5,445.1,576.2,445.1z M587.6,451.5c0.7,0,1.1-0.3,1-0.7l-1.7-4.8c-0.1-0.4-0.8-0.7-1.4-0.7h-9.2
						c-0.6,0-1.1,0.3-1,0.7l1.3,4.8c0.1,0.4,0.7,0.7,1.4,0.7H587.6z"/>
				</g>
				<g>
					<path class="st7" d="M511,446c0.1-0.4,0.7-0.8,1.4-0.8h9.2c0.7,0,1.2,0.3,1.2,0.8l-0.5,4.8c0,0.4-0.7,0.8-1.4,0.8h-9.6
						c-0.7,0-1.3-0.3-1.2-0.8L511,446z"/>
					<path class="st39" d="M512.4,445.1h9.2c0.8,0,1.3,0.4,1.3,0.8l-0.5,4.8c0,0.5-0.7,0.8-1.5,0.8h-9.6c-0.8,0-1.4-0.4-1.3-0.8
						l0.9-4.8C511,445.5,511.6,445.1,512.4,445.1z M520.9,451.5c0.7,0,1.2-0.3,1.3-0.7l0.5-4.8c0-0.4-0.4-0.7-1.1-0.7h-9.2
						c-0.6,0-1.2,0.3-1.3,0.7l-0.9,4.8c-0.1,0.4,0.4,0.7,1.1,0.7H520.9z"/>
				</g>
				<g>
					<path class="st7" d="M457.5,471.2c0.2-0.4,1-0.8,1.9-0.8h14.1c0.8,0,1.4,0.3,1.2,0.8l-1.5,4.1c-0.2,0.4-1,0.8-1.8,0.8h-14.6
						c-0.9,0-1.4-0.3-1.2-0.8L457.5,471.2z"/>
					<path class="st39" d="M459.4,470.4h14.1c0.9,0,1.5,0.4,1.3,0.8l-1.5,4.1c-0.2,0.5-1.1,0.8-2,0.8h-14.6c-0.9,0-1.5-0.4-1.3-0.8
						l2-4.1C457.6,470.8,458.5,470.4,459.4,470.4z M471.3,476c0.8,0,1.5-0.3,1.7-0.7l1.5-4.1c0.1-0.4-0.3-0.7-1.1-0.7h-14.1
						c-0.8,0-1.5,0.3-1.7,0.7l-1.9,4.1c-0.2,0.4,0.3,0.7,1.1,0.7H471.3z"/>
				</g>
				<g>
					<path class="st7" d="M463.3,459c0.2-0.4,1-0.8,1.7-0.8h15.8c0.8,0,1.3,0.3,1.1,0.8l-1.5,4.1c-0.2,0.4-0.9,0.8-1.7,0.8h-16.3
						c-0.8,0-1.3-0.3-1.1-0.8L463.3,459z"/>
					<path class="st39" d="M465.1,458.1h15.8c0.8,0,1.4,0.4,1.2,0.8l-1.5,4.1c-0.2,0.5-1,0.8-1.8,0.8h-16.4c-0.9,0-1.4-0.4-1.1-0.8
						l2-4.1C463.4,458.5,464.3,458.1,465.1,458.1z M478.8,463.8c0.7,0,1.4-0.3,1.6-0.7l1.5-4.1c0.1-0.4-0.3-0.7-1-0.7h-15.8
						c-0.7,0-1.4,0.3-1.6,0.7l-1.9,4.1c-0.2,0.4,0.2,0.7,1,0.7H478.8z"/>
				</g>
				<g>
					<path class="st7" d="M466.2,452.9c0.2-0.4,1-0.8,1.7-0.8h20.4c0.7,0,1.2,0.3,1.1,0.8l-1.3,4.1c-0.1,0.4-0.9,0.8-1.6,0.8h-21.2
						c-0.8,0-1.2-0.3-1-0.8L466.2,452.9z"/>
					<path class="st39" d="M468,452h20.4c0.8,0,1.3,0.4,1.2,0.8l-1.3,4.1c-0.1,0.5-0.9,0.8-1.8,0.8h-21.2c-0.8,0-1.3-0.4-1.1-0.8
						l2-4.1C466.4,452.4,467.2,452,468,452z M486.5,457.7c0.7,0,1.4-0.3,1.5-0.7l1.3-4.1c0.1-0.4-0.3-0.7-1-0.7h-20.4
						c-0.7,0-1.4,0.3-1.6,0.7l-1.9,4.1c-0.2,0.4,0.2,0.7,0.9,0.7H486.5z"/>
				</g>
				<g>
					<path class="st7" d="M490.1,446c0.1-0.4,0.8-0.8,1.5-0.8h6.7c0.7,0,1.2,0.3,1.1,0.8l-0.4,1.6c-0.1,0.4-0.8,0.8-1.5,0.8h-6.8
						c-0.7,0-1.2-0.3-1-0.8L490.1,446z"/>
					<path class="st39" d="M491.6,445.1h6.7c0.8,0,1.3,0.4,1.1,0.8l-0.4,1.6c-0.1,0.5-0.8,0.8-1.6,0.8h-6.8c-0.8,0-1.3-0.4-1.1-0.8
						l0.5-1.6C490.2,445.5,490.9,445.1,491.6,445.1z M497.4,448.2c0.7,0,1.3-0.3,1.4-0.7l0.4-1.6c0.1-0.4-0.3-0.7-1-0.7h-6.7
						c-0.6,0-1.3,0.3-1.4,0.7l-0.5,1.6c-0.1,0.4,0.3,0.7,0.9,0.7H497.4z"/>
				</g>
				<g>
					<path class="st7" d="M469.5,446c0.2-0.4,0.9-0.8,1.6-0.8h6.7c0.7,0,1.1,0.3,0.9,0.8l-0.7,1.6c-0.2,0.4-0.9,0.8-1.6,0.8h-6.8
						c-0.7,0-1.1-0.3-0.9-0.8L469.5,446z"/>
					<path class="st39" d="M471.2,445.1h6.7c0.8,0,1.2,0.4,1,0.8l-0.7,1.6c-0.2,0.5-1,0.8-1.7,0.8h-6.8c-0.8,0-1.2-0.4-1-0.8
						l0.8-1.6C469.7,445.5,470.4,445.1,471.2,445.1z M476.5,448.2c0.7,0,1.3-0.3,1.5-0.7l0.7-1.6c0.2-0.4-0.2-0.7-0.9-0.7h-6.7
						c-0.6,0-1.3,0.3-1.5,0.7l-0.8,1.6c-0.2,0.4,0.2,0.7,0.8,0.7H476.5z"/>
				</g>
				<g>
					<path class="st7" d="M479.8,446c0.2-0.4,0.9-0.8,1.6-0.8h6.7c0.7,0,1.1,0.3,1,0.8l-1.6,4.8c-0.1,0.4-0.9,0.8-1.6,0.8h-7
						c-0.7,0-1.2-0.3-1-0.8L479.8,446z"/>
					<path class="st39" d="M481.4,445.1h6.7c0.8,0,1.2,0.4,1.1,0.8l-1.6,4.8c-0.2,0.5-0.9,0.8-1.7,0.8h-7c-0.8,0-1.3-0.4-1.1-0.8
						l2-4.8C479.9,445.5,480.7,445.1,481.4,445.1z M485.8,451.5c0.7,0,1.3-0.3,1.4-0.7l1.6-4.8c0.1-0.4-0.3-0.7-0.9-0.7h-6.7
						c-0.6,0-1.3,0.3-1.4,0.7l-2,4.8c-0.2,0.4,0.3,0.7,0.9,0.7H485.8z"/>
				</g>
				<g>
					<path class="st7" d="M523.8,446c0-0.4,0.6-0.8,1.3-0.8h47.6c0.7,0,1.4,0.3,1.5,0.8l1.3,4.8c0.1,0.4-0.4,0.8-1.1,0.8h-49.7
						c-0.7,0-1.3-0.3-1.2-0.8L523.8,446z"/>
				</g>
			</g>
		</g>
		<path class="st40" d="M625.6,463c-0.1-0.1,0-0.2,0.2-0.2s0.4,0.1,0.4,0.2c0.1,0.1,0,0.2-0.2,0.2
			C625.9,463.2,625.7,463.1,625.6,463z"/>
	</g>
</g>
<text transform="matrix(0.9563 0.2924 -0.2924 0.9563 665.597 -19.5482)" class="st41 st42 st43">JS</text>
<text transform="matrix(0.9563 0.2924 -0.2924 0.9563 664.9467 -18.3568)" class="st44 st42 st43">JS</text>
<text transform="matrix(0.9563 0.2924 -0.2924 0.9563 173.3974 314.2292)" class="st45 st42 st43">RUBY</text>
<text transform="matrix(0.9563 0.2924 -0.2924 0.9563 172.3974 313.7257)" class="st45 st42 st43">RUBY</text>
</svg>
