<?xml version="1.0" encoding="utf-8"?>
<!-- Generator: Adobe Illustrator 19.1.0, SVG Export Plug-In . SVG Version: 6.00 Build 0)  -->
<svg version="1.1" id="Layer_1" xmlns="http://www.w3.org/2000/svg" xmlns:xlink="http://www.w3.org/1999/xlink" x="0px" y="0px"
	 viewBox="0 0 100 100" style="enable-background:new 0 0 100 100;" xml:space="preserve">
<style type="text/css">
	.st0{fill:none;stroke:#000000;stroke-width:4;stroke-miterlimit:10;}
	.st1{font-family:'MalayalamSangamMN';}
	.st2{font-size:43px;}
</style>
<g>
	<path class="st0" d="M88,100H12c-6.6,0-12-5.4-12-12V12C0,5.4,5.4,0,12,0h76c6.6,0,12,5.4,12,12v76C100,94.6,94.6,100,88,100z"/>
	<path class="st0" d="M73,85.7H27c-6.6,0-12-5.4-12-12v-46c0-6.6,5.4-12,12-12h46c6.6,0,12,5.4,12,12v46C85,80.3,79.6,85.7,73,85.7z
		"/>
	<text transform="matrix(1 0 0 1 41.5961 77.8279)" class="st1 st2">IS</text>
</g>
</svg>
