<?xml version="1.0" encoding="utf-8"?>
<!-- Generator: Adobe Illustrator 19.1.0, SVG Export Plug-In . SVG Version: 6.00 Build 0)  -->
<svg version="1.1" id="background" xmlns="http://www.w3.org/2000/svg" xmlns:xlink="http://www.w3.org/1999/xlink" x="0px" y="0px"
	 viewBox="0 0 800 800" style="enable-background:new 0 0 800 800;" xml:space="preserve">
<style type="text/css">
	.st0{fill:#FFFFFE;}
	.st1{fill:#324554;}
	.st2{fill-rule:evenodd;clip-rule:evenodd;fill:#99999A;}
	.st3{fill-rule:evenodd;clip-rule:evenodd;fill:#F2675D;}
	.st4{fill-rule:evenodd;clip-rule:evenodd;fill:#9ACAE6;}
	.st5{fill-rule:evenodd;clip-rule:evenodd;fill:#CCCCCC;}
	.st6{fill-rule:evenodd;clip-rule:evenodd;fill:#4EC8EA;}
	.st7{fill:#FFFFFF;}
	.st8{fill:#DBD9DA;}
	.st9{fill:#4EC8EA;}
	.st10{fill:#E8674E;}
	.st11{fill:#EDCE5E;}
	.st12{fill:#FFFFFF;stroke:#FFFFFF;stroke-width:2.5635;stroke-linecap:round;stroke-linejoin:round;stroke-miterlimit:10;}
	.st13{fill:#CBCBCB;}
	.st14{fill:#F1F1F1;}
	.st15{fill:#3690A4;}
	.st16{fill:#4D4D4D;}
	.st17{fill:#38909E;}
	.st18{fill:#E5E5E5;}
	.st19{fill:#B3B3B3;}
	.st20{fill:none;stroke:#B3B3B3;stroke-width:3.3276;stroke-linecap:round;stroke-linejoin:round;stroke-miterlimit:10;}
	.st21{fill:#B3B3B3;stroke:#B3B3B3;stroke-width:3.3276;stroke-linecap:round;stroke-linejoin:round;stroke-miterlimit:10;}
	.st22{fill:#9DD9EA;}
	.st23{fill:#EBF0F1;}
	.st24{fill:#324554;stroke:#324554;stroke-width:2;stroke-linecap:round;stroke-linejoin:round;stroke-miterlimit:10;}
	.st25{fill:#FFDA96;}
	.st26{fill:#944232;}
	.st27{fill:#BA533F;}
	.st28{fill:#EBC580;}
	.st29{fill:#8E6C59;}
	.st30{fill:#A86C47;}
	.st31{fill:#B17B58;}
	.st32{fill-rule:evenodd;clip-rule:evenodd;fill:#3690A4;}
	.st33{opacity:0.35;fill-rule:evenodd;clip-rule:evenodd;fill:#B0CAD9;}
	.st34{opacity:0.35;}
	.st35{fill-rule:evenodd;clip-rule:evenodd;fill:#D1E2EB;}
	.st36{font-family:'KomikaTitle';}
	.st37{font-size:47.0039px;}
	.st38{font-family:'Aller';}
	.st39{font-size:32.9027px;}
	.st40{fill:#8B8C8C;}
	.st41{fill:#C5C6C7;}
	.st42{display:none;fill:#FFFFFF;stroke:#58595B;stroke-width:0.75;stroke-miterlimit:10;}
	.st43{fill:#404041;}
</style>
<g>
	<g>
		<g>
			<path class="st0" d="M394.3,134.6c29-17.6,38.3-55.2,20.9-84c-17.5-28.8-55.1-37.9-84.1-20.3c-29,17.6-38.3,55.2-20.9,84
				c6.7,11.1,16.4,19.2,27.4,24.1c8.4,4.6,15.9,11.1,21.6,19.6c4.4-5.4,9.7-10.2,16.1-14C377.4,142.5,390.3,137,394.3,134.6z"/>
			<g>
				<path class="st1" d="M336.4,71.4c-0.5,0-1,0-1.4,0.1c-0.4,0-0.9,0.1-1.4,0.2c-0.5,0.1-1.1,0.2-1.7,0.4l0.9,9.2l-6.2,0.6
					l-0.9-9.2c-0.6,0-1.2,0-1.7,0c-0.5,0-1,0-1.4,0.1c-0.4,0-0.8,0.1-1.4,0.2c-0.5,0.1-1.1,0.2-1.7,0.4l2.5,24.9
					c1.2,0.1,2.3,0.1,3.1,0c0.8-0.1,1.8-0.3,3-0.6l-1-10.2l6.2-0.6l1,10.2c1.2,0.1,2.3,0.1,3.1,0c0.8-0.1,1.8-0.3,3-0.6l-2.5-24.9
					C337.5,71.4,337,71.4,336.4,71.4z"/>
				<path class="st1" d="M359.2,70.7c-0.1-0.4-0.2-0.9-0.4-1.4l-17.8,1.8c-0.1,1-0.1,1.9,0,2.7c0.1,0.8,0.3,1.7,0.6,2.7l5.8-0.6
					l1.9,19.5c1.2,0.1,2.3,0.1,3.1,0c0.8-0.1,1.8-0.3,3-0.6l-1.9-19.5l5.8-0.6c0.1-1.1,0.1-2,0-2.8
					C359.4,71.6,359.3,71.2,359.2,70.7z"/>
				<path class="st1" d="M383.1,66.8c-0.5,0-1,0-1.5,0.1c-0.5,0-0.9,0.1-1.4,0.2c-0.5,0.1-0.9,0.2-1.4,0.3l-3.8,13.5l-6.2-12.5
					c-0.5,0-1,0-1.5,0c-0.6,0-1.1,0-1.5,0.1c-0.5,0-1,0.1-1.6,0.2c-0.6,0.1-1.1,0.2-1.6,0.4l1.5,25c1.1,0.1,2,0.1,2.9,0
					c0.9-0.1,1.8-0.3,2.8-0.6l-1-14.3l4.3,9c0.4,0.1,0.8,0.1,1.2,0.1c0.4,0,0.7,0,1.1-0.1c0.3,0,0.7-0.1,1.1-0.2
					c0.4-0.1,0.8-0.2,1.2-0.3l2.9-9.9l1.9,14.4c1.1,0.1,2.1,0.1,2.9,0c0.7-0.1,1.3-0.2,1.8-0.3c0.4-0.1,0.9-0.2,1.2-0.3l-3.7-24.7
					C384.1,66.8,383.6,66.8,383.1,66.8z"/>
				<path class="st1" d="M406.4,87.1c0-0.3-0.1-0.7-0.2-1.2c-0.1-0.4-0.2-0.9-0.4-1.5l-8,0.8l-1.9-19.5c-0.6,0-1.2,0-1.7,0
					c-0.5,0-1,0-1.4,0.1c-0.4,0-0.8,0.1-1.4,0.2c-0.5,0.1-1.1,0.2-1.7,0.4l2.5,25l14.2-1.4c0.1-0.6,0.1-1.1,0.1-1.6
					C406.4,87.9,406.4,87.5,406.4,87.1z"/>
			</g>
		</g>
		<g>
			<path class="st0" d="M519.6,150.9c-2.3-30.8,20.7-57.6,51.3-59.9c30.6-2.3,57.2,20.9,59.5,51.6c2.3,30.8-20.7,57.6-51.3,59.9
				c-11.7,0.9-22.9-2-32.3-7.6c-7.8-3.9-16.7-5.9-25.9-5.7c1.7-6.1,2.4-12.6,1.9-19.3C522.6,167.7,519.9,155.2,519.6,150.9z"/>
			<g>
				<path class="st1" d="M566.5,139.4c0.7-1.7,1-3.3,0.8-4.6c-0.1-1.3-0.6-2.5-1.3-3.4c-0.7-1-1.6-1.8-2.7-2.5
					c-1.1-0.7-2.2-1.3-3.3-1.7c-1.6-0.6-2.9-1.1-4-1.4c-1.1-0.3-1.9-0.5-2.4-0.6l-9.4,23.2c1,0.6,1.9,1.1,2.7,1.4
					c0.4,0.2,0.8,0.3,1.3,0.4c0.5,0.1,1,0.3,1.6,0.4l3.1-7.6c0.2,0.1,0.4,0.3,0.8,0.5c0.4,0.2,0.8,0.4,1.2,0.6
					c1,0.4,2.1,0.7,3.2,0.8c1.1,0.1,2.1,0.1,3.2-0.2c1-0.3,2-0.9,2.8-1.7C565.2,142.2,565.9,141,566.5,139.4z M560.7,137.1
					c-0.4,1.1-1.1,1.8-1.9,2.1c-0.8,0.3-1.7,0.3-2.6-0.1c-0.3-0.1-0.5-0.2-0.8-0.4c-0.3-0.1-0.4-0.2-0.5-0.3l2.6-6.6
					c0.2,0,0.4,0.1,0.5,0.2c0.2,0.1,0.3,0.1,0.5,0.2c0.5,0.2,0.9,0.4,1.3,0.7c0.4,0.3,0.7,0.6,0.9,1c0.2,0.4,0.3,0.9,0.3,1.4
					C561.1,135.9,561,136.4,560.7,137.1z"/>
				<path class="st1" d="M588.4,139c-0.5-0.2-0.9-0.4-1.3-0.6c-0.4-0.2-0.8-0.3-1.3-0.5c-0.5-0.1-1-0.3-1.7-0.4l-3.5,8.6l-5.7-2.3
					l3.5-8.6c-0.5-0.3-1-0.6-1.5-0.8c-0.5-0.2-0.9-0.4-1.3-0.6c-0.4-0.1-0.8-0.3-1.3-0.4c-0.5-0.1-1-0.3-1.7-0.4l-9.4,23.2
					c1,0.6,2,1.1,2.8,1.5c0.8,0.3,1.7,0.6,3,0.9l3.8-9.5l5.7,2.3l-3.8,9.5c1,0.6,2,1.1,2.8,1.5c0.8,0.3,1.7,0.6,3,0.9l9.4-23.2
					C589.4,139.5,588.9,139.2,588.4,139z"/>
				<path class="st1" d="M607.5,151.1c-0.1-1.3-0.6-2.5-1.3-3.4c-0.7-1-1.6-1.8-2.7-2.5c-1.1-0.7-2.2-1.3-3.3-1.7
					c-1.6-0.6-2.9-1.1-4-1.4c-1.1-0.3-1.9-0.5-2.4-0.6l-9.4,23.2c1,0.6,1.9,1.1,2.7,1.4c0.4,0.2,0.8,0.3,1.3,0.4
					c0.5,0.1,1,0.3,1.6,0.4l3.1-7.6c0.2,0.1,0.4,0.3,0.8,0.5c0.4,0.2,0.8,0.4,1.2,0.6c1,0.4,2.1,0.7,3.2,0.8
					c1.1,0.1,2.1,0.1,3.2-0.2c1-0.3,2-0.9,2.8-1.7c0.9-0.8,1.6-2,2.2-3.5C607.3,153.9,607.6,152.4,607.5,151.1z M600.8,153.3
					c-0.4,1.1-1.1,1.8-1.9,2.1c-0.8,0.3-1.7,0.3-2.6-0.1c-0.3-0.1-0.5-0.2-0.8-0.4c-0.2-0.1-0.4-0.2-0.5-0.3l2.6-6.6
					c0.2,0,0.4,0.1,0.5,0.2c0.2,0.1,0.3,0.1,0.5,0.2c0.5,0.2,0.9,0.4,1.3,0.7c0.4,0.3,0.7,0.6,0.9,1c0.2,0.4,0.3,0.9,0.3,1.4
					C601.2,152,601.1,152.6,600.8,153.3z"/>
			</g>
		</g>
		<g>
			<path class="st0" d="M138.6,438c-24.9-20.3-61.5-16.5-81.7,8.5c-20.2,25-16.5,61.8,8.4,82.1c24.9,20.3,61.5,16.5,81.7-8.5
				c7.8-9.6,12-20.9,12.8-32.4c1.4-9,4.9-17.9,10.7-25.7c-6.2-2.2-12.2-5.4-17.6-9.9C151,450.6,142,440.8,138.6,438z"/>
			<g>
				<path class="st1" d="M87,498.1c-0.7,0.8-1.3,1.4-1.8,1.8c-0.5,0.4-1.1,0.9-1.7,1.2c-3.6,2-6.6,0.9-9.1-3.4
					c-1.2-2.2-1.7-4.1-1.4-5.7c0.3-1.6,1.2-2.9,2.9-3.8c0.3-0.2,0.7-0.4,1-0.5c0.3-0.1,0.7-0.3,1-0.4c0.3-0.1,0.7-0.2,1.1-0.3
					c0.4-0.1,0.8-0.2,1.3-0.3c0-0.8-0.2-1.6-0.3-2.5c-0.2-0.9-0.5-1.8-0.9-2.7c-1.3,0.2-2.5,0.4-3.4,0.8c-1,0.3-1.9,0.8-2.9,1.3
					c-1.6,0.9-3,2-3.9,3.3c-1,1.3-1.6,2.7-1.9,4.2c-0.3,1.5-0.3,3.1,0,4.8c0.3,1.7,0.9,3.3,1.8,4.9c0.9,1.6,2,3,3.2,4.1
					c1.2,1.1,2.6,2,4,2.5c1.4,0.5,3,0.7,4.6,0.5c1.6-0.2,3.3-0.8,5-1.7c0.5-0.3,1-0.6,1.4-0.8c0.4-0.3,0.9-0.6,1.3-0.9
					c0.4-0.3,0.9-0.7,1.3-1.1c0.4-0.4,0.9-0.9,1.3-1.5C89.8,500.5,88.5,499.2,87,498.1z"/>
				<path class="st1" d="M100.3,468.6c-0.5,0.2-0.9,0.4-1.4,0.7c-0.4,0.2-0.8,0.5-1.2,0.8c-0.4,0.3-0.8,0.6-1.1,0.9l1.9,13.9
					l-10.7-8.9c-0.4,0.2-0.9,0.4-1.4,0.6c-0.5,0.2-1,0.4-1.4,0.7c-0.4,0.2-0.9,0.5-1.3,0.9c-0.5,0.3-0.9,0.6-1.3,0.9l11.3,22.3
					c1-0.3,1.9-0.7,2.6-1.1c0.8-0.4,1.5-1,2.3-1.6L92,485.7l7.6,6.5c0.4-0.1,0.8-0.2,1.1-0.4c0.3-0.2,0.7-0.3,1-0.5
					c0.3-0.2,0.6-0.4,1-0.6c0.3-0.2,0.7-0.5,1-0.8l-1.3-10.2l7.5,12.4c1.1-0.4,2-0.7,2.7-1.1c0.7-0.4,1.2-0.7,1.5-1
					c0.4-0.3,0.7-0.5,1-0.8L101.7,468C101.3,468.2,100.8,468.4,100.3,468.6z"/>
				<path class="st1" d="M129.9,476c-0.1-1.1-0.5-2.2-1.1-3.2c-0.6-1-1.2-1.8-1.8-2.3c-0.7-0.6-1.4-0.9-2.1-1.2
					c-0.8-0.2-1.6-0.3-2.5-0.3c-0.9,0-1.8,0.1-2.9,0.2l-1.8,0.2c-0.6,0.1-1.2,0.1-1.8,0c-0.5-0.1-1-0.4-1.3-1
					c-0.2-0.3-0.3-0.7-0.3-1c0-0.3,0.1-0.6,0.3-0.9c0.2-0.3,0.4-0.5,0.6-0.7c0.3-0.2,0.6-0.4,0.9-0.6c1.1-0.6,2-1,2.9-1.1
					c0.8-0.2,1.6-0.3,2.3-0.3c-0.1-0.9-0.2-1.8-0.4-2.7c-0.2-0.9-0.5-1.7-0.8-2.4c-1.3,0.2-2.5,0.5-3.6,0.9
					c-1.1,0.3-2.1,0.8-3.2,1.4c-1.2,0.7-2.1,1.4-2.9,2.2c-0.8,0.8-1.3,1.7-1.7,2.7c-0.3,1-0.5,1.9-0.4,3c0.1,1,0.5,2.1,1.1,3.2
					c0.5,0.9,1,1.6,1.6,2.1c0.6,0.5,1.3,0.9,2,1.2c0.7,0.3,1.5,0.4,2.3,0.4c0.8,0,1.6,0,2.5-0.2l2.1-0.3c0.3,0,0.6-0.1,1-0.1
					c0.3,0,0.6,0,0.9,0c0.3,0,0.6,0.2,0.8,0.3c0.3,0.2,0.5,0.4,0.7,0.7c0.4,0.8,0.4,1.5,0,2.1c-0.4,0.6-1.1,1.3-2.2,1.8
					c-1.4,0.8-3.2,1.3-5.6,1.5c0.2,1,0.4,2,0.6,2.9c0.2,0.9,0.5,1.8,0.8,2.5c1.4-0.2,2.6-0.5,3.7-0.8c1.1-0.3,2.3-0.9,3.5-1.6
					c1.4-0.8,2.5-1.6,3.4-2.6c0.9-0.9,1.5-1.9,1.9-2.9C129.9,478.1,130,477.1,129.9,476z"/>
			</g>
		</g>
		<g>
			<path class="st0" d="M610.1,450.6c24.8-16.3,57.9-9.2,74,15.7c16.1,25,9,58.4-15.8,74.7c-24.8,16.3-57.9,9.2-74-15.7
				c-6.2-9.6-8.9-20.4-8.6-31c-0.4-8.5-2.8-16.9-7.3-24.7c5.9-1.4,11.7-3.8,17.1-7.4C597.4,461,606.7,452.8,610.1,450.6z"/>
			<g>
				<path class="st1" d="M617.3,488.1c1.2-1.1,2.8-1.5,4.6-1.3c0.4,0.1,0.8,0.1,1.1,0.2c0.3,0.1,0.7,0.2,1,0.3
					c0.3,0.1,0.7,0.3,1.1,0.4c0.4,0.2,0.8,0.4,1.2,0.6c0.4-0.6,0.8-1.4,1.3-2.2c0.4-0.8,0.7-1.7,0.9-2.7c-1.2-0.7-2.2-1.1-3.2-1.5
					c-1-0.3-2-0.5-3.1-0.7c-1.9-0.3-3.6-0.2-5.2,0.2c-1.6,0.4-2.9,1.2-4.1,2.2c-1.2,1-2.1,2.3-2.9,3.8c-0.8,1.5-1.3,3.2-1.5,5
					c-0.3,1.8-0.3,3.6,0,5.2c0.3,1.6,0.8,3.1,1.7,4.4c0.8,1.3,2,2.3,3.4,3.2c1.4,0.9,3.1,1.4,5,1.7c0.6,0.1,1.1,0.1,1.6,0.2
					c0.5,0,1.1,0.1,1.6,0.1c0.5,0,1.1,0,1.7-0.1c0.6-0.1,1.3-0.2,2-0.4c0-1.8-0.3-3.6-0.8-5.3c-1,0.2-1.8,0.3-2.5,0.3
					c-0.7,0-1.4,0-2.1-0.1c-4.1-0.6-5.8-3.3-5.1-8.2C615.3,491,616.1,489.2,617.3,488.1z"/>
				<path class="st1" d="M637.3,489.8c0.2-0.2,0.4-0.4,0.7-0.5c0.3-0.1,0.6-0.2,0.9-0.2c0.3,0,0.7,0,1.1,0c1.2,0.2,2.2,0.5,3,0.9
					c0.8,0.4,1.4,0.8,2,1.1c0.5-0.7,0.9-1.5,1.3-2.4c0.4-0.9,0.7-1.6,0.9-2.4c-1.2-0.6-2.3-1.1-3.4-1.5c-1.1-0.4-2.2-0.7-3.4-0.8
					c-1.3-0.2-2.5-0.2-3.6,0c-1.1,0.2-2.1,0.5-2.9,1.1c-0.8,0.5-1.5,1.3-2.1,2.2c-0.6,0.9-0.9,1.9-1.1,3.2c-0.1,1-0.1,1.9,0,2.7
					c0.2,0.8,0.4,1.5,0.8,2.1c0.4,0.6,0.9,1.2,1.5,1.7c0.6,0.5,1.3,1,2.1,1.4l1.8,1c0.3,0.2,0.6,0.3,0.8,0.5
					c0.3,0.2,0.5,0.4,0.7,0.6c0.2,0.2,0.4,0.5,0.5,0.8c0.1,0.3,0.1,0.6,0.1,1c-0.1,0.9-0.5,1.4-1.3,1.7c-0.7,0.3-1.7,0.3-2.8,0.1
					c-1.6-0.2-3.4-1-5.3-2.2c-0.5,0.9-0.9,1.8-1.2,2.7c-0.4,0.9-0.7,1.7-0.9,2.5c1.2,0.7,2.3,1.2,3.4,1.6c1.1,0.4,2.3,0.7,3.7,0.9
					c1.6,0.2,3,0.2,4.3,0c1.3-0.2,2.4-0.6,3.3-1.2c0.9-0.6,1.7-1.3,2.3-2.3c0.6-0.9,0.9-2,1.1-3.2c0.2-1.1,0.2-2.1,0-3
					c-0.2-0.8-0.5-1.6-1-2.2c-0.5-0.6-1.1-1.2-1.8-1.7c-0.7-0.5-1.5-1-2.4-1.6l-1.6-0.9c-0.6-0.3-1-0.7-1.4-1.1
					c-0.4-0.4-0.5-0.9-0.4-1.6C637,490.4,637.1,490,637.3,489.8z"/>
				<path class="st1" d="M656.1,492.5c0.2-0.2,0.4-0.4,0.7-0.5c0.3-0.1,0.6-0.2,0.9-0.2c0.3,0,0.7,0,1.1,0c1.2,0.2,2.2,0.5,3,0.9
					c0.8,0.4,1.4,0.8,2,1.1c0.5-0.7,0.9-1.5,1.3-2.4c0.4-0.9,0.7-1.6,0.9-2.4c-1.2-0.6-2.3-1.1-3.4-1.5c-1.1-0.4-2.2-0.7-3.4-0.8
					c-1.3-0.2-2.5-0.2-3.6,0c-1.1,0.2-2.1,0.5-2.9,1.1c-0.8,0.5-1.5,1.3-2.1,2.2c-0.6,0.9-0.9,1.9-1.1,3.2c-0.1,1-0.1,1.9,0,2.7
					c0.2,0.8,0.4,1.5,0.8,2.1c0.4,0.6,0.9,1.2,1.5,1.7c0.6,0.5,1.3,1,2.1,1.4l1.8,1c0.3,0.2,0.6,0.3,0.8,0.5
					c0.3,0.2,0.5,0.4,0.7,0.6c0.2,0.2,0.4,0.5,0.5,0.8c0.1,0.3,0.1,0.6,0.1,1c-0.1,0.9-0.5,1.4-1.3,1.7c-0.7,0.3-1.7,0.3-2.8,0.1
					c-1.6-0.2-3.3-1-5.3-2.2c-0.5,0.9-0.9,1.8-1.2,2.7c-0.4,0.9-0.7,1.7-0.9,2.5c1.2,0.7,2.3,1.2,3.4,1.6c1.1,0.4,2.3,0.7,3.7,0.9
					c1.6,0.2,3,0.2,4.3,0c1.3-0.2,2.4-0.6,3.3-1.2c0.9-0.6,1.7-1.3,2.3-2.3c0.6-0.9,0.9-2,1.1-3.2c0.2-1.1,0.2-2.1,0-3
					c-0.2-0.8-0.5-1.6-1-2.2c-0.5-0.6-1.1-1.2-1.8-1.7c-0.7-0.5-1.5-1-2.4-1.6l-1.6-0.9c-0.6-0.3-1-0.7-1.4-1.1
					c-0.4-0.4-0.5-0.9-0.4-1.6C655.8,493.1,655.9,492.8,656.1,492.5z"/>
			</g>
		</g>
		<g>
			<rect x="37.5" y="239.2" class="st2" width="103.3" height="144.3"/>
			<g>
				<rect x="45" y="247.5" class="st3" width="49.6" height="1.9"/>
				<rect x="45" y="252.2" class="st4" width="15.9" height="1.9"/>
				<rect x="45" y="256.8" class="st5" width="25.6" height="1.9"/>
				<rect x="56.9" y="261.5" class="st4" width="15" height="1.9"/>
				<rect x="56.9" y="266.1" class="st4" width="15" height="1.9"/>
				<rect x="67.3" y="270.8" class="st4" width="14.5" height="1.9"/>
				<rect x="66.2" y="252.2" class="st5" width="27.1" height="1.9"/>
				<rect x="97.2" y="252.2" class="st5" width="12.9" height="1.9"/>
				<rect x="115.1" y="252.2" class="st5" width="17.5" height="1.9"/>
				<rect x="74.9" y="256.8" class="st4" width="15.2" height="1.9"/>
				<rect x="76.4" y="261.5" class="st5" width="8.7" height="1.9"/>
				<rect x="76.4" y="266.1" class="st5" width="15" height="1.9"/>
				<rect x="89.3" y="261.5" class="st5" width="16.6" height="1.9"/>
				<rect x="109.3" y="261.5" class="st5" width="8.7" height="1.9"/>
				<rect x="121.7" y="261.5" class="st5" width="10.8" height="1.9"/>
				<rect x="94.7" y="266.1" class="st5" width="18.9" height="1.9"/>
				<rect x="116.4" y="266.1" class="st5" width="5.6" height="1.9"/>
				<rect x="86" y="270.8" class="st5" width="10.8" height="1.9"/>
				<rect x="56.9" y="280.1" class="st4" width="15" height="1.9"/>
				<rect x="56.9" y="284.7" class="st4" width="15" height="1.9"/>
				<rect x="76.4" y="280.1" class="st5" width="8.7" height="1.9"/>
				<rect x="76.4" y="284.7" class="st5" width="13.5" height="1.9"/>
				<rect x="89.3" y="280.1" class="st5" width="12.8" height="1.9"/>
				<rect x="104.7" y="280.1" class="st5" width="6.7" height="1.9"/>
				<rect x="114.3" y="280.1" class="st5" width="8.3" height="1.9"/>
				<rect x="103" y="284.7" class="st5" width="15" height="1.9"/>
				<rect x="56.9" y="289.4" class="st4" width="15" height="1.9"/>
				<rect x="56.9" y="294" class="st4" width="15" height="1.9"/>
				<rect x="76.4" y="289.4" class="st5" width="8.7" height="1.9"/>
				<rect x="76.4" y="294" class="st5" width="27.4" height="1.9"/>
				<rect x="89.3" y="289.4" class="st5" width="16.6" height="1.9"/>
				<rect x="109.3" y="289.4" class="st5" width="8.7" height="1.9"/>
				<rect x="121.7" y="289.4" class="st5" width="10.8" height="1.9"/>
				<rect x="107.2" y="294" class="st5" width="15.4" height="1.9"/>
				<rect x="92.9" y="284.7" class="st5" width="6.4" height="1.9"/>
				<rect x="45" y="303.3" class="st4" width="15.9" height="1.9"/>
				<rect x="45" y="308" class="st5" width="25.6" height="1.9"/>
				<rect x="56.9" y="312.7" class="st4" width="15" height="1.9"/>
				<rect x="56.9" y="317.3" class="st4" width="15" height="1.9"/>
				<rect x="67.3" y="322" class="st4" width="14.5" height="1.9"/>
				<rect x="66.2" y="303.3" class="st5" width="15" height="1.9"/>
				<rect x="85.1" y="303.3" class="st5" width="7.6" height="1.9"/>
				<rect x="97.6" y="303.3" class="st5" width="24.2" height="1.9"/>
				<rect x="74.9" y="308" class="st4" width="15.2" height="1.9"/>
				<rect x="76.4" y="312.7" class="st5" width="17" height="1.9"/>
				<rect x="76.4" y="317.3" class="st5" width="11.6" height="1.9"/>
				<rect x="97.6" y="312.7" class="st5" width="12.7" height="1.9"/>
				<rect x="91.4" y="317.3" class="st5" width="22.2" height="1.9"/>
				<rect x="116.4" y="317.3" class="st5" width="5.6" height="1.9"/>
				<rect x="86" y="322" class="st5" width="10.8" height="1.9"/>
				<rect x="99.2" y="322" class="st5" width="20.1" height="1.9"/>
				<rect x="122.3" y="322" class="st5" width="6" height="1.9"/>
				<rect x="56.9" y="331.3" class="st4" width="15" height="1.9"/>
				<rect x="56.9" y="335.9" class="st4" width="15" height="1.9"/>
				<rect x="76.4" y="331.3" class="st5" width="24.6" height="1.9"/>
				<rect x="76.4" y="335.9" class="st5" width="13.5" height="1.9"/>
				<rect x="104.7" y="331.3" class="st5" width="6.7" height="1.9"/>
				<rect x="114.3" y="331.3" class="st5" width="8.3" height="1.9"/>
				<rect x="103" y="335.9" class="st5" width="15" height="1.9"/>
				<rect x="92.9" y="335.9" class="st5" width="6.4" height="1.9"/>
				<rect x="45" y="343.5" class="st4" width="15.9" height="1.9"/>
				<rect x="45" y="348.2" class="st5" width="25.6" height="1.9"/>
				<rect x="56.9" y="352.9" class="st4" width="15" height="1.9"/>
				<rect x="56.9" y="357.5" class="st4" width="15" height="1.9"/>
				<rect x="67.3" y="362.2" class="st4" width="14.5" height="1.9"/>
				<rect x="66.2" y="343.5" class="st5" width="15" height="1.9"/>
				<rect x="85.1" y="343.5" class="st5" width="7.6" height="1.9"/>
				<rect x="97.6" y="343.5" class="st5" width="34.9" height="1.9"/>
				<rect x="74.9" y="348.2" class="st4" width="15.2" height="1.9"/>
				<rect x="76.4" y="352.9" class="st5" width="17" height="1.9"/>
				<rect x="76.4" y="357.5" class="st5" width="11.6" height="1.9"/>
				<rect x="97.6" y="352.9" class="st5" width="12.7" height="1.9"/>
				<rect x="113.6" y="352.9" class="st5" width="7.7" height="1.9"/>
				<rect x="125.1" y="352.9" class="st5" width="7.5" height="1.9"/>
				<rect x="91.4" y="357.5" class="st5" width="22.2" height="1.9"/>
				<rect x="116.4" y="357.5" class="st5" width="5.6" height="1.9"/>
				<rect x="86" y="362.2" class="st5" width="10.8" height="1.9"/>
				<rect x="56.9" y="371.5" class="st4" width="15" height="1.9"/>
				<rect x="56.9" y="376.1" class="st4" width="15" height="1.9"/>
				<rect x="76.4" y="371.5" class="st5" width="24.6" height="1.9"/>
				<rect x="76.4" y="376.1" class="st5" width="13.5" height="1.9"/>
				<rect x="104.7" y="371.5" class="st5" width="6.7" height="1.9"/>
				<rect x="114.3" y="371.5" class="st5" width="8.3" height="1.9"/>
				<rect x="103" y="376.1" class="st5" width="15" height="1.9"/>
				<rect x="92.9" y="376.1" class="st5" width="6.4" height="1.9"/>
			</g>
			<rect x="37.5" y="235.1" class="st6" width="103.3" height="8.3"/>
		</g>
		<g>
			<rect x="111.2" y="117" class="st7" width="23.7" height="67.5"/>
			<rect x="142.1" y="117" class="st7" width="23.7" height="67.5"/>
			<rect x="171.1" y="117" class="st7" width="23.7" height="67.5"/>
			
				<rect x="213" y="115.2" transform="matrix(0.9407 -0.3392 0.3392 0.9407 -37.1749 85.0861)" class="st7" width="23.7" height="67.5"/>
			<g>
				<path class="st8" d="M170,110.6v76.7c0,0.6,1.7,1.1,3.9,1.1H192c2.1,0,3.9-0.5,3.9-1.1v-76.7c0-0.6-1.7-1.1-3.9-1.1h-18.1
					C171.8,109.4,170,109.9,170,110.6z M172.5,176.9l0.3-0.5h19.3l0.3,0.5v2.1l-0.3,0.5h-19.3l-0.3-0.5V176.9z M172.5,130.1l0.3-0.5
					h19.3l0.3,0.5v2.1l-0.3,0.5h-19.3l-0.3-0.5V130.1z M172.5,120.7l0.3-0.5h19.3l0.3,0.5v2.1l-0.3,0.5h-19.3l-0.3-0.5V120.7z"/>
				<path class="st9" d="M197.9,115.8l27.8,71.5c0.2,0.6,2,0.4,4-0.4l16.8-6.5c2-0.8,3.4-1.9,3.2-2.4L222,106.4
					c-0.2-0.6-2-0.4-4,0.4l-16.8,6.5C199.1,114.1,197.7,115.2,197.9,115.8z M224.3,176.7l0.1-0.5l18-7l0.4,0.3l0.8,2l-0.1,0.5l-18,7
					l-0.4-0.3L224.3,176.7z M207.3,133l0.1-0.5l18-7l0.4,0.3l0.8,2l-0.1,0.5l-18,7l-0.4-0.3L207.3,133z M203.9,124.3l0.1-0.5l18-7
					l0.4,0.3l0.8,2l-0.1,0.5l-18,7l-0.4-0.3L203.9,124.3z"/>
				<path class="st10" d="M141,110.6v76.7c0,0.6,1.7,1.1,3.9,1.1h18.1c2.1,0,3.9-0.5,3.9-1.1v-76.7c0-0.6-1.7-1.1-3.9-1.1h-18.1
					C142.8,109.4,141,109.9,141,110.6z M143.5,176.9l0.3-0.5h19.3l0.3,0.5v2.1l-0.3,0.5h-19.3l-0.3-0.5V176.9z M143.5,130.1l0.3-0.5
					h19.3l0.3,0.5v2.1l-0.3,0.5h-19.3l-0.3-0.5V130.1z M143.5,120.7l0.3-0.5h19.3l0.3,0.5v2.1l-0.3,0.5h-19.3l-0.3-0.5V120.7z"/>
				<path class="st11" d="M110.2,110.6v76.7c0,0.6,1.7,1.1,3.9,1.1h18.1c2.1,0,3.9-0.5,3.9-1.1v-76.7c0-0.6-1.7-1.1-3.9-1.1H114
					C111.9,109.4,110.2,109.9,110.2,110.6z M112.6,176.9l0.3-0.5h19.3l0.3,0.5v2.1l-0.3,0.5h-19.3l-0.3-0.5V176.9z M112.6,130.1
					l0.3-0.5h19.3l0.3,0.5v2.1l-0.3,0.5h-19.3l-0.3-0.5V130.1z M112.6,120.7l0.3-0.5h19.3l0.3,0.5v2.1l-0.3,0.5h-19.3l-0.3-0.5
					V120.7z"/>
				<rect x="102.8" y="191" class="st12" width="167.8" height="6.1"/>
			</g>
		</g>
		<g>
			<g>
				<rect x="630.4" y="381.3" class="st13" width="47.4" height="20.7"/>
				<rect x="624.4" y="397.1" class="st14" width="59.5" height="4.9"/>
				<path class="st14" d="M735.6,380.1c0,2.7-2.2,4.9-4.9,4.9H577.5c-2.7,0-4.9-2.2-4.9-4.9V270.9c0-2.7,2.2-4.9,4.9-4.9h153.3
					c2.7,0,4.9,2.2,4.9,4.9V380.1z"/>
				<path class="st15" d="M735.6,369.5v-98.6c0-2.7-2.2-4.9-4.9-4.9H577.5c-2.7,0-4.9,2.2-4.9,4.9v98.6H735.6z"/>
				<polygon class="st16" points="579.6,273 579.6,280.7 579.6,365.4 595,365.4 713.2,365.4 728.7,365.4 728.7,280.7 728.7,273 				
					"/>
				<path class="st17" d="M657.9,377.9c0,2.1-1.7,3.8-3.8,3.8c-2.1,0-3.8-1.7-3.8-3.8c0-2.1,1.7-3.8,3.8-3.8
					C656.2,374.2,657.9,375.9,657.9,377.9z"/>
			</g>
			<rect x="584.3" y="278.5" class="st18" width="14.2" height="1.6"/>
			<rect x="591.4" y="281.3" class="st18" width="14.2" height="1.6"/>
			<rect x="591.4" y="303.7" class="st18" width="14.2" height="1.6"/>
			<rect x="591.4" y="284.3" class="st18" width="32.9" height="1.6"/>
			<rect x="591.4" y="287.4" class="st18" width="25.9" height="1.6"/>
			<rect x="584.3" y="292" class="st18" width="27.9" height="1.6"/>
			<rect x="591.4" y="294.8" class="st18" width="51.2" height="1.6"/>
			<rect x="591.4" y="297.8" class="st18" width="32.9" height="1.6"/>
			<rect x="584.3" y="307.7" class="st18" width="27.9" height="1.6"/>
			<rect x="591.4" y="310.5" class="st18" width="51.2" height="1.6"/>
			<rect x="591.4" y="313.4" class="st18" width="32.9" height="1.6"/>
			<rect x="591.4" y="300.9" class="st18" width="44.1" height="1.6"/>
			<rect x="584.3" y="317.8" class="st18" width="14.2" height="1.6"/>
			<rect x="591.4" y="320.6" class="st18" width="14.2" height="1.6"/>
			<rect x="591.4" y="342.9" class="st18" width="14.2" height="1.6"/>
			<rect x="591.4" y="323.5" class="st18" width="32.9" height="1.6"/>
			<rect x="591.4" y="326.7" class="st18" width="25.9" height="1.6"/>
			<rect x="584.3" y="331.2" class="st18" width="27.9" height="1.6"/>
			<rect x="591.4" y="334" class="st18" width="51.2" height="1.6"/>
			<rect x="591.4" y="337" class="st18" width="32.9" height="1.6"/>
			<rect x="584.3" y="346.9" class="st18" width="27.9" height="1.6"/>
			<rect x="591.4" y="349.7" class="st18" width="51.2" height="1.6"/>
			<rect x="591.4" y="352.7" class="st18" width="32.9" height="1.6"/>
			<rect x="591.4" y="340.1" class="st18" width="44.1" height="1.6"/>
		</g>
		<g>
			<g>
				<g>
					<polyline class="st7" points="178.7,567.3 213.5,624.9 159.9,657.6 116.6,585.9 157.5,560.9 					"/>
					<polygon class="st19" points="157.6,560.9 178.7,567.3 166,575 					"/>
				</g>
				<line class="st20" x1="138.2" y1="608.1" x2="178.8" y2="583.3"/>
				<line class="st20" x1="141.8" y1="614" x2="182.4" y2="589.3"/>
				<line class="st20" x1="145.4" y1="620" x2="186" y2="595.3"/>
				<line class="st20" x1="149" y1="626" x2="189.6" y2="601.2"/>
				<line class="st20" x1="152.6" y1="631.9" x2="193.2" y2="607.2"/>
				<line class="st20" x1="156.2" y1="637.9" x2="196.8" y2="613.2"/>
				<polygon class="st21" points="154.1,585.8 133.2,598.6 127.3,588.7 148.2,576 				"/>
			</g>
			<g>
				<g>
					<polyline class="st7" points="248.7,590.8 221.7,652.5 164.2,627.6 197.8,550.8 241.7,569.9 					"/>
					<polygon class="st19" points="241.7,569.9 248.7,590.8 235.1,584.9 					"/>
				</g>
				<line class="st20" x1="192.1" y1="581.2" x2="235.6" y2="600.1"/>
				<line class="st20" x1="189.3" y1="587.6" x2="232.8" y2="606.5"/>
				<line class="st20" x1="186.5" y1="594" x2="230" y2="612.9"/>
				<line class="st20" x1="183.7" y1="600.4" x2="227.3" y2="619.3"/>
				<line class="st20" x1="180.9" y1="606.8" x2="224.5" y2="625.7"/>
				<line class="st20" x1="178.1" y1="613.2" x2="221.7" y2="632.1"/>
				<polygon class="st21" points="219.4,581.4 197,571.7 201.6,561.1 224,570.9 				"/>
			</g>
		</g>
		<g>
			<path class="st22" d="M512.3,600.8h1.1c0,0,0-0.3,0-0.6c0-9.9,8-17.8,17.9-17.8c1.7,0,3.4,0.3,4.9,0.7
				c3.8-10.7,13.9-18.3,25.9-18.3c14.5,0,26.2,11.3,27.1,25.6c13.8,0.1,24.7,11.3,24.7,25.2v0.7c0,13.9-10.7,26.2-24.6,26.2h-30.2
				c-0.1,0-0.2,0-0.3,0c-0.1,0-0.2,0-0.3,0h-46.2c-10.9,0-19.3-9.9-19.3-20.8v-0.7C492.9,610,501.3,600.8,512.3,600.8"/>
			<g>
				<path class="st23" d="M498.6,626.6l-0.1-1.9c0-0.6,0-1.3,0-1.9c0-0.6,0.1-1.3,0.2-1.9c0.1-0.6,0.3-1.3,0.4-1.9
					c0.1-0.6,0.4-1.2,0.6-1.9c0.2-0.6,0.5-1.2,0.8-1.8c0.3-0.6,0.6-1.2,0.9-1.8c0.3-0.6,0.8-1.1,1.1-1.7c0.4-0.5,0.9-1,1.3-1.5
					c0.5-0.5,1-0.9,1.5-1.4c0.5-0.4,1.1-0.8,1.7-1.2c0.6-0.3,1.2-0.7,1.8-1c0.6-0.3,1.3-0.6,1.9-0.8c0.7-0.2,1.3-0.4,2-0.6
					c0.7-0.1,1.4-0.3,2-0.4l2.1-0.2l-0.6,0.1c0.1,0,0.2-0.1,0.3-0.1c0.1,0,0.2-0.1,0,0c0,0-0.1,0.1-0.1,0.1l-0.1,0.1
					c0,0-0.1,0.1-0.1,0.2c0,0.1-0.1,0.1-0.1,0.2c-0.1,0.1-0.1,0.3-0.1,0.5c0,0.2,0,0.1,0,0.1l0,0l0-0.3l0-0.5c0-0.4,0-0.7,0-1.1
					l0.2-1.2c0.1-0.9,0.3-1.6,0.5-2.4c0.2-0.8,0.5-1.5,0.8-2.3c0.4-0.7,0.6-1.5,1.1-2.1l0.6-1c0.2-0.3,0.5-0.6,0.7-1
					c0.5-0.7,1-1.2,1.5-1.8c0.5-0.6,1.2-1.1,1.8-1.6c0.6-0.5,1.3-1,2-1.4l1-0.6c0.4-0.2,0.7-0.3,1.1-0.5c0.7-0.4,1.5-0.6,2.2-0.9
					c0.8-0.3,1.5-0.4,2.3-0.6c0.8-0.1,1.6-0.3,2.4-0.3c0.8,0,1.6-0.1,2.4,0c1.6,0.1,3.2,0.4,4.7,0.9l-2.3,1.2l0.8-2l0.9-1.9
					c0.3-0.6,0.7-1.2,1.1-1.8c0.4-0.6,0.8-1.2,1.2-1.7c0.4-0.6,0.9-1.1,1.4-1.6l1.5-1.5c0.5-0.5,1.1-0.9,1.6-1.4
					c0.6-0.4,1.1-0.8,1.7-1.2c0.6-0.3,1.2-0.7,1.8-1c0.6-0.3,1.2-0.6,1.9-0.9c0.7-0.2,1.3-0.5,2-0.7c0.7-0.2,1.3-0.4,2-0.5
					c0.7-0.1,1.3-0.3,2-0.3c0.7-0.1,1.4-0.2,2-0.2c0.7,0,1.4,0,2,0l2,0.1l-2,0.3c-0.7,0.1-1.3,0.3-1.9,0.4c-0.6,0.1-1.3,0.3-1.9,0.5
					c-0.6,0.2-1.2,0.4-1.9,0.6c-0.6,0.2-1.2,0.5-1.8,0.7c-0.6,0.2-1.1,0.6-1.7,0.9c-0.6,0.3-1.1,0.7-1.6,1c-0.5,0.3-1,0.7-1.5,1.1
					c-0.5,0.4-1,0.8-1.4,1.2l-1.3,1.3l-1.2,1.4c-0.4,0.5-0.7,1-1.1,1.5c-0.3,0.5-0.7,1.1-1,1.6l-0.8,1.7l-0.7,1.7l-0.6,1.8
					c-0.3,0.9-1.3,1.4-2.3,1.2l0,0c-1.3-0.3-2.5-0.5-3.8-0.6c-0.6,0-1.3,0.1-1.9,0.1c-0.6,0-1.3,0.2-1.9,0.3
					c-0.6,0.2-1.2,0.3-1.8,0.5c-0.6,0.2-1.2,0.4-1.8,0.7c-0.3,0.1-0.6,0.3-0.8,0.4l-0.8,0.5c-0.6,0.3-1,0.7-1.5,1.1
					c-0.5,0.4-1,0.8-1.4,1.3c-0.4,0.5-0.9,0.9-1.2,1.4c-0.2,0.3-0.4,0.5-0.6,0.8l-0.5,0.8c-0.4,0.5-0.6,1.1-0.9,1.7
					c-0.2,0.6-0.5,1.2-0.7,1.8c-0.2,0.6-0.4,1.2-0.5,1.8l-0.2,0.9c0,0.3-0.1,0.7-0.1,1.1l0,0.5l0,0.3l0,0.2c0,0.2-0.1,0.4-0.2,0.5
					c-0.1,0.1-0.1,0.2-0.2,0.3c-0.1,0.1-0.1,0.2-0.2,0.2l-0.1,0.1c-0.1,0.1-0.2,0.2-0.2,0.2c-0.5,0.3-0.7,0.4-0.9,0.5
					c-0.2,0.1-0.4,0.2-0.7,0.2c-0.2,0.1-0.3,0.1-0.5,0.1l0,0l-1.7,0l-1.7,0.2c-0.6,0.1-1.1,0.2-1.7,0.4c-0.5,0.2-1.1,0.4-1.6,0.6
					c-0.5,0.2-1,0.5-1.6,0.7l-1.5,0.9c-0.5,0.4-0.9,0.7-1.4,1.1c-0.4,0.4-0.9,0.8-1.3,1.2c-0.4,0.4-0.8,0.9-1.2,1.3
					c-0.3,0.5-0.7,0.9-1,1.5c-0.3,0.5-0.7,1-0.9,1.6c-0.3,0.5-0.6,1.1-0.8,1.6c-0.2,0.6-0.5,1.1-0.7,1.7c-0.2,0.6-0.4,1.2-0.5,1.8
					c-0.1,0.6-0.3,1.2-0.4,1.8L498.6,626.6z"/>
			</g>
			<path class="st24" d="M561.5,604.5c-1.1-0.5-2.6-0.9-4.4-0.9c-5.7,0-9.8,4.7-9.8,9.8c0,3.3,2.1,5.2,4.4,5.2
				c2.5,0,4.4-1.2,5.8-3.6h0.2c-0.1,2.5,1.4,3.6,3,3.6c3.9,0,7.3-3.6,7.3-9.8c0-6.9-4.8-11.9-12-11.9c-9.1,0-15,7.3-15,15.8
				c0,7.9,5.7,12.9,12.5,12.9c2.8,0,5.1-0.5,7.3-1.7l-0.7-1.8c-1.7,0.9-3.9,1.4-6.2,1.4c-6.1,0-10.6-4.2-10.6-11.1
				c0-8.4,5.6-13.7,12.4-13.7c6.4,0,10,4.3,10,10.3c0,4.8-2.3,7.6-4.4,7.5c-1.4,0-1.9-1.5-1.2-4.6L561.5,604.5z M557.8,610.8
				c-0.5,2.6-2.6,5.6-5,5.6c-1.8,0-2.7-1.3-2.7-3.1c0-4,2.9-7.4,6.5-7.4c0.9,0,1.6,0.2,2.1,0.3L557.8,610.8z"/>
		</g>
	</g>
	<g>
		<polygon class="st0" points="421.5,343.6 421.5,343.6 421.5,343.6 		"/>
		<path class="st25" d="M316.2,338.6c0,7.4-6,13.3-13.3,13.3c-7.4,0-13.3-6-13.3-13.3c0-7.4,6-13.3,13.3-13.3
			C310.3,325.3,316.2,331.3,316.2,338.6"/>
		<path class="st25" d="M456.3,338.6c0,7.4-6,13.3-13.3,13.3c-7.4,0-13.3-6-13.3-13.3c0-7.4,6-13.3,13.3-13.3
			C450.4,325.3,456.3,331.3,456.3,338.6"/>
		<g>
			<g>
				<g>
					<path class="st26" d="M422.7,474.2c3.4-0.2,6.7-1.4,10-2.3c3.7-1,7.5-1,11.2-1.9c0.2-0.1,0.1-0.4-0.1-0.3
						c-3.6,0.7-7.2,0.8-10.8,1.7C429.6,472.3,426.2,473.3,422.7,474.2C422.7,474.1,422.7,474.2,422.7,474.2L422.7,474.2z"/>
				</g>
			</g>
			<g>
				<g>
					<path class="st26" d="M424.7,474c-0.2,0.5-0.1,1.2,0.2,1.7c0,0.1,0.2,0.1,0.2,0c0.1-0.5,0-1.2-0.2-1.6
						C424.8,473.9,424.7,473.9,424.7,474L424.7,474z"/>
				</g>
			</g>
			<g>
				<g>
					<path class="st26" d="M425.8,473.6c-0.2,0.5-0.1,1.5,0.3,1.9c0.1,0.1,0.2,0.1,0.2,0c0.1-0.3,0.1-0.5,0-0.8
						c-0.1-0.4-0.1-0.8-0.3-1.1C426.1,473.5,425.9,473.4,425.8,473.6L425.8,473.6z"/>
				</g>
			</g>
			<g>
				<g>
					<path class="st26" d="M427.4,473.2c0.1,0.6,0.2,1.3,0.5,1.8c0,0,0.1,0,0.1,0C427.9,474.3,427.7,473.7,427.4,473.2
						C427.5,473.1,427.4,473.1,427.4,473.2L427.4,473.2z"/>
				</g>
			</g>
			<g>
				<g>
					<path class="st26" d="M428.8,473c0,0.6,0.2,1.4,0.6,1.9c0.1,0.1,0.2,0,0.2-0.1c0.1-0.6-0.2-1.3-0.5-1.9
						C429.1,472.7,428.8,472.8,428.8,473L428.8,473z"/>
				</g>
			</g>
			<g>
				<g>
					<path class="st26" d="M430.2,472.4c-0.1,0.4,0.1,0.8,0.2,1.2c0.1,0.4,0.2,0.8,0.6,1c0.1,0.1,0.2,0,0.2-0.1
						c0-0.4-0.1-0.8-0.3-1.2c-0.1-0.3-0.2-0.7-0.4-1C430.4,472.3,430.2,472.3,430.2,472.4L430.2,472.4z"/>
				</g>
			</g>
			<g>
				<g>
					<path class="st26" d="M431.4,472.1c0,0.4,0.1,0.7,0.3,1.1c0.1,0.3,0.1,0.7,0.4,0.9c0.1,0.1,0.2,0,0.3-0.1
						c0.1-0.4-0.1-0.7-0.2-1.1c-0.1-0.3-0.3-0.7-0.5-1C431.5,472,431.4,472.1,431.4,472.1L431.4,472.1z"/>
				</g>
			</g>
			<g>
				<g>
					<path class="st26" d="M433.1,471.8c-0.2,0.4-0.1,0.8,0,1.2c0.1,0.4,0.2,1,0.5,1.2c0.1,0.1,0.2,0,0.2-0.1
						c0.1-0.4-0.1-0.8-0.2-1.1c-0.1-0.4-0.2-0.8-0.4-1.2C433.2,471.8,433.1,471.8,433.1,471.8L433.1,471.8z"/>
				</g>
			</g>
			<g>
				<g>
					<path class="st26" d="M434.4,471.5c0,0.5,0.2,0.9,0.3,1.4c0.1,0.4,0.2,0.9,0.5,1.2c0.1,0.1,0.2,0,0.2-0.1
						c0.1-0.4-0.2-0.8-0.3-1.2c-0.1-0.4-0.3-0.9-0.5-1.3C434.5,471.3,434.4,471.4,434.4,471.5L434.4,471.5z"/>
				</g>
			</g>
			<g>
				<g>
					<path class="st26" d="M435.6,471.4c0.2,0.7,0.4,1.3,0.7,1.9c0,0.1,0.1,0,0.1,0c0-0.7-0.3-1.3-0.6-2
						C435.8,471.2,435.6,471.3,435.6,471.4L435.6,471.4z"/>
				</g>
			</g>
			<g>
				<g>
					<path class="st26" d="M436.9,471.2c-0.1,0.4,0.1,0.7,0.2,1.1c0.1,0.4,0.2,0.8,0.5,1.1c0,0,0.1,0,0.1,0c0.2-0.7-0.2-1.7-0.7-2.2
						C437,471.1,436.9,471.1,436.9,471.2L436.9,471.2z"/>
				</g>
			</g>
			<g>
				<g>
					<path class="st26" d="M438.3,471.1c0.2,0.7,0.5,1.4,0.9,2c0,0.1,0.2,0,0.1-0.1c-0.2-0.7-0.6-1.4-0.9-2
						C438.4,470.9,438.3,471,438.3,471.1L438.3,471.1z"/>
				</g>
			</g>
			<g>
				<g>
					<path class="st26" d="M439.5,470.8c0.1,0.4,0.2,0.8,0.3,1.2c0.1,0.3,0.1,0.7,0.4,0.9c0,0.1,0.1,0,0.2,0
						c0.3-0.7-0.3-1.6-0.7-2.2C439.6,470.7,439.5,470.7,439.5,470.8L439.5,470.8z"/>
				</g>
			</g>
			<g>
				<g>
					<path class="st26" d="M440.7,470.6c0,0.6,0.2,1.5,0.7,1.9c0.1,0.1,0.2,0,0.2-0.1c0-0.4-0.2-0.7-0.3-1c-0.1-0.3-0.3-0.6-0.4-0.9
						C440.9,470.5,440.7,470.5,440.7,470.6L440.7,470.6z"/>
				</g>
			</g>
			<g>
				<g>
					<path class="st26" d="M441.8,470.3c0.1,0.4,0.2,0.8,0.3,1.2c0.1,0.3,0,0.7,0.3,1c0,0,0.1,0,0.1,0c0.2-0.3,0-0.7-0.1-1
						C442.3,471.1,442.1,470.7,441.8,470.3C441.8,470.2,441.8,470.3,441.8,470.3L441.8,470.3z"/>
				</g>
			</g>
			<g>
				<g>
					<path class="st26" d="M443.2,470.3c-0.3,0.7,0,1.7,0.3,2.3c0.1,0.1,0.2,0.1,0.2,0c0.1-0.4,0.1-0.7,0-1.1
						c-0.1-0.4-0.2-0.8-0.3-1.2C443.4,470.2,443.3,470.2,443.2,470.3L443.2,470.3z"/>
				</g>
			</g>
		</g>
		<g>
			<g>
				<g>
					<path class="st26" d="M302.5,470.1c-0.2,0.3-0.3,0.7-0.4,1c-0.1,0.4-0.3,0.7-0.3,1.1c0,0.1,0.1,0.2,0.2,0.1
						c0.3-0.3,0.3-0.7,0.5-1.1C302.6,470.8,302.7,470.5,302.5,470.1C302.6,470,302.6,470,302.5,470.1L302.5,470.1z"/>
				</g>
			</g>
			<g>
				<g>
					<path class="st26" d="M304,470.6c-0.1,0.4-0.2,0.8-0.2,1.2c-0.1,0.3-0.2,0.6,0,0.9c0,0.1,0.2,0.1,0.2,0.1
						c0.3-0.2,0.3-0.6,0.3-0.9c0-0.4,0.1-0.9,0-1.3C304.3,470.4,304.1,470.4,304,470.6L304,470.6z"/>
				</g>
			</g>
			<g>
				<g>
					<path class="st26" d="M305.8,470.8c-0.1,0.3-0.1,0.8-0.1,1.1c-0.1,0.4-0.3,0.8-0.2,1.2c0,0.1,0.2,0.2,0.3,0.1
						c0.4-0.3,0.4-1,0.5-1.4c0-0.3,0.1-1-0.3-1.1C305.9,470.7,305.9,470.7,305.8,470.8L305.8,470.8z"/>
				</g>
			</g>
			<g>
				<g>
					<path class="st26" d="M307.5,471.2c-0.1,0.3,0,0.8,0,1.2c0,0.4-0.2,0.8,0,1.1c0,0,0.1,0.1,0.2,0c0.4-0.2,0.3-0.9,0.3-1.3
						c0-0.3,0-0.9-0.4-1C307.6,471.1,307.5,471.1,307.5,471.2L307.5,471.2z"/>
				</g>
			</g>
			<g>
				<g>
					<path class="st26" d="M310,471.7c-0.2,0.3-0.2,0.6-0.3,0.9c0,0.3-0.2,0.7,0,0.9c0.1,0.1,0.1,0.1,0.2,0.1
						c0.3-0.2,0.3-0.4,0.3-0.7c0-0.4,0.1-0.7,0-1.1C310.2,471.7,310,471.7,310,471.7L310,471.7z"/>
				</g>
			</g>
			<g>
				<g>
					<path class="st26" d="M311.5,471.8c-0.1,0.4-0.1,0.8-0.2,1.2c-0.1,0.4-0.2,0.7-0.2,1.1c0,0.2,0.3,0.2,0.4,0
						c0.3-0.7,0.4-1.6,0.4-2.3C311.8,471.7,311.6,471.6,311.5,471.8L311.5,471.8z"/>
				</g>
			</g>
			<g>
				<g>
					<path class="st26" d="M313.8,471.8c-0.4,0.8-0.5,1.8-0.6,2.7c0,0.3,0.5,0.4,0.6,0.1c0.2-0.9,0.3-1.9,0.2-2.7
						C314.1,471.7,313.9,471.7,313.8,471.8L313.8,471.8z"/>
				</g>
			</g>
			<g>
				<g>
					<path class="st26" d="M315.9,472.3c-0.1,0.4-0.1,0.8-0.2,1.2c0,0.4-0.1,0.9,0,1.2c0,0.1,0.1,0.1,0.2,0.1
						c0.3-0.3,0.2-0.7,0.2-1.1c0-0.5,0-0.9-0.1-1.4C316,472.3,315.9,472.3,315.9,472.3L315.9,472.3z"/>
				</g>
			</g>
			<g>
				<g>
					<path class="st26" d="M317.7,472.8c-0.2,0.5-0.2,1-0.3,1.5c-0.1,0.4-0.2,0.8-0.1,1.2c0,0.1,0.2,0.1,0.2,0.1
						c0.6-0.6,0.6-2,0.4-2.8C317.9,472.7,317.7,472.7,317.7,472.8L317.7,472.8z"/>
				</g>
			</g>
			<g>
				<g>
					<path class="st26" d="M319.2,473.2c-0.1,0.4-0.1,0.8-0.1,1.2c0,0.4-0.2,0.8-0.1,1.2c0,0.1,0.1,0.1,0.2,0.1
						c0.3-0.3,0.3-0.7,0.4-1.1c0-0.5,0-0.9-0.1-1.4C319.4,473,319.2,473,319.2,473.2L319.2,473.2z"/>
				</g>
			</g>
			<g>
				<g>
					<path class="st26" d="M321,473.7c-0.2,0.4-0.2,0.8-0.3,1.2c-0.1,0.3-0.2,0.7-0.1,1c0,0.1,0.1,0.1,0.2,0.1
						c0.6-0.4,0.5-1.6,0.5-2.2C321.3,473.5,321.1,473.5,321,473.7L321,473.7z"/>
				</g>
			</g>
			<g>
				<g>
					<path class="st26" d="M300.7,469.9c3.4,0.8,7,1.4,10.5,2c3.6,0.6,7.2,0.8,10.7,2c0.3,0.1,0.4-0.3,0.1-0.4
						c-3.7-1.4-7.7-1.6-11.5-2.3C307.4,470.6,303.9,469.1,300.7,469.9C300.7,469.8,300.7,469.9,300.7,469.9L300.7,469.9z"/>
				</g>
			</g>
		</g>
		<path class="st27" d="M412.8,413.1c-9.6-2.1-24.4-4.7-39.8-4.7c-15.4,0-30.3,2.6-39.9,4.7c-6.1,1.3-10.9,7.8-10.9,14v101.5h101.6
			V427.2C423.7,421,418.8,414.5,412.8,413.1"/>
		<g>
			<path class="st25" d="M419.9,489c-8.9-5.5-39.1-5-48.7-1c-0.2,0-0.4-0.1-0.6-0.1c-13.3,0.5-29.9,0.4-42.3,7
				c2-5.9,2.4-20.7,1-21.3c-5.3-1.9-11.1-2-16.5-3.5c-3.8-1.1-8.7-1.9-11.6,1.6c-1,1.2-1.3,3-1.5,4.5c-0.5,3.6-1.2,7.1-1.8,10.7
				c-1.2,7.1-2,14.3-2.3,21.6c0,0.1,0,0.3,0,0.4c0,0.2,0,0.4,0,0.6c2.2,17.4,39.7,6,40,5.9c20.1-6.6,40.1-13.7,61.2-16.6
				c0.1,0,0.2,0.1,0.3,0.1c2.8,0.4,24,1,25.5-2.3C423.9,493.7,422.6,490.7,419.9,489z"/>
			<g id="XMLID_1_">
				<g>
					<path class="st25" d="M401,492c3.2,1.5,2,2.6,0,3c-0.3-0.4-0.8-0.6-1.5-0.5c-17.6,2-34.4,7.1-51.1,12.5
						c0-1.4-46.6,20.6-48.9,2.5c0-0.2-0.1-0.3-0.1-0.4c0-0.2,0.1-0.4,0.1-0.6c0.5-10.1,2.5-19.8,3.7-29.8c0.9-7.1,6.1-5.3,11.2-3.8
						c3.9,1.1,7.9,1.2,11.8,2.2c1.3,7.5-0.7,14.9-3.8,21.9c-0.7,0.5-2.5,5.2-2.7,5.6c-1.2,2.3,2.3,4.3,3.5,2
						c0.9-1.7,1.7-3.4,2.5-5.1c11.5-9.1,29.7-8.9,43.7-9.3c0.6,0.4,1.3,0.6,2.1,0.2c6.1-3,13-3.3,19.7-2.7
						C394.5,489.8,398.1,490.6,401,492z"/>
				</g>
				<g>
				</g>
			</g>
			<g id="XMLID_2_">
				<g>
					<path class="st25" d="M448.1,500c0,0.2,0,0.4-0.1,0.5c0,0.1,0.1,0.3,0.1,0.5c-0.1,35.9-61.4,2.7-78,3.5c-0.4,0-0.8-0.1-1.1-0.3
						c-2.5-0.1-2.5-4,0.1-4c6,0,11.6-0.4,17.2-2.6c4.8-1.9,9.9-3.4,15-4.5c4.3-0.9,9.1-1.7,13.4-0.4c2.5,0.7,5,2.1,7.7,1.8
						c0.1,0,0.1,0,0.2,0c-3-4.7-7.3-18.1-5.8-18.9c0.7-0.4,1.4-1.4,2.3-1.6c1.7-0.5,3.7-0.4,5.5-0.8c3-0.6,6.1-1.1,9.1-1.8
						c3.2-0.6,7.6-2.9,9.6,0c1.9,2.6,2.9,8.5,3.4,11.3C447.5,488.4,448,494.2,448.1,500z M444.1,500.5c0-0.2-0.1-0.3-0.1-0.5
						c0-4,0-26.7-5.7-25.5c-3.6,0.7-7.3,1.5-10.9,2.2c-2.4,0.5-4.6,0.7-6.8,1.5c1.1,5.9,3,11.7,6.8,16.4c0.1,0,0.2,0,0.3,0
						c2.4,0.4,1.5,4-0.8,3.9c-0.5,0.2-1,0.2-1.4-0.1c-2.4-0.1-4.7,0.7-7-0.1c-2.5-0.9-5.3-2.1-8-2.1c-5.3,0-10.2,1.3-15.2,2.6
						c-4.2,1.1-8.2,3.2-12.5,4.2c22.5,6.4,61.1,21.4,61.1-2C444.1,500.8,444.1,500.6,444.1,500.5z"/>
					<path class="st25" d="M444.1,500c0,0.2,0,0.3,0.1,0.5c0,0.2-0.1,0.3-0.1,0.5c-0.1,23.4-38.6,8.4-61.1,2c4.2-1,8.2-3.1,12.5-4.2
						c5.1-1.3,10-2.6,15.2-2.6c2.7,0,5.4,1.2,8,2.1c2.3,0.8,4.7,0,7,0.1c0.5,0.3,1,0.3,1.4,0.1c2.3,0.1,3.2-3.5,0.8-3.9
						c-0.1,0-0.2,0-0.3,0c-3.8-4.7-5.7-10.6-6.8-16.4c2.1-0.8,4.3-1,6.8-1.5c3.6-0.7,7.3-1.5,10.9-2.2
						C444.1,473.3,444,496,444.1,500z"/>
				</g>
				<g>
				</g>
			</g>
			<path class="st25" d="M371.6,488c-1.9-0.7-13.9-2.2-15.8-2.6c-0.2-0.4-18.4-0.9-25.7,2.1c-1.1,0.5-1.5,1.6-1.3,2.6l-3.2,5.7
				l32.8-5.4l-0.2-0.2c0.8,0.2,11.6,1.5,12.3,1.7C373,492.8,374,489,371.6,488z"/>
		</g>
		<path class="st10" d="M425.4,420.2c-2-2.3-4.5-4.2-7.5-5.4c-2.9-1.1-6-1.5-8.7-0.9c-1.3,0.2-2.4,0.7-3.4,1.4
			c-0.9,0.6-1.7,1.3-2.3,2.2c-1.2,1.7-1.7,3.6-1.7,5.6c0,4,3.1,18.5,3.9,19.9c1.6,2.8,3.5,7.5,5.1,12.6c1.6,5.1,2.9,10.6,3.7,14.8
			c0.9,4.2,1.3,7,1.3,7l28.7-5c0,0-0.5-3.1-1.5-7.9c-1-4.7-2.4-11.1-4.4-17.5c-2-6.4-4.6-13-7.5-18.1c-1.4-2.5-2.9-4.7-4-6.2
			c-0.5-0.8-1.1-1.4-1.4-1.8C425.6,420.4,425.4,420.2,425.4,420.2"/>
		<path class="st10" d="M343.1,423c0-2-0.5-3.9-1.7-5.6c-0.6-0.9-1.4-1.6-2.3-2.2c-1-0.6-2.1-1.1-3.4-1.4c-2.6-0.6-5.7-0.2-8.7,0.9
			c-3,1.2-5.5,3.1-7.5,5.4c0,0-0.2,0.2-0.5,0.6c-0.3,0.4-0.9,1-1.4,1.8c-1.1,1.5-2.6,3.7-4,6.2c-2.9,5.1-5.5,11.7-7.5,18.1
			c-2,6.4-3.5,12.8-4.4,17.5c-1,4.7-1.5,7.9-1.5,7.9l30.7,5c0,0,0.1-2.5,0.3-7c0.2-4.2,1.1-9.6,2.7-14.8
			C335.6,450.5,343.1,427,343.1,423z"/>
		<g>
			<g>
				<g>
					<path class="st26" d="M347.3,410.4c-3.3,5.8,1.8,12.4,6.3,15.8c5.4,4.1,12.4,6.9,19.1,7.4c6.7,0.5,12.8-2.1,17.9-6.3
						c4.5-3.7,10.1-10.1,8.5-16.5c-0.2-0.6-1.1-0.4-1,0.3c1,6.7-4.5,12.6-9.5,16.3c-4.6,3.4-9.9,5.4-15.6,5.1c-6-0.4-12-2.7-17-5.9
						c-2.6-1.7-5-3.8-6.7-6.4c-2-3.1-2.2-6.1-1.6-9.7C347.8,410.3,347.4,410.1,347.3,410.4L347.3,410.4z"/>
				</g>
			</g>
			<g>
				<g>
					<path class="st26" d="M347.2,412.9c1,0.2,2.2-0.1,3-0.7c0.1-0.1,0.1-0.3-0.1-0.3c-0.5,0-0.9,0.2-1.3,0.3
						c-0.5,0.2-1,0.3-1.6,0.3C347,412.6,347,412.9,347.2,412.9L347.2,412.9z"/>
				</g>
			</g>
			<g>
				<g>
					<path class="st26" d="M347.3,415.6c0.6,0.1,1.1-0.1,1.7-0.2c0.6-0.2,1.1-0.3,1.6-0.6c0.1-0.1,0.1-0.3-0.1-0.3
						c-0.6,0-1.1,0.2-1.6,0.3c-0.6,0.2-1.1,0.4-1.7,0.6C347.2,415.4,347.2,415.6,347.3,415.6L347.3,415.6z"/>
				</g>
			</g>
			<g>
				<g>
					<path class="st26" d="M347.8,417.7c0.5,0.1,1.1-0.1,1.6-0.3c0.6-0.3,1.2-0.6,1.7-1c0.1-0.1,0-0.3-0.1-0.3
						c-0.5,0.1-1,0.4-1.5,0.6c-0.5,0.3-1.2,0.5-1.7,0.8C347.7,417.5,347.7,417.7,347.8,417.7L347.8,417.7z"/>
				</g>
			</g>
			<g>
				<g>
					<path class="st26" d="M349.5,420c0.5-0.2,1-0.5,1.5-0.7c0.5-0.3,0.9-0.6,1.2-1c0.1-0.2-0.1-0.3-0.2-0.3c-0.5,0.1-1,0.4-1.5,0.7
						c-0.4,0.3-0.9,0.5-1.3,0.9C349.1,419.7,349.3,420.1,349.5,420L349.5,420z"/>
				</g>
			</g>
			<g>
				<g>
					<path class="st26" d="M350.7,422.5c0.7-0.5,1.3-0.9,2-1.4c0.5-0.4,1.2-0.8,1.6-1.3c0.1-0.1-0.1-0.3-0.2-0.3
						c-0.7,0.2-1.2,0.7-1.7,1.2c-0.7,0.5-1.2,1.1-1.8,1.7C350.6,422.5,350.7,422.6,350.7,422.5L350.7,422.5z"/>
				</g>
			</g>
			<g>
				<g>
					<path class="st26" d="M352.6,424.5c0.7-0.4,1.3-0.9,2-1.4c0.5-0.4,1.1-0.8,1.4-1.4c0.1-0.1-0.1-0.2-0.2-0.2
						c-0.6,0.3-1.1,0.8-1.7,1.2c-0.6,0.5-1.2,0.9-1.7,1.5C352.4,424.4,352.5,424.6,352.6,424.5L352.6,424.5z"/>
				</g>
			</g>
			<g>
				<g>
					<path class="st26" d="M354.7,425.9c0.6-0.3,1.1-0.8,1.6-1.2c0.5-0.5,1-1,1.2-1.6c0.1-0.2-0.2-0.3-0.3-0.2c-0.6,0.4-1,1-1.4,1.5
						C355.4,424.8,354.9,425.2,354.7,425.9C354.6,425.9,354.7,425.9,354.7,425.9L354.7,425.9z"/>
				</g>
			</g>
			<g>
				<g>
					<path class="st26" d="M357.3,427.6c0.5-0.5,0.9-1.1,1.3-1.6c0.4-0.6,0.9-1.2,1.1-1.9c0.1-0.2-0.2-0.3-0.3-0.2
						c-0.5,0.5-0.9,1.2-1.4,1.8c-0.4,0.6-0.9,1.1-1,1.8C357.1,427.6,357.2,427.6,357.3,427.6L357.3,427.6z"/>
				</g>
			</g>
			<g>
				<g>
					<path class="st26" d="M360.2,428.8c0.4-0.6,0.7-1.3,1-1.9c0.2-0.5,0.5-1,0.6-1.6c0-0.2-0.2-0.2-0.3-0.1c-0.4,0.5-0.7,1.2-1,1.8
						c-0.3,0.6-0.5,1.2-0.5,1.8C359.9,428.9,360.1,428.9,360.2,428.8L360.2,428.8z"/>
				</g>
			</g>
			<g>
				<g>
					<path class="st26" d="M363,430.2c0.5-0.3,0.6-1,0.8-1.5c0.3-0.7,0.5-1.4,0.6-2.1c0-0.2-0.3-0.2-0.3-0.1
						c-0.3,0.6-0.5,1.2-0.7,1.8c-0.2,0.6-0.5,1.2-0.5,1.8C362.8,430.2,362.9,430.3,363,430.2L363,430.2z"/>
				</g>
			</g>
			<g>
				<g>
					<path class="st26" d="M366.3,431c0.2-0.7,0.3-1.3,0.5-2c0.2-0.6,0.5-1.2,0.4-1.9c0-0.2-0.2-0.2-0.3-0.1
						c-0.4,0.6-0.6,1.4-0.7,2.1c-0.1,0.6-0.2,1.3-0.1,1.9C366.1,431.1,366.3,431.1,366.3,431L366.3,431z"/>
				</g>
			</g>
			<g>
				<g>
					<path class="st26" d="M369.7,432.1c0.4-1.6,0.4-3.7-0.1-5.2c0-0.2-0.3-0.1-0.3,0c0,0.9,0,1.9,0,2.8c0,0.8-0.1,1.6,0.1,2.4
						C369.5,432.3,369.7,432.3,369.7,432.1L369.7,432.1z"/>
				</g>
			</g>
			<g>
				<g>
					<path class="st26" d="M373.5,432.4c0.2-0.7,0.2-1.4,0.2-2.1c0-0.7,0.1-1.5-0.1-2.2c-0.1-0.2-0.3-0.2-0.4,0
						c-0.2,0.7-0.2,1.5-0.1,2.2c0,0.7,0,1.4,0.2,2.1C373.2,432.6,373.4,432.6,373.5,432.4L373.5,432.4z"/>
				</g>
			</g>
			<g>
				<g>
					<path class="st26" d="M376.8,432.5c0.3-1.7-0.3-3.6-0.7-5.2c0-0.2-0.3-0.2-0.4,0c-0.3,1.7,0.4,3.5,0.8,5.2
						C376.6,432.6,376.8,432.6,376.8,432.5L376.8,432.5z"/>
				</g>
			</g>
			<g>
				<g>
					<path class="st26" d="M381.7,430.5c-0.2-0.8-0.5-1.5-0.9-2.3c-0.3-0.6-0.5-1.3-1-1.8c-0.1-0.1-0.5-0.1-0.4,0.2
						c0.1,0.7,0.4,1.4,0.7,2.1c0.3,0.7,0.6,1.4,1,2C381.4,431,381.8,430.9,381.7,430.5L381.7,430.5z"/>
				</g>
			</g>
			<g>
				<g>
					<path class="st26" d="M384.9,430.1c-0.2-0.8-0.7-1.5-1.2-2.2c-0.5-0.8-0.9-1.6-1.5-2.4c-0.1-0.2-0.4-0.1-0.4,0.1
						c0,1.7,1.7,3.6,2.9,4.6C384.8,430.2,384.9,430.2,384.9,430.1L384.9,430.1z"/>
				</g>
			</g>
			<g>
				<g>
					<path class="st26" d="M388.4,427.5c-0.3-0.6-0.7-1.2-1-1.8c-0.3-0.6-0.6-1.1-1.1-1.5c-0.1-0.1-0.3,0-0.3,0.2
						c0.3,1.2,1.2,2.6,2.2,3.4C388.3,427.9,388.4,427.7,388.4,427.5L388.4,427.5z"/>
				</g>
			</g>
			<g>
				<g>
					<path class="st26" d="M390.6,426c-0.1-0.6-0.7-1.2-1-1.6c-0.4-0.5-0.7-1-1.3-1.3c-0.2-0.1-0.3,0.1-0.2,0.2
						c0.3,0.6,0.8,1.2,1.2,1.8c0.3,0.4,0.7,1,1.2,1.2C390.5,426.3,390.7,426.2,390.6,426L390.6,426z"/>
				</g>
			</g>
			<g>
				<g>
					<path class="st26" d="M392.6,424.4c-0.1-0.6-0.5-1.1-0.9-1.6c-0.5-0.6-1-1.3-1.7-1.7c-0.2-0.1-0.4,0.1-0.3,0.2
						c0.2,0.7,0.9,1.3,1.3,1.8c0.5,0.5,0.9,1,1.4,1.4C392.4,424.5,392.6,424.5,392.6,424.4L392.6,424.4z"/>
				</g>
			</g>
			<g>
				<g>
					<path class="st26" d="M394.9,421.8c-0.1-0.6-0.6-1.1-1-1.5c-0.4-0.4-1-0.9-1.5-1.1c-0.2-0.1-0.3,0.2-0.2,0.3
						c0.3,0.5,0.8,0.9,1.3,1.3c0.4,0.4,0.9,0.8,1.4,1.1C394.9,422,395,421.9,394.9,421.8L394.9,421.8z"/>
				</g>
			</g>
			<g>
				<g>
					<path class="st26" d="M396.4,418.9c-0.3-0.2-0.6-0.3-0.8-0.4c-0.4-0.2-0.7-0.4-1-0.7c-0.5-0.4-0.9-0.9-1.5-1.2
						c-0.2-0.1-0.4,0.1-0.3,0.3c0.3,0.7,0.9,1.3,1.5,1.7c0.5,0.4,1.4,0.9,2,0.6C396.5,419.2,396.5,419,396.4,418.9L396.4,418.9z"/>
				</g>
			</g>
			<g>
				<g>
					<path class="st26" d="M397.7,417.2c-1-1-2.4-1.7-3.7-2.2c-0.2,0-0.2,0.1-0.1,0.3c0.9,1,2.5,1.5,3.7,2.1
						C397.6,417.6,397.8,417.4,397.7,417.2L397.7,417.2z"/>
				</g>
			</g>
			<g>
				<g>
					<path class="st26" d="M398.2,414.3c-0.6-0.2-1.2-0.4-1.8-0.6c-0.5-0.2-1.1-0.5-1.7-0.5c-0.2,0-0.3,0.2-0.2,0.4
						c0.5,0.4,1.1,0.5,1.7,0.7c0.6,0.2,1.3,0.3,2,0.3C398.4,414.6,398.4,414.4,398.2,414.3L398.2,414.3z"/>
				</g>
			</g>
			<g>
				<g>
					<path class="st26" d="M395.6,411.5c0.5,0.7,2,0.8,2.8,0.8c0.2,0,0.3-0.3,0.1-0.3c-0.8-0.5-1.9-0.5-2.8-0.5
						C395.6,411.4,395.6,411.5,395.6,411.5L395.6,411.5z"/>
				</g>
			</g>
		</g>
		<path class="st25" d="M393.9,398.8l1.6,13.7c0,0-3.9,15-22.6,15c-18.7,0-22.6-15-22.6-15l1.6-13.7H393.9z"/>
		<path class="st28" d="M394.1,404.4c0,0-6.7,3.3-21.1,3.3c-14.4,0-21.3-3.3-21.3-3.3s11.4-2.4,21.3-2.4
			C382.8,401.9,394.1,404.4,394.1,404.4"/>
		<path class="st25" d="M391.5,227.1h-37.2c-50.7,0-51.5,94.4-51.5,94.4v25.4c0,32.2,26.1,58.3,58.3,58.3h23.6
			c32.2,0,58.3-26.1,58.3-58.3l0-25.3C443,321.5,442.3,227.1,391.5,227.1"/>
		<path class="st29" d="M344.7,340.1c0,4-3.2,7.3-7.3,7.3c-4,0-7.3-3.2-7.3-7.3V337c0-4,3.2-7.3,7.3-7.3c4,0,7.3,3.2,7.3,7.3V340.1z
			"/>
		<path class="st29" d="M417.6,340.1c0,4-3.3,7.3-7.3,7.3c-4,0-7.3-3.2-7.3-7.3V337c0-4,3.2-7.3,7.3-7.3c4,0,7.3,3.2,7.3,7.3V340.1z
			"/>
		<g>
			<path class="st30" d="M459,298.2c-1.9,0.9-3.6,2.1-5.8,1.8c-1.9-0.3-3.4-1.7-4.7-2.9c-1.1-1.1-2-2.4-2.9-3.7
				c-0.7-1.9-1.4-3.9-2.1-5.8c0.6-2.7,0.5-5.6,0.1-8.4c0.2,0.5,0.4,1,0.7,1.4c0.2,0.5,1,0.1,0.8-0.3c-1-3.4-1.9-6.7-2.8-10
				c-0.6-3.4-1.3-6.7-2.3-9.9c2.1,0.2,4.2-0.7,5.9-3c0.3-0.5-0.3-1-0.7-0.7c-2.1,1.3-4.2,1.6-6.1,1.2c-0.6-1.5-1.3-3-2.1-4.6
				c-1.3-3.5-2.8-6.8-4.6-10.2c-1.2-3-2.7-5.9-4.7-8.8c1.3,1.1,2.6,2.2,3.9,3.2c0.7,0.5,1.5-0.3,0.9-0.9c-2.8-3.5-6.7-7.5-11.1-9.9
				c-6-6.2-13.2-10.9-21-14.1c2.3,0.2,4.7,0.4,7,0.6c0.8,0.1,0.9-1.2,0.2-1.4c-5.4-1.7-11.1-2.5-16.8-2.1c-3-0.7-6.1-1.2-9.3-1.4
				c-2.6-0.2-5.4-0.3-8.3-0.2c2.1-0.7,4.2-1.3,6.3-1.9c0.5-0.1,0.3-0.8-0.2-0.7c-3.4,0.5-6.7,1.5-10,2.8c-3.8,0.3-7.7,0.8-11.6,1.6
				c2.7-2.1,5.2-4.3,7.5-6.8c0.6-0.6-0.2-1.6-0.9-1.2c-5,3.2-9.7,6.7-14.7,9.9c-12.3,3.6-23.8,9.7-30.8,18.9
				c1.1-3.6,3.1-6.8,6.1-9.8c3.4-3.5,7.3-6.3,9.8-10.7c0.3-0.6-0.4-1.5-1-1c-7.7,5.8-18.6,14.4-17.2,25c-0.4,0.6-0.7,1.3-1,1.9
				c0.5-2.5,0.9-5,1-7.6c0.1-1.1-1.4-1.4-2-0.5c-2.9,4.5-4,10.2-2.8,15.4c-1.8-1.6-3.9-2.7-6.1-3.8c-0.3-0.2-0.8,0.3-0.4,0.6
				c0.9,0.7,1.9,1.4,2.8,2c-7-3-15-0.2-18.6,8c-0.3,0.7,0.6,1.7,1.2,0.9c4.5-5.4,11-8,17.4-6.5c-0.4,0-0.8,0.1-1.2,0.2
				c-5.2,1.1-8.6,4.3-10.5,8.4c-7.8,8.1-7.2,24.3-4.8,34.2c0.1,0.6,1.1,0.6,1.2,0c1.2-5.4,0.4-11.2,0.5-16.6
				c0.1-2.2,0.3-4.3,0.8-6.4c-0.3,8,1,16.3,1.2,24.2c0.2,8.6,0.6,19.6-5,26.7c-1.2,1.5,0.3,4.1,2.2,2.9c0.3-0.2,0.7-0.5,1-0.7
				c0,0.3,0.1,0.7,0.1,1c0,0.1,0.1,0.3,0.1,0.4c-1.1,1.9-4.4,7.5-0.1,7.6c3.4,0.1,5.8-5.3,6.9-7.9c0.2-0.4,0.3-0.7,0.4-1.1
				c0.2,0.4,0.5,0.7,0.8,1c0.8,0.6,1.6,0.6,2.4,0c2-1.7,1.3-5.2,0.6-7.3c-0.2-0.5-0.4-1-0.6-1.5c1.7-2.3,3.7-4.5,5.6-6.6
				c4.8-5.3,9.9-10.4,13.9-16.3c3-4.3,4.8-9.2,4.4-14.4c4.3,5.4,11.4,8.8,18.2,9.3c1.1,0.1,1.4-1.5,0.5-2c-3.6-2.1-7.7-3.2-11.4-5
				c-1.9-1-3.7-2.2-5.3-3.6c11.4,4.4,25.4,5.5,35.2,6.1c13.2,0.8,26.2,0.8,39.1,4.7c7.8,2.3,15.1,6,21.8,10.7
				c6.4,4.6,10.8,10.6,15.2,16.8c-0.2,3.2,0.7,7.1,1.4,9.7c1,3.9,4.1,9.2,8.7,7.8c0.9-0.3,1.3-1.1,1.2-2c-0.4-1.8-1.3-2.8-2.5-4.1
				c-1.4-1.5-1.9-3.8-2.3-5.7c-0.1-0.6-0.2-1.2-0.4-1.9c0.6-0.5,1-1.4,0.7-2.5c-0.2-0.6-0.4-1.2-0.6-1.9c0.4,0,0.8,0,1.2-0.2
				c1.8,2.4,4.2,4.3,6.8,4.9c0.8,0.2,1.3-0.7,0.8-1.3c-1.6-1.8-3.7-3.2-5.3-5.1c-0.5-0.6-0.9-1.2-1.3-1.8c-0.4-1.6-0.9-3.2-1.4-4.7
				c0.3,0.2,0.5,0.5,0.8,0.7c3.6,2.6,8.8,2.9,11.4-1.4C460.6,298.6,459.7,297.9,459,298.2z M360.4,243.2
				C360.4,243.2,360.4,243.2,360.4,243.2c0.1,0,0.1,0.1,0.1,0.1C360.5,243.3,360.4,243.2,360.4,243.2z M342.3,242.5
				c-0.2-1-0.3-2.1-0.4-3.2C342,240.4,342.2,241.4,342.3,242.5z M383.8,255.1c0.7,1.6,1.4,3.2,1.9,4.8
				C384.9,258.4,384.3,256.8,383.8,255.1z M307.6,294.6c0.4-0.1,0.7-0.3,1-0.5c-0.3,0.4-0.7,0.7-1,1.1
				C307.6,294.9,307.6,294.8,307.6,294.6z M309.5,293C309.5,293,309.5,293,309.5,293c0,0.1-0.1,0.2-0.1,0.2
				C309.4,293.1,309.4,293.1,309.5,293z M378.1,270.7c0,0,0.1,0,0.1,0.1C378.2,270.7,378.1,270.7,378.1,270.7
				C378.1,270.7,378.1,270.7,378.1,270.7z M384.3,270.6c0.2,0.2,0.4,0.4,0.6,0.5c-0.3,0-0.7-0.1-1-0.1
				C384,270.9,384.2,270.8,384.3,270.6z"/>
			<g>
				<g>
					<g>
						<path class="st31" d="M329,259.7c13.8,6.8,30.3,7.5,45.4,8.5c16.6,1.1,32.7,2.9,48.2,9.3c0.6,0.2,0.9-0.7,0.4-1
							c-12.9-8.2-28.9-9.6-43.7-10.7c-17-1.3-33.2-2.6-49.6-7.6C328.7,257.9,328.1,259.3,329,259.7L329,259.7z"/>
					</g>
				</g>
				<g>
					<g>
						<path class="st31" d="M319.8,239.7c4.3-11.8,18.2-15.5,29.1-18.8c0.9-0.3,0.5-1.5-0.4-1.4c-10,1.5-30.1,6.6-29.5,20
							C319,240.1,319.6,240.2,319.8,239.7L319.8,239.7z"/>
					</g>
				</g>
				<g>
					<g>
						<path class="st31" d="M306.7,252.5c-6.7,0-7.8,9.1-8.4,14.1c-1,8.3-0.6,16.7,0.4,25c0.1,0.9,1.3,0.9,1.4,0
							c0.7-6.3,0.2-12.7,0.4-19.1c0.2-5.4,0.1-16.6,6.3-19.1C307.3,253.2,307.3,252.5,306.7,252.5L306.7,252.5z"/>
					</g>
				</g>
				<g>
					<g>
						<path class="st31" d="M312.2,257.2c-11.6-4.4-12.9,25.9-12.9,32.4c0,0.9,1.4,1.2,1.6,0.2c1.3-5.3,1.7-10.8,2.8-16.1
							c0.9-4.1,2.6-15.3,8.4-15.7C312.5,258,312.6,257.4,312.2,257.2L312.2,257.2z"/>
					</g>
				</g>
				<g>
					<g>
						<path class="st31" d="M318.5,265.7c2,12.6-3.2,21.7-10.2,31.7c-0.4,0.5,0.4,1.1,0.9,0.7c8.3-8.4,15.1-20.8,9.8-32.5
							C318.8,265.2,318.4,265.4,318.5,265.7L318.5,265.7z"/>
					</g>
				</g>
				<g>
					<g>
						<path class="st31" d="M318.2,261.9c-6.1-2.1-10,8.5-11.5,12.5c-2.7,7.4-4.6,15.3-5.5,23.2c-0.1,0.8,1.3,1.2,1.6,0.4
							c4.8-11.3,4.4-27.7,15.5-35.4C318.6,262.5,318.5,262,318.2,261.9L318.2,261.9z"/>
					</g>
				</g>
				<g>
					<g>
						<path class="st31" d="M327,248c8.6,9.5,22.2,13.3,34.6,15.1c13.8,1.9,27.9,2,41.8,2.7c0.2,0,0.3-0.4,0.1-0.4
							c-26.1-4-53.6-0.9-75.7-18.2C327.2,246.8,326.5,247.5,327,248L327,248z"/>
					</g>
				</g>
				<g>
					<g>
						<path class="st31" d="M335.2,243.2c7.3,8.9,20,10.2,30.6,12.3c16.7,3.3,33.3,7.8,50.2,10.6c0.6,0.1,0.8-0.7,0.2-0.9
							c-15.1-4.5-30.7-7.5-46.1-10.6c-11.5-2.3-25.8-3-34.4-11.9C335.3,242.4,334.9,242.9,335.2,243.2L335.2,243.2z"/>
					</g>
				</g>
				<g>
					<g>
						<path class="st31" d="M324.8,243.9c9.7-1.3,19-4.4,28.8-5.2c10.1-0.9,19.9,0.3,29.7,2.8c0.8,0.2,1-0.9,0.3-1.2
							c-18.7-7.5-40.9-5.6-59,3C324.3,243.5,324.5,244,324.8,243.9L324.8,243.9z"/>
					</g>
				</g>
				<g>
					<g>
						<path class="st31" d="M342.7,243.9c12.4,3.2,25,5,37.6,7.2c12.7,2.2,25.2,5.1,37.6,8.5c0.9,0.2,1.2-1,0.4-1.4
							c-23.5-9.8-50.4-12.3-75.5-14.9C342.4,243.3,342.3,243.8,342.7,243.9L342.7,243.9z"/>
					</g>
				</g>
				<g>
					<g>
						<path class="st31" d="M326.2,239.8c22.7-14.5,52-8.5,76.4-2.3c0.7,0.2,1-0.9,0.3-1.1c-22.8-7.9-57.2-15.2-77,3.1
							C325.8,239.7,326,239.9,326.2,239.8L326.2,239.8z"/>
					</g>
				</g>
				<g>
					<g>
						<path class="st31" d="M324.2,237.8c2-1.1,3.3-3.1,5.1-4.6c2.4-1.9,5-3.6,7.7-4.9c5.7-2.9,12.1-4.6,18.4-5.8
							c11.8-2.2,24.7-2.5,36.5-0.2c1,0.2,1.3-1.1,0.4-1.5c-12.1-4.8-26.5-3.7-39-1.2c-6.7,1.3-13.3,3.5-19.2,6.9
							c-3.8,2.2-9.8,6.3-10.2,11.1C323.8,237.8,324,237.9,324.2,237.8L324.2,237.8z"/>
					</g>
				</g>
				<g>
					<g>
						<path class="st31" d="M395.6,245.1c6.8,4.8,14.9,7.1,22.2,10.9c8.1,4.2,14,9.7,19.8,16.8c0.4,0.5,1.4,0,1.2-0.7
							c-6.9-16.4-26.6-23.9-42.4-28.7C395.3,243.1,394.8,244.5,395.6,245.1L395.6,245.1z"/>
					</g>
				</g>
				<g>
					<g>
						<path class="st31" d="M387.3,224.6c19.4,2.7,32.2,15.4,42.3,31.3c0.4,0.6,1.2,0.1,0.9-0.6c-7.5-17.3-24-30.8-43.1-31.4
							C387,223.9,386.9,224.6,387.3,224.6L387.3,224.6z"/>
					</g>
				</g>
				<g>
					<g>
						<path class="st31" d="M390.6,214.8c13.4,3.3,23.3,12.8,33.1,21.8c0.5,0.4,1-0.2,0.7-0.7c-8-10-20-21.8-33.7-22.2
							C390.2,213.8,390,214.7,390.6,214.8L390.6,214.8z"/>
					</g>
				</g>
				<g>
					<g>
						<path class="st31" d="M417.9,264.6c11.4,7.1,15.9,20.7,23,31.3c0.4,0.6,1.2,0.1,0.9-0.6c-5.4-11.9-11.5-25.1-23.6-31.3
							C417.9,263.9,417.6,264.4,417.9,264.6L417.9,264.6z"/>
					</g>
				</g>
				<g>
					<g>
						<path class="st31" d="M335.9,264.5c10.6,11.7,29.6,10.9,44,12.5c20.3,2.3,40.2,6,56.6,18.9c0.4,0.3,0.9-0.2,0.6-0.6
							c-13.7-13.7-32.7-16.6-51.1-19.5c-15.8-2.5-37-0.2-49.7-11.7C336,263.9,335.7,264.2,335.9,264.5L335.9,264.5z"/>
					</g>
				</g>
				<g>
					<g>
						<path class="st31" d="M322.8,261c0.8-6.8,5.8-11.6,10.4-16.2c0.6-0.6-0.2-1.5-0.9-1.1c-6.1,3.6-11.3,9.9-11,17.3
							C321.4,261.9,322.7,261.9,322.8,261L322.8,261z"/>
					</g>
				</g>
			</g>
		</g>
		<g>
			<path class="st32" d="M411.6,369.8c0.7,0,1.5-0.1,2.2-0.1c20.7-1.7,25.8-10.9,28.1-22.7c2.6-12.9,2.8-17.4,6.1-18.5
				c2.4-0.9,3-3.7,3-7.1c-0.1-3.3-0.2-3.7-4.2-5.1c-3.2-1.1-20.8-2.8-34.1-2l-0.1,3.5c10.4-0.5,20.5,0.7,23.4,2.6
				c6.6,4.3,4.6,25-1,35.3c-3.9,7.1-14.2,10.7-23.4,10.8L411.6,369.8z M373.2,320.9c-4.6,0.1-23.2-5.3-36.5-6.5
				c-0.9-0.1-1.9-0.2-2.9-0.2l-0.1,3.5c10.8,0.5,21.9,3,25.8,8.8c6.3,9.5-5.1,32.5-15.3,37.7c-3.1,1.6-7.2,2.3-11.5,2.4l-0.1,3.3
				c17.9,0.1,24.5-12.8,26.7-17.1c4.2-8.1,3.4-19.2,13.6-19.2c10.2,0,8.8,11,12.5,19c2,4.4,7.7,17.8,26.3,17.3l0.1-3.3
				c-4.6,0.1-8.9-0.7-12.1-2.4c-9.9-5.1-19.7-28.2-12.8-37.7c4.1-5.7,15.2-8.2,25.9-8.7l0.1-3.5c-0.8,0.1-1.6,0.1-2.4,0.2
				C398.4,315.5,383.9,320.7,373.2,320.9z M333.8,314.2c-13.1-0.7-30.5,0.9-33.7,2c-4.1,1.4-4.3,1.8-4.6,5.1
				c-0.3,3.3,0.1,6.2,2.5,7.1c3.2,1.2,3.1,5.7,4.9,18.5c1.6,11.7,6.1,21,26.6,22.7c1.1,0.1,2.1,0.1,3.1,0.1l0.1-3.3
				c-9.5,0.1-20-3.6-23.5-10.9c-4.9-10.3-5.6-31,1.4-35.3c3-1.9,12.9-3.1,23.1-2.6L333.8,314.2z"/>
			<path class="st33" d="M310.6,320.3c6.1-3.8,41.5-5.1,48.9,6.1c6.3,9.5-5.1,32.5-15.3,37.7c-9.9,5-29.8,2.2-35-8.5
				C304.3,345.3,303.6,324.6,310.6,320.3L310.6,320.3z M436.1,320.4c-5.9-3.8-41.1-5.2-49.3,6.1c-6.9,9.5,2.9,32.5,12.8,37.7
				c9.6,5,29.7,2.2,35.5-8.5C440.8,345.4,442.7,324.7,436.1,320.4z"/>
			<g class="st34">
				<path class="st35" d="M314,319c10.9-2.7,39-2.5,45.5,7.4c4.4,6.6,0.1,20-6.4,29.1L314,319z"/>
				<path class="st35" d="M392.6,322l39.9,37.2c1.1-1.1,2-2.2,2.7-3.5c5.6-10.3,7.6-31,1-35.3C431.2,317.1,405.5,315.7,392.6,322z"
					/>
			</g>
		</g>
		<g>
			<text transform="matrix(0.9973 0 0 1 351.3182 478.9822)" class="st7 st36 st37">C</text>
			<text transform="matrix(0.9973 0 0 1 375.7596 463.5496)" class="st7 st38 st39">+</text>
			<text transform="matrix(0.9973 0 0 1 375.7596 483.2898)" class="st7 st38 st39">+</text>
		</g>
		<path class="st7" d="M346.9,381.5c0,0,22.6,7,48.6,0C421.6,374.5,346.9,381.5,346.9,381.5z"/>
		<ellipse class="st7" cx="340.1" cy="339.5" rx="2.7" ry="4.1"/>
		<ellipse class="st7" cx="407.4" cy="339.5" rx="2.7" ry="4.1"/>
	</g>
	<g>
		<path class="st7" d="M308.6,616.3c-0.5-0.4-1.1-0.6-1.7-0.8c-0.7-0.1-1.4-0.2-2.1-0.2c-0.3,0-0.6,0-0.9,0c-0.3,0-0.6,0-0.9,0
			c-0.3,0-0.6,0-0.9,0.1c-0.3,0-0.5,0.1-0.7,0.1V630c0.2,0,0.3,0,0.5,0c0.2,0,0.4,0,0.5,0c0.4,0,0.7,0,1-0.1v-5.2c0.2,0,0.4,0,0.6,0
			c0.2,0,0.4,0,0.7,0c0.7,0,1.3-0.1,2-0.2c0.7-0.2,1.2-0.4,1.8-0.8c0.5-0.4,0.9-0.9,1.2-1.5c0.3-0.6,0.5-1.4,0.5-2.3
			c0-0.9-0.1-1.6-0.4-2.2C309.5,617.2,309.1,616.7,308.6,616.3z M307.8,621.5c-0.2,0.4-0.4,0.7-0.8,0.9c-0.3,0.2-0.7,0.4-1.1,0.5
			c-0.4,0.1-0.8,0.1-1.2,0.1c-0.3,0-0.5,0-0.7,0c-0.2,0-0.3,0-0.6-0.1v-5.8c0.4,0,0.8-0.1,1.3-0.1c0.5,0,0.9,0,1.3,0.1
			c0.4,0.1,0.8,0.3,1.1,0.5c0.3,0.2,0.5,0.5,0.7,0.9c0.2,0.4,0.2,0.8,0.2,1.4C308.1,620.6,308,621.2,307.8,621.5z"/>
		<path class="st7" d="M318.6,623.8c0.3-0.2,0.6-0.4,1-0.6c0.3-0.2,0.6-0.5,0.9-0.9c0.3-0.3,0.5-0.7,0.7-1.1
			c0.2-0.4,0.3-0.9,0.3-1.4c0-0.9-0.2-1.6-0.5-2.2c-0.3-0.6-0.8-1-1.3-1.3c-0.5-0.3-1.1-0.6-1.8-0.7c-0.7-0.1-1.3-0.2-2-0.2
			c-0.3,0-0.6,0-0.8,0c-0.3,0-0.5,0-0.7,0c-0.2,0-0.5,0-0.7,0.1c-0.2,0-0.5,0.1-0.8,0.1V630c0.2,0,0.3,0,0.5,0c0.2,0,0.4,0,0.5,0
			c0.2,0,0.3,0,0.5,0c0.2,0,0.3,0,0.5,0v-12.8c0.2,0,0.5,0,0.7-0.1c0.2,0,0.4,0,0.6,0c1,0,1.7,0.2,2.3,0.7c0.6,0.5,0.8,1.2,0.8,2.1
			c0,0.5-0.1,1-0.3,1.3c-0.2,0.4-0.5,0.7-0.9,0.9c-0.3,0.3-0.7,0.5-1.1,0.6s-0.8,0.3-1.1,0.4l-0.2,0v0.1l4.6,6.7
			c0.4,0,0.7,0.1,1.1,0.1c0.5,0,0.9,0,1.2-0.1l-4.2-6.1L318.6,623.8z"/>
		<path class="st7" d="M334.5,617.5c-0.5-0.7-1.1-1.2-1.9-1.5c-0.8-0.4-1.7-0.6-2.7-0.6c-1,0-1.9,0.2-2.7,0.6
			c-0.8,0.4-1.4,0.9-1.9,1.5c-0.5,0.7-0.9,1.4-1.1,2.3c-0.2,0.9-0.4,1.9-0.4,3s0.1,2.1,0.4,3c0.2,0.9,0.6,1.7,1.1,2.4
			c0.5,0.7,1.1,1.2,1.9,1.5c0.8,0.4,1.7,0.5,2.7,0.5c1,0,1.9-0.2,2.7-0.5c0.8-0.4,1.4-0.9,1.9-1.5c0.5-0.7,0.9-1.4,1.1-2.4
			c0.2-0.9,0.4-1.9,0.4-3s-0.1-2.1-0.4-3C335.4,618.9,335,618.1,334.5,617.5z M333.6,625.2c-0.2,0.7-0.4,1.3-0.7,1.8
			c-0.3,0.5-0.7,0.9-1.2,1.1c-0.5,0.3-1.1,0.4-1.7,0.4c-0.7,0-1.2-0.1-1.7-0.4c-0.5-0.3-0.9-0.6-1.2-1.1c-0.3-0.5-0.6-1.1-0.7-1.8
			c-0.2-0.7-0.2-1.5-0.2-2.4c0-0.9,0.1-1.7,0.2-2.4c0.2-0.7,0.4-1.3,0.7-1.8c0.3-0.5,0.7-0.9,1.2-1.1c0.5-0.3,1.1-0.4,1.7-0.4
			c0.7,0,1.2,0.1,1.7,0.4c0.5,0.3,0.9,0.6,1.2,1.1c0.3,0.5,0.6,1.1,0.7,1.8c0.2,0.7,0.2,1.5,0.2,2.4
			C333.8,623.7,333.7,624.5,333.6,625.2z"/>
		<path class="st7" d="M348.3,622.5c-0.2,0-0.3,0-0.5,0c-0.2,0-0.3,0-0.5,0.1v5.6c-0.2,0.1-0.5,0.1-0.8,0.2c-0.3,0-0.7,0.1-1.1,0.1
			c-0.7,0-1.4-0.1-1.9-0.3c-0.6-0.2-1.1-0.6-1.5-1c-0.4-0.5-0.8-1-1-1.7c-0.2-0.7-0.4-1.5-0.4-2.4c0-0.9,0.1-1.7,0.3-2.5
			c0.2-0.7,0.5-1.3,0.9-1.8c0.4-0.5,0.9-0.9,1.5-1.1c0.6-0.3,1.2-0.4,1.9-0.4c0.7,0,1.2,0,1.6,0.1c0.4,0.1,0.8,0.2,1.2,0.3
			c0.1-0.3,0.2-0.6,0.3-0.8c0.1-0.3,0.1-0.5,0.2-0.8c-0.5-0.2-1-0.3-1.5-0.4c-0.6-0.1-1.2-0.2-2-0.2c-1,0-1.9,0.2-2.7,0.5
			c-0.8,0.4-1.5,0.9-2.1,1.5c-0.6,0.7-1,1.4-1.4,2.4c-0.3,0.9-0.5,2-0.5,3.1c0,1.1,0.2,2.2,0.5,3.1c0.3,0.9,0.8,1.7,1.4,2.3
			c0.6,0.6,1.3,1.1,2.2,1.5c0.9,0.3,1.8,0.5,2.9,0.5c0.3,0,0.7,0,1,0c0.4,0,0.7-0.1,1.1-0.1c0.4,0,0.7-0.1,1-0.2
			c0.3-0.1,0.6-0.2,0.9-0.3v-7c-0.1,0-0.3,0-0.5-0.1C348.6,622.5,348.5,622.5,348.3,622.5z"/>
		<path class="st7" d="M358.4,623.8c0.3-0.2,0.6-0.4,1-0.6c0.3-0.2,0.6-0.5,0.9-0.9c0.3-0.3,0.5-0.7,0.7-1.1
			c0.2-0.4,0.3-0.9,0.3-1.4c0-0.9-0.2-1.6-0.5-2.2c-0.3-0.6-0.8-1-1.3-1.3c-0.5-0.3-1.1-0.6-1.8-0.7c-0.7-0.1-1.3-0.2-2-0.2
			c-0.3,0-0.6,0-0.8,0c-0.3,0-0.5,0-0.7,0c-0.2,0-0.5,0-0.7,0.1c-0.2,0-0.5,0.1-0.8,0.1V630c0.2,0,0.3,0,0.5,0c0.2,0,0.4,0,0.5,0
			c0.2,0,0.3,0,0.5,0c0.2,0,0.3,0,0.5,0v-12.8c0.2,0,0.5,0,0.7-0.1c0.2,0,0.4,0,0.6,0c1,0,1.7,0.2,2.3,0.7c0.6,0.5,0.8,1.2,0.8,2.1
			c0,0.5-0.1,1-0.3,1.3c-0.2,0.4-0.5,0.7-0.9,0.9c-0.3,0.3-0.7,0.5-1.1,0.6c-0.4,0.2-0.8,0.3-1.1,0.4l-0.2,0v0.1l4.6,6.7
			c0.4,0,0.7,0.1,1.1,0.1c0.5,0,0.9,0,1.2-0.1l-4.2-6.1L358.4,623.8z"/>
		<path class="st7" d="M369.5,615.5c-0.2,0-0.4,0-0.6,0c-0.2,0-0.4,0-0.6,0c-0.2,0-0.4,0-0.6,0.1l-4.7,14.4c0.1,0,0.3,0,0.5,0.1
			c0.2,0,0.4,0,0.5,0c0.2,0,0.3,0,0.5,0c0.2,0,0.3,0,0.5-0.1l1-3.3h5.5l1,3.3c0.2,0,0.3,0,0.5,0.1c0.2,0,0.4,0,0.5,0
			c0.2,0,0.4,0,0.6,0c0.2,0,0.4,0,0.5-0.1l-4.7-14.4C369.9,615.6,369.7,615.5,369.5,615.5z M366.7,624.9l2.2-7.3l2.2,7.3H366.7z"/>
		<path class="st7" d="M388.7,615.5c-0.2,0-0.4,0-0.6,0c-0.2,0-0.4,0-0.6,0c-0.2,0-0.4,0-0.5,0.1l-3.7,9l-3.7-9
			c-0.1,0-0.3,0-0.5-0.1c-0.2,0-0.4,0-0.6,0c-0.2,0-0.4,0-0.6,0c-0.2,0-0.4,0-0.5,0.1l-0.6,14.4c0.1,0,0.3,0,0.5,0.1
			c0.2,0,0.3,0,0.5,0c0.1,0,0.3,0,0.5,0c0.2,0,0.3,0,0.5-0.1l0.5-11.2l3.4,8.3c0.3,0,0.5,0.1,0.8,0.1c0.3,0,0.6,0,0.8-0.1l3.5-8.2
			l0.5,11.2c0.1,0,0.3,0,0.5,0.1c0.2,0,0.3,0,0.5,0c0.2,0,0.3,0,0.5,0c0.2,0,0.3,0,0.5-0.1l-0.7-14.4
			C389.1,615.6,388.9,615.5,388.7,615.5z"/>
		<path class="st7" d="M405,615.5c-0.2,0-0.4,0-0.6,0c-0.2,0-0.4,0-0.6,0c-0.2,0-0.4,0-0.5,0.1l-3.7,9l-3.7-9c-0.1,0-0.3,0-0.5-0.1
			c-0.2,0-0.4,0-0.6,0c-0.2,0-0.4,0-0.6,0c-0.2,0-0.4,0-0.5,0.1l-0.6,14.4c0.1,0,0.3,0,0.5,0.1c0.2,0,0.3,0,0.5,0c0.1,0,0.3,0,0.5,0
			c0.2,0,0.3,0,0.5-0.1l0.5-11.2l3.4,8.3c0.3,0,0.5,0.1,0.8,0.1c0.3,0,0.6,0,0.8-0.1l3.5-8.2l0.5,11.2c0.1,0,0.3,0,0.5,0.1
			c0.2,0,0.3,0,0.5,0c0.2,0,0.3,0,0.5,0c0.2,0,0.3,0,0.5-0.1l-0.7-14.4C405.4,615.6,405.2,615.5,405,615.5z"/>
		<path class="st7" d="M410.5,615.5c-0.2,0-0.3,0-0.5,0c-0.2,0-0.3,0-0.5,0.1V630c0.1,0,0.3,0,0.5,0.1c0.2,0,0.4,0,0.5,0
			c0.2,0,0.4,0,0.5,0c0.2,0,0.3,0,0.5-0.1v-14.4c-0.2,0-0.3,0-0.5-0.1C410.8,615.5,410.7,615.5,410.5,615.5z"/>
		<path class="st7" d="M424.2,615.5c-0.2,0-0.3,0-0.5,0c-0.2,0-0.3,0-0.5,0.1v10.8l-6.3-10.8c-0.1,0-0.3,0-0.5-0.1
			c-0.2,0-0.3,0-0.5,0c-0.1,0-0.3,0-0.5,0c-0.2,0-0.3,0-0.5,0.1V630c0.1,0,0.3,0,0.5,0.1c0.2,0,0.3,0,0.5,0c0.2,0,0.3,0,0.5,0
			c0.2,0,0.3,0,0.5-0.1v-10.7l6.3,10.7c0.1,0,0.3,0,0.5,0.1c0.2,0,0.3,0,0.5,0c0.1,0,0.3,0,0.5,0c0.2,0,0.3,0,0.5-0.1v-14.4
			c-0.1,0-0.3,0-0.5-0.1C424.5,615.5,424.3,615.5,424.2,615.5z"/>
		<path class="st7" d="M438.5,622.5c-0.2,0-0.3,0-0.5,0c-0.2,0-0.3,0-0.5,0c-0.2,0-0.3,0-0.5,0.1v5.6c-0.2,0.1-0.5,0.1-0.8,0.2
			c-0.3,0-0.7,0.1-1.1,0.1c-0.7,0-1.3-0.1-1.9-0.3c-0.6-0.2-1.1-0.6-1.5-1c-0.4-0.5-0.8-1-1-1.7c-0.2-0.7-0.3-1.5-0.3-2.4
			c0-0.9,0.1-1.7,0.3-2.5c0.2-0.7,0.5-1.3,0.9-1.8c0.4-0.5,0.9-0.9,1.5-1.1c0.6-0.3,1.2-0.4,1.9-0.4c0.7,0,1.2,0,1.6,0.1
			c0.4,0.1,0.8,0.2,1.2,0.3c0.1-0.3,0.2-0.6,0.3-0.8c0.1-0.3,0.1-0.5,0.2-0.8c-0.5-0.2-1-0.3-1.5-0.4c-0.6-0.1-1.2-0.2-2-0.2
			c-1,0-1.9,0.2-2.7,0.5c-0.8,0.4-1.5,0.9-2.1,1.5c-0.6,0.7-1.1,1.4-1.4,2.4c-0.3,0.9-0.5,2-0.5,3.1c0,1.1,0.2,2.2,0.5,3.1
			c0.3,0.9,0.8,1.7,1.4,2.3c0.6,0.6,1.3,1.1,2.2,1.5c0.9,0.3,1.8,0.5,2.9,0.5c0.3,0,0.7,0,1,0c0.4,0,0.7-0.1,1.1-0.1
			c0.4,0,0.7-0.1,1-0.2c0.3-0.1,0.6-0.2,0.9-0.3v-7C438.8,622.5,438.7,622.5,438.5,622.5z"/>
	</g>
</g>
<path class="st40" d="M543.5,649.3c0,2.6-1.7,4.8-3.9,4.8H351.4c-2.2,0-3.9-2.1-3.9-4.8l0,0c0-2.6,1.7-4.8,3.9-4.8h188.2
	C541.8,644.5,543.5,646.6,543.5,649.3L543.5,649.3z"/>
<g>
	<g>
		<path class="st41" d="M349.5,649.9h17.4h38.2h8.4h9h8.4h29.3h8.8h8.6h8.8h37.7h17.4c1.6,0,2-1.4,1-3.1l-1.9-3.2l-0.2-0.3
			L520,608.4c-0.5-0.8-2-1.4-3.4-1.4h-42.2h-19.4H432h-19.1h-42.5c-1.4,0-2.8,0.6-3.2,1.4l-17.3,34.9l-0.1,0.3l-1.6,3.2
			C347.3,648.5,347.9,649.9,349.5,649.9z"/>
		<g>
			<g id="keys_9_">
				<g>
					<path class="st7" d="M509,634.2c-0.2-0.4,0.3-0.8,1.2-0.8h7.9c0.8,0,1.7,0.3,1.9,0.8l2,4.1c0.2,0.4-0.3,0.8-1.2,0.8h-8.1
						c-0.8,0-1.7-0.3-1.9-0.8L509,634.2z"/>
					<path class="st42" d="M510.1,633.4h7.9c0.9,0,1.8,0.4,2,0.8l2,4.1c0.2,0.5-0.3,0.8-1.2,0.8h-8.1c-0.9,0-1.8-0.4-2-0.8l-1.8-4.1
						C508.6,633.8,509.2,633.4,510.1,633.4z M520.7,639c0.8,0,1.3-0.3,1.1-0.7l-2-4.1c-0.2-0.4-1-0.7-1.7-0.7h-7.9
						c-0.8,0-1.2,0.3-1.1,0.7l1.8,4.1c0.2,0.4,0.9,0.7,1.7,0.7H520.7z"/>
				</g>
				<g>
					<path class="st7" d="M521.1,634.2c-0.2-0.4,0.3-0.8,1.1-0.8h7.9c0.8,0,1.7,0.3,1.9,0.8l2.3,4.1c0.2,0.4-0.2,0.8-1.1,0.8h-8.1
						c-0.9,0-1.7-0.3-1.9-0.8L521.1,634.2z"/>
					<path class="st42" d="M522.2,633.4h7.8c0.9,0,1.8,0.4,2.1,0.8l2.3,4.1c0.3,0.5-0.3,0.8-1.2,0.8h-8.1c-0.9,0-1.9-0.4-2.1-0.8
						l-2.1-4.1C520.7,633.8,521.3,633.4,522.2,633.4z M533.2,639c0.8,0,1.2-0.3,1-0.7l-2.3-4.1c-0.2-0.4-1-0.7-1.8-0.7h-7.9
						c-0.8,0-1.2,0.3-1,0.7l2.1,4.1c0.2,0.4,1,0.7,1.8,0.7H533.2z"/>
				</g>
				<g>
					<path class="st7" d="M484.7,634.2c-0.1-0.4,0.4-0.8,1.3-0.8h7.9c0.8,0,1.6,0.3,1.8,0.8l1.4,4.1c0.2,0.4-0.4,0.8-1.3,0.8h-8.1
						c-0.8,0-1.6-0.3-1.8-0.8L484.7,634.2z"/>
					<path class="st42" d="M486,633.4h7.8c0.9,0,1.7,0.4,1.9,0.8l1.5,4.1c0.2,0.5-0.5,0.8-1.4,0.8h-8.1c-0.9,0-1.8-0.4-1.9-0.8
						l-1.2-4.1C484.5,633.8,485.1,633.4,486,633.4z M495.8,639c0.8,0,1.3-0.3,1.2-0.7l-1.4-4.1c-0.1-0.4-0.9-0.7-1.6-0.7H486
						c-0.8,0-1.3,0.3-1.2,0.7l1.2,4.1c0.1,0.4,0.8,0.7,1.6,0.7H495.8z"/>
				</g>
				<g>
					<path class="st7" d="M496.8,634.2c-0.2-0.4,0.4-0.8,1.2-0.8h7.9c0.8,0,1.6,0.3,1.8,0.8l1.7,4.1c0.2,0.4-0.4,0.8-1.2,0.8h-8.1
						c-0.8,0-1.7-0.3-1.8-0.8L496.8,634.2z"/>
					<path class="st42" d="M498,633.4h7.8c0.9,0,1.8,0.4,2,0.8l1.7,4.1c0.2,0.5-0.4,0.8-1.3,0.8h-8.1c-0.9,0-1.8-0.4-2-0.8l-1.5-4.1
						C496.6,633.8,497.1,633.4,498,633.4z M508.2,639c0.8,0,1.3-0.3,1.1-0.7l-1.7-4.1c-0.2-0.4-0.9-0.7-1.7-0.7h-7.9
						c-0.8,0-1.2,0.3-1.1,0.7l1.5,4.1c0.1,0.4,0.9,0.7,1.7,0.7H508.2z"/>
				</g>
				<g>
					<path class="st7" d="M460.4,634.2c-0.1-0.4,0.6-0.8,1.4-0.8h7.9c0.8,0,1.6,0.3,1.6,0.8l0.8,4.1c0.1,0.4-0.5,0.8-1.4,0.8h-8.1
						c-0.8,0-1.6-0.3-1.6-0.8L460.4,634.2z"/>
					<path class="st42" d="M461.8,633.4h7.8c0.9,0,1.7,0.4,1.8,0.8l0.9,4.1c0.1,0.5-0.6,0.8-1.5,0.8h-8.1c-0.9,0-1.7-0.4-1.8-0.8
						l-0.6-4.1C460.2,633.8,460.9,633.4,461.8,633.4z M470.7,639c0.8,0,1.3-0.3,1.3-0.7l-0.8-4.1c-0.1-0.4-0.8-0.7-1.5-0.7h-7.9
						c-0.8,0-1.3,0.3-1.3,0.7l0.6,4.1c0.1,0.4,0.7,0.7,1.5,0.7H470.7z"/>
				</g>
				<g>
					<path class="st7" d="M472.5,634.2c-0.1-0.4,0.5-0.8,1.3-0.8h7.9c0.8,0,1.6,0.3,1.7,0.8l1.1,4.1c0.1,0.4-0.5,0.8-1.3,0.8h-8.1
						c-0.8,0-1.6-0.3-1.7-0.8L472.5,634.2z"/>
					<path class="st42" d="M473.8,633.4h7.8c0.9,0,1.7,0.4,1.8,0.8l1.2,4.1c0.1,0.5-0.5,0.8-1.4,0.8h-8.1c-0.9,0-1.7-0.4-1.8-0.8
						l-0.9-4.1C472.3,633.8,472.9,633.4,473.8,633.4z M483.2,639c0.8,0,1.3-0.3,1.2-0.7l-1.1-4.1c-0.1-0.4-0.8-0.7-1.6-0.7h-7.9
						c-0.8,0-1.3,0.3-1.2,0.7l0.9,4.1c0.1,0.4,0.8,0.7,1.6,0.7H483.2z"/>
				</g>
				<g>
					<path class="st7" d="M436.1,634.2c0-0.4,0.7-0.8,1.5-0.8h7.9c0.8,0,1.5,0.3,1.5,0.8l0.3,4.1c0,0.4-0.6,0.8-1.5,0.8h-8.1
						c-0.9,0-1.5-0.3-1.5-0.8L436.1,634.2z"/>
					<path class="st42" d="M437.6,633.4h7.8c0.9,0,1.6,0.4,1.7,0.8l0.3,4.1c0,0.5-0.7,0.8-1.6,0.8h-8.1c-0.9,0-1.7-0.4-1.7-0.8
						l0-4.1C436,633.8,436.7,633.4,437.6,633.4z M445.8,639c0.8,0,1.4-0.3,1.4-0.7l-0.3-4.1c0-0.4-0.7-0.7-1.4-0.7h-7.9
						c-0.8,0-1.4,0.3-1.4,0.7l0,4.1c0,0.4,0.6,0.7,1.4,0.7H445.8z"/>
				</g>
				<g>
					<path class="st7" d="M448.3,634.2c0-0.4,0.6-0.8,1.4-0.8h7.9c0.8,0,1.5,0.3,1.6,0.8l0.6,4.1c0.1,0.4-0.6,0.8-1.4,0.8h-8.1
						c-0.8,0-1.6-0.3-1.6-0.8L448.3,634.2z"/>
					<path class="st42" d="M449.7,633.4h7.8c0.9,0,1.7,0.4,1.7,0.8l0.6,4.1c0.1,0.5-0.6,0.8-1.6,0.8h-8.1c-0.9,0-1.7-0.4-1.7-0.8
						l-0.3-4.1C448.1,633.8,448.8,633.4,449.7,633.4z M458.3,639c0.8,0,1.4-0.3,1.3-0.7l-0.5-4.1c-0.1-0.4-0.7-0.7-1.5-0.7h-7.9
						c-0.8,0-1.3,0.3-1.3,0.7l0.3,4.1c0,0.4,0.7,0.7,1.5,0.7H458.3z"/>
				</g>
				<g>
					<path class="st7" d="M423.9,634.2c0-0.4,0.7-0.8,1.5-0.8h7.9c0.8,0,1.5,0.3,1.5,0.8l0,4.1c0,0.4-0.7,0.8-1.5,0.8h-8.1
						c-0.8,0-1.5-0.3-1.5-0.8L423.9,634.2z"/>
					<path class="st42" d="M425.5,633.4h7.8c0.9,0,1.6,0.4,1.6,0.8l0,4.1c0,0.5-0.8,0.8-1.7,0.8h-8.1c-0.9,0-1.6-0.4-1.6-0.8
						l0.3-4.1C423.8,633.8,424.6,633.4,425.5,633.4z M433.2,639c0.8,0,1.4-0.3,1.4-0.7l0-4.1c0-0.4-0.6-0.7-1.4-0.7h-7.9
						c-0.8,0-1.4,0.3-1.4,0.7l-0.3,4.1c0,0.4,0.6,0.7,1.4,0.7H433.2z"/>
				</g>
				<g>
					<path class="st7" d="M399.6,634.2c0.1-0.4,0.8-0.8,1.7-0.8h7.9c0.8,0,1.4,0.3,1.4,0.8l-0.6,4.1c-0.1,0.4-0.8,0.8-1.7,0.8h-8.1
						c-0.9,0-1.5-0.3-1.4-0.8L399.6,634.2z"/>
					<path class="st42" d="M401.3,633.4h7.8c0.9,0,1.6,0.4,1.5,0.8l-0.6,4.1c-0.1,0.5-0.9,0.8-1.8,0.8H400c-0.9,0-1.6-0.4-1.5-0.8
						l0.9-4.1C399.6,633.8,400.4,633.4,401.3,633.4z M408.2,639c0.8,0,1.5-0.3,1.5-0.7l0.6-4.1c0.1-0.4-0.5-0.7-1.3-0.7h-7.9
						c-0.8,0-1.4,0.3-1.5,0.7l-0.9,4.1c-0.1,0.4,0.5,0.7,1.3,0.7H408.2z"/>
				</g>
				<g>
					<path class="st7" d="M411.7,634.2c0.1-0.4,0.8-0.8,1.6-0.8h7.9c0.8,0,1.5,0.3,1.4,0.8l-0.3,4.1c0,0.4-0.8,0.8-1.6,0.8h-8.1
						c-0.8,0-1.5-0.3-1.4-0.8L411.7,634.2z"/>
					<path class="st42" d="M413.3,633.4h7.8c0.9,0,1.6,0.4,1.5,0.8l-0.3,4.1c0,0.5-0.8,0.8-1.7,0.8h-8.1c-0.9,0-1.6-0.4-1.5-0.8
						l0.6-4.1C411.7,633.8,412.4,633.4,413.3,633.4z M420.7,639c0.8,0,1.4-0.3,1.5-0.7l0.3-4.1c0-0.4-0.6-0.7-1.3-0.7h-7.9
						c-0.8,0-1.4,0.3-1.5,0.7l-0.6,4.1c-0.1,0.4,0.5,0.7,1.3,0.7H420.7z"/>
				</g>
				<g>
					<path class="st7" d="M375.4,634.2c0.2-0.4,1-0.8,1.8-0.8h7.9c0.8,0,1.4,0.3,1.3,0.8l-1.2,4.1c-0.1,0.4-0.9,0.8-1.8,0.8h-8.1
						c-0.8,0-1.4-0.3-1.3-0.8L375.4,634.2z"/>
					<path class="st42" d="M377.1,633.4h7.8c0.9,0,1.5,0.4,1.4,0.8l-1.2,4.1c-0.1,0.5-1,0.8-1.9,0.8h-8.1c-0.9,0-1.5-0.4-1.4-0.8
						l1.5-4.1C375.4,633.8,376.3,633.4,377.1,633.4z M383.2,639c0.8,0,1.5-0.3,1.6-0.7l1.2-4.1c0.1-0.4-0.4-0.7-1.1-0.7h-7.9
						c-0.8,0-1.5,0.3-1.6,0.7l-1.5,4.1c-0.1,0.4,0.4,0.7,1.1,0.7H383.2z"/>
				</g>
				<g>
					<path class="st7" d="M387.5,634.2c0.1-0.4,0.9-0.8,1.7-0.8h7.9c0.8,0,1.4,0.3,1.3,0.8l-0.9,4.1c-0.1,0.4-0.9,0.8-1.7,0.8h-8.1
						c-0.8,0-1.4-0.3-1.3-0.8L387.5,634.2z"/>
					<path class="st7" d="M389.2,633.4h7.8c0.9,0,1.5,0.4,1.4,0.8l-0.9,4.1c-0.1,0.5-0.9,0.8-1.9,0.8h-8.1c-0.9,0-1.6-0.4-1.4-0.8
						l1.2-4.1C387.5,633.8,388.3,633.4,389.2,633.4z M395.7,639c0.8,0,1.5-0.3,1.6-0.7l0.9-4.1c0.1-0.4-0.4-0.7-1.2-0.7h-7.9
						c-0.8,0-1.5,0.3-1.6,0.7l-1.2,4.1c-0.1,0.4,0.4,0.7,1.2,0.7H395.7z"/>
				</g>
				<g>
					<path class="st7" d="M415.3,633c0.7,0,1.4-0.3,1.4-0.7l0.5-4.1c0-0.4-0.5-0.7-1.2-0.7h-7.6c-0.7,0-1.4,0.3-1.4,0.7l-0.8,4.1
						c-0.1,0.4,0.5,0.7,1.2,0.7H415.3z"/>
				</g>
				<g>
					<path class="st7" d="M383.4,628.2c0.1-0.4,0.9-0.8,1.7-0.8h7.6c0.8,0,1.3,0.3,1.2,0.8l-1.1,4.1c-0.1,0.4-0.9,0.8-1.7,0.8h-7.8
						c-0.8,0-1.4-0.3-1.2-0.8L383.4,628.2z"/>
					<path class="st42" d="M385.1,627.3h7.6c0.9,0,1.5,0.4,1.3,0.8l-1.1,4.1c-0.1,0.5-0.9,0.8-1.8,0.8h-7.8c-0.9,0-1.5-0.4-1.3-0.8
						l1.4-4.1C383.5,627.7,384.3,627.3,385.1,627.3z M391.1,633c0.7,0,1.4-0.3,1.5-0.7l1.1-4.1c0.1-0.4-0.4-0.7-1.1-0.7h-7.6
						c-0.7,0-1.4,0.3-1.5,0.7l-1.4,4.1c-0.1,0.4,0.4,0.7,1.1,0.7H391.1z"/>
				</g>
				<g>
					<path class="st7" d="M395.1,628.2c0.1-0.4,0.8-0.8,1.6-0.8h7.6c0.8,0,1.4,0.3,1.3,0.8l-0.8,4.1c-0.1,0.4-0.8,0.8-1.6,0.8h-7.8
						c-0.8,0-1.4-0.3-1.3-0.8L395.1,628.2z"/>
					<path class="st42" d="M396.8,627.3h7.6c0.9,0,1.5,0.4,1.4,0.8l-0.8,4.1c-0.1,0.5-0.9,0.8-1.8,0.8h-7.8c-0.9,0-1.5-0.4-1.4-0.8
						l1.1-4.1C395.1,627.7,395.9,627.3,396.8,627.3z M403.2,633c0.8,0,1.4-0.3,1.5-0.7l0.8-4.1c0.1-0.4-0.5-0.7-1.2-0.7h-7.6
						c-0.7,0-1.4,0.3-1.5,0.7l-1.1,4.1c-0.1,0.4,0.4,0.7,1.2,0.7H403.2z"/>
				</g>
				<g>
					<path class="st7" d="M360.1,628.2c0.2-0.4,1-0.8,1.8-0.8h7.6c0.8,0,1.3,0.3,1.1,0.8l-1.7,4.1c-0.2,0.4-1,0.8-1.8,0.8h-7.8
						c-0.8,0-1.3-0.3-1.1-0.8L360.1,628.2z"/>
					<path class="st42" d="M361.9,627.3h7.6c0.9,0,1.4,0.4,1.2,0.8l-1.7,4.1c-0.2,0.5-1.1,0.8-2,0.8h-7.8c-0.9,0-1.4-0.4-1.2-0.8
						l2-4.1C360.2,627.7,361,627.3,361.9,627.3z M367.1,633c0.8,0,1.5-0.3,1.7-0.7l1.7-4.1c0.2-0.4-0.3-0.7-1-0.7h-7.6
						c-0.7,0-1.5,0.3-1.7,0.7l-1.9,4.1c-0.2,0.4,0.3,0.7,1,0.7H367.1z"/>
				</g>
				<g>
					<path class="st7" d="M371.7,628.2c0.2-0.4,1-0.8,1.7-0.8h7.6c0.8,0,1.3,0.3,1.2,0.8l-1.4,4.1c-0.1,0.4-0.9,0.8-1.7,0.8h-7.8
						c-0.8,0-1.3-0.3-1.2-0.8L371.7,628.2z"/>
					<path class="st42" d="M373.5,627.3h7.6c0.9,0,1.4,0.4,1.3,0.8l-1.4,4.1c-0.2,0.5-1,0.8-1.9,0.8h-7.8c-0.9,0-1.5-0.4-1.3-0.8
						l1.7-4.1C371.8,627.7,372.7,627.3,373.5,627.3z M379.1,633c0.7,0,1.5-0.3,1.6-0.7l1.4-4.1c0.1-0.4-0.3-0.7-1.1-0.7h-7.6
						c-0.7,0-1.4,0.3-1.6,0.7l-1.6,4.1c-0.2,0.4,0.3,0.7,1.1,0.7H379.1z"/>
				</g>
				<g>
					<path class="st7" d="M465.4,628.2c-0.1-0.4,0.5-0.8,1.3-0.8h7.6c0.8,0,1.5,0.3,1.6,0.8l1,4.1c0.1,0.4-0.5,0.8-1.3,0.8h-7.8
						c-0.8,0-1.5-0.3-1.6-0.8L465.4,628.2z"/>
					<path class="st42" d="M466.7,627.3h7.6c0.9,0,1.6,0.4,1.8,0.8l1,4.1c0.1,0.5-0.5,0.8-1.4,0.8h-7.8c-0.9,0-1.7-0.4-1.8-0.8
						l-0.7-4.1C465.2,627.7,465.9,627.3,466.7,627.3z M475.6,633c0.7,0,1.3-0.3,1.2-0.7l-1-4.1c-0.1-0.4-0.8-0.7-1.5-0.7h-7.6
						c-0.7,0-1.3,0.3-1.2,0.7l0.7,4.1c0.1,0.4,0.7,0.7,1.5,0.7H475.6z"/>
				</g>
				<g>
					<path class="st7" d="M442,628.2c0-0.4,0.6-0.8,1.4-0.8h7.6c0.8,0,1.5,0.3,1.5,0.8l0.4,4.1c0,0.4-0.6,0.8-1.4,0.8h-7.8
						c-0.8,0-1.5-0.3-1.5-0.8L442,628.2z"/>
					<path class="st42" d="M443.4,627.3h7.6c0.9,0,1.6,0.4,1.6,0.8l0.4,4.1c0,0.5-0.6,0.8-1.5,0.8h-7.8c-0.9,0-1.6-0.4-1.6-0.8
						l-0.1-4.1C441.9,627.7,442.5,627.3,443.4,627.3z M451.5,633c0.7,0,1.3-0.3,1.3-0.7l-0.4-4.1c0-0.4-0.7-0.7-1.4-0.7h-7.6
						c-0.7,0-1.3,0.3-1.3,0.7l0.1,4.1c0,0.4,0.6,0.7,1.4,0.7H451.5z"/>
				</g>
				<g>
					<path class="st7" d="M453.7,628.2c0-0.4,0.6-0.8,1.4-0.8h7.6c0.8,0,1.5,0.3,1.6,0.8l0.7,4.1c0.1,0.4-0.5,0.8-1.4,0.8h-7.8
						c-0.8,0-1.5-0.3-1.6-0.8L453.7,628.2z"/>
					<path class="st42" d="M455,627.3h7.6c0.9,0,1.6,0.4,1.7,0.8l0.7,4.1c0.1,0.5-0.6,0.8-1.5,0.8h-7.8c-0.9,0-1.6-0.4-1.7-0.8
						l-0.4-4.1C453.5,627.7,454.2,627.3,455,627.3z M463.5,633c0.7,0,1.3-0.3,1.2-0.7l-0.7-4.1c-0.1-0.4-0.7-0.7-1.4-0.7H455
						c-0.7,0-1.3,0.3-1.2,0.7l0.4,4.1c0,0.4,0.7,0.7,1.4,0.7H463.5z"/>
				</g>
				<g>
					<path class="st7" d="M500.5,628.2c-0.2-0.4,0.3-0.8,1.1-0.8h7.6c0.8,0,1.6,0.3,1.8,0.8l1.9,4.1c0.2,0.4-0.3,0.8-1.1,0.8h-7.8
						c-0.8,0-1.6-0.3-1.8-0.8L500.5,628.2z"/>
					<path class="st42" d="M501.6,627.3h7.6c0.9,0,1.7,0.4,1.9,0.8l1.9,4.1c0.2,0.5-0.3,0.8-1.2,0.8h-7.8c-0.9,0-1.8-0.4-1.9-0.8
						l-1.6-4.1C500.2,627.7,500.7,627.3,501.6,627.3z M511.7,633c0.7,0,1.2-0.3,1-0.7l-1.9-4.1c-0.2-0.4-0.9-0.7-1.6-0.7h-7.6
						c-0.7,0-1.2,0.3-1,0.7l1.6,4.1c0.2,0.4,0.9,0.7,1.6,0.7H511.7z"/>
				</g>
				<g>
					<path class="st7" d="M477,628.2c-0.1-0.4,0.4-0.8,1.2-0.8h7.6c0.8,0,1.5,0.3,1.7,0.8l1.3,4.1c0.1,0.4-0.4,0.8-1.2,0.8h-7.8
						c-0.8,0-1.6-0.3-1.7-0.8L477,628.2z"/>
					<path class="st42" d="M478.3,627.3h7.6c0.9,0,1.7,0.4,1.8,0.8l1.3,4.1c0.1,0.5-0.5,0.8-1.3,0.8h-7.8c-0.9,0-1.7-0.4-1.8-0.8
						l-1-4.1C476.8,627.7,477.4,627.3,478.3,627.3z M487.6,633c0.7,0,1.3-0.3,1.1-0.7l-1.3-4.1c-0.1-0.4-0.8-0.7-1.5-0.7h-7.6
						c-0.7,0-1.2,0.3-1.1,0.7l1,4.1c0.1,0.4,0.8,0.7,1.5,0.7H487.6z"/>
				</g>
				<g>
					<path class="st7" d="M488.7,628.2c-0.1-0.4,0.4-0.8,1.2-0.8h7.6c0.8,0,1.6,0.3,1.7,0.8l1.6,4.1c0.2,0.4-0.4,0.8-1.2,0.8h-7.8
						c-0.8,0-1.6-0.3-1.7-0.8L488.7,628.2z"/>
					<path class="st42" d="M489.9,627.3h7.6c0.9,0,1.7,0.4,1.9,0.8l1.6,4.1c0.2,0.5-0.4,0.8-1.3,0.8h-7.8c-0.9,0-1.7-0.4-1.9-0.8
						l-1.3-4.1C488.5,627.7,489,627.3,489.9,627.3z M499.6,633c0.8,0,1.2-0.3,1.1-0.7l-1.6-4.1c-0.2-0.4-0.9-0.7-1.6-0.7h-7.6
						c-0.7,0-1.2,0.3-1.1,0.7l1.3,4.1c0.1,0.4,0.8,0.7,1.6,0.7H499.6z"/>
				</g>
				<g>
					<path class="st7" d="M418.6,628.2c0-0.4,0.7-0.8,1.5-0.8h7.6c0.8,0,1.4,0.3,1.4,0.8l-0.2,4.1c0,0.4-0.7,0.8-1.5,0.8h-7.8
						c-0.8,0-1.4-0.3-1.4-0.8L418.6,628.2z"/>
					<path class="st42" d="M420.2,627.3h7.6c0.9,0,1.5,0.4,1.5,0.8l-0.2,4.1c0,0.5-0.8,0.8-1.6,0.8h-7.8c-0.9,0-1.6-0.4-1.5-0.8
						l0.5-4.1C418.6,627.7,419.3,627.3,420.2,627.3z M427.4,633c0.8,0,1.4-0.3,1.4-0.7l0.2-4.1c0-0.4-0.6-0.7-1.3-0.7h-7.6
						c-0.7,0-1.3,0.3-1.4,0.7l-0.5,4.1c0,0.4,0.5,0.7,1.3,0.7H427.4z"/>
				</g>
				<g>
					<path class="st7" d="M430.3,628.2c0-0.4,0.7-0.8,1.5-0.8h7.6c0.8,0,1.4,0.3,1.5,0.8l0.1,4.1c0,0.4-0.6,0.8-1.5,0.8h-7.8
						c-0.8,0-1.5-0.3-1.5-0.8L430.3,628.2z"/>
					<path class="st42" d="M431.8,627.3h7.6c0.9,0,1.6,0.4,1.6,0.8l0.1,4.1c0,0.5-0.7,0.8-1.6,0.8h-7.8c-0.9,0-1.6-0.4-1.6-0.8
						l0.2-4.1C430.2,627.7,430.9,627.3,431.8,627.3z M439.4,633c0.7,0,1.4-0.3,1.3-0.7l-0.1-4.1c0-0.4-0.6-0.7-1.3-0.7h-7.6
						c-0.7,0-1.3,0.3-1.3,0.7l-0.2,4.1c0,0.4,0.6,0.7,1.3,0.7H439.4z"/>
				</g>
				<g>
					<path class="st7" d="M405.3,622c0.1-0.4,0.8-0.8,1.5-0.8h7.3c0.8,0,1.3,0.3,1.3,0.8l-0.6,4.1c-0.1,0.4-0.7,0.8-1.5,0.8h-7.5
						c-0.8,0-1.4-0.3-1.3-0.8L405.3,622z"/>
					<path class="st42" d="M406.8,621.1h7.3c0.8,0,1.4,0.4,1.4,0.8l-0.6,4.1c-0.1,0.5-0.8,0.8-1.7,0.8h-7.5c-0.9,0-1.5-0.4-1.4-0.8
						l0.8-4.1C405.3,621.5,406,621.1,406.8,621.1z M413.3,626.8c0.7,0,1.4-0.3,1.4-0.7l0.6-4.1c0.1-0.4-0.5-0.7-1.2-0.7h-7.3
						c-0.7,0-1.3,0.3-1.4,0.7l-0.8,4.1c-0.1,0.4,0.4,0.7,1.2,0.7H413.3z"/>
				</g>
				<g>
					<path class="st7" d="M382.7,622c0.1-0.4,0.9-0.8,1.6-0.8h7.3c0.8,0,1.3,0.3,1.2,0.8l-1.2,4.1c-0.1,0.4-0.9,0.8-1.6,0.8h-7.5
						c-0.8,0-1.3-0.3-1.2-0.8L382.7,622z"/>
					<path class="st42" d="M384.4,621.1h7.3c0.8,0,1.4,0.4,1.3,0.8l-1.2,4.1c-0.1,0.5-0.9,0.8-1.8,0.8h-7.5c-0.9,0-1.4-0.4-1.3-0.8
						l1.4-4.1C382.8,621.5,383.6,621.1,384.4,621.1z M390,626.8c0.7,0,1.4-0.3,1.5-0.7l1.2-4.1c0.1-0.4-0.4-0.7-1.1-0.7h-7.3
						c-0.7,0-1.4,0.3-1.5,0.7l-1.4,4.1c-0.1,0.4,0.3,0.7,1.1,0.7H390z"/>
				</g>
				<g>
					<path class="st7" d="M394,622c0.1-0.4,0.8-0.8,1.6-0.8h7.3c0.8,0,1.3,0.3,1.2,0.8l-0.9,4.1c-0.1,0.4-0.8,0.8-1.6,0.8h-7.5
						c-0.8,0-1.3-0.3-1.2-0.8L394,622z"/>
					<path class="st42" d="M395.6,621.1h7.3c0.8,0,1.4,0.4,1.3,0.8l-0.9,4.1c-0.1,0.5-0.9,0.8-1.7,0.8H394c-0.9,0-1.4-0.4-1.3-0.8
						l1.1-4.1C394,621.5,394.8,621.1,395.6,621.1z M401.6,626.8c0.7,0,1.4-0.3,1.5-0.7l0.9-4.1c0.1-0.4-0.4-0.7-1.1-0.7h-7.3
						c-0.7,0-1.4,0.3-1.5,0.7l-1.1,4.1c-0.1,0.4,0.4,0.7,1.1,0.7H401.6z"/>
				</g>
				<g>
					<path class="st7" d="M461.6,622c-0.1-0.4,0.5-0.8,1.3-0.8h7.3c0.8,0,1.5,0.3,1.6,0.8l0.9,4.1c0.1,0.4-0.5,0.8-1.3,0.8h-7.5
						c-0.8,0-1.5-0.3-1.6-0.8L461.6,622z"/>
					<path class="st42" d="M462.8,621.1h7.3c0.8,0,1.6,0.4,1.7,0.8l0.9,4.1c0.1,0.5-0.5,0.8-1.4,0.8h-7.5c-0.9,0-1.6-0.4-1.7-0.8
						l-0.7-4.1C461.4,621.5,462,621.1,462.8,621.1z M471.3,626.8c0.7,0,1.2-0.3,1.1-0.7l-0.9-4.1c-0.1-0.4-0.7-0.7-1.4-0.7h-7.3
						c-0.7,0-1.2,0.3-1.1,0.7l0.7,4.1c0.1,0.4,0.7,0.7,1.4,0.7H471.3z"/>
				</g>
				<g>
					<path class="st7" d="M439.1,622c0-0.4,0.6-0.8,1.4-0.8h7.3c0.8,0,1.4,0.3,1.4,0.8l0.3,4.1c0,0.4-0.6,0.8-1.4,0.8h-7.5
						c-0.8,0-1.4-0.3-1.4-0.8L439.1,622z"/>
					<path class="st42" d="M440.4,621.1h7.3c0.8,0,1.5,0.4,1.6,0.8l0.3,4.1c0,0.5-0.6,0.8-1.5,0.8h-7.5c-0.9,0-1.6-0.4-1.6-0.8
						l-0.1-4.1C438.9,621.5,439.6,621.1,440.4,621.1z M448.1,626.8c0.7,0,1.3-0.3,1.3-0.7L449,622c0-0.4-0.6-0.7-1.3-0.7h-7.3
						c-0.7,0-1.3,0.3-1.3,0.7l0.1,4.1c0,0.4,0.6,0.7,1.3,0.7H448.1z"/>
				</g>
				<g>
					<path class="st7" d="M450.3,622c0-0.4,0.5-0.8,1.3-0.8h7.3c0.8,0,1.4,0.3,1.5,0.8l0.6,4.1c0.1,0.4-0.5,0.8-1.3,0.8h-7.5
						c-0.8,0-1.5-0.3-1.5-0.8L450.3,622z"/>
					<path class="st42" d="M451.6,621.1h7.3c0.8,0,1.5,0.4,1.6,0.8l0.6,4.1c0.1,0.5-0.6,0.8-1.4,0.8h-7.5c-0.9,0-1.6-0.4-1.6-0.8
						l-0.4-4.1C450.1,621.5,450.8,621.1,451.6,621.1z M459.7,626.8c0.7,0,1.3-0.3,1.2-0.7l-0.6-4.1c-0.1-0.4-0.7-0.7-1.4-0.7h-7.3
						c-0.7,0-1.2,0.3-1.2,0.7l0.4,4.1c0,0.4,0.6,0.7,1.4,0.7H459.7z"/>
				</g>
				<g>
					<path class="st7" d="M495.3,622c-0.2-0.4,0.3-0.8,1.1-0.8h7.3c0.8,0,1.5,0.3,1.7,0.8l1.8,4.1c0.2,0.4-0.3,0.8-1.1,0.8h-7.5
						c-0.8,0-1.6-0.3-1.7-0.8L495.3,622z"/>
					<path class="st42" d="M496.4,621.1h7.3c0.8,0,1.7,0.4,1.9,0.8l1.8,4.1c0.2,0.5-0.3,0.8-1.2,0.8h-7.5c-0.9,0-1.7-0.4-1.9-0.8
						l-1.6-4.1C495,621.5,495.5,621.1,496.4,621.1z M506.1,626.8c0.7,0,1.2-0.3,1-0.7l-1.8-4.1c-0.2-0.4-0.9-0.7-1.6-0.7h-7.3
						c-0.7,0-1.1,0.3-1,0.7l1.6,4.1c0.1,0.4,0.9,0.7,1.6,0.7H506.1z"/>
				</g>
				<g>
					<path class="st7" d="M472.8,622c-0.1-0.4,0.4-0.8,1.2-0.8h7.3c0.8,0,1.5,0.3,1.6,0.8l1.2,4.1c0.1,0.4-0.4,0.8-1.2,0.8h-7.5
						c-0.8,0-1.5-0.3-1.6-0.8L472.8,622z"/>
					<path class="st42" d="M473.9,621.1h7.3c0.8,0,1.6,0.4,1.7,0.8l1.2,4.1c0.1,0.5-0.4,0.8-1.3,0.8h-7.5c-0.9,0-1.6-0.4-1.7-0.8
						l-1-4.1C472.5,621.5,473.1,621.1,473.9,621.1z M482.8,626.8c0.7,0,1.2-0.3,1.1-0.7l-1.2-4.1c-0.1-0.4-0.8-0.7-1.5-0.7H474
						c-0.7,0-1.2,0.3-1.1,0.7l1,4.1c0.1,0.4,0.8,0.7,1.5,0.7H482.8z"/>
				</g>
				<g>
					<path class="st7" d="M484,622c-0.1-0.4,0.4-0.8,1.1-0.8h7.3c0.8,0,1.5,0.3,1.7,0.8l1.5,4.1c0.2,0.4-0.4,0.8-1.1,0.8h-7.5
						c-0.8,0-1.5-0.3-1.7-0.8L484,622z"/>
					<path class="st42" d="M485.1,621.1h7.3c0.8,0,1.6,0.4,1.8,0.8l1.5,4.1c0.2,0.5-0.4,0.8-1.2,0.8h-7.5c-0.9,0-1.7-0.4-1.8-0.8
						l-1.3-4.1C483.7,621.5,484.3,621.1,485.1,621.1z M494.4,626.8c0.7,0,1.2-0.3,1-0.7l-1.5-4.1c-0.1-0.4-0.8-0.7-1.5-0.7h-7.3
						c-0.7,0-1.2,0.3-1,0.7l1.3,4.1c0.1,0.4,0.8,0.7,1.5,0.7H494.4z"/>
				</g>
				<g>
					<path class="st7" d="M416.6,622c0.1-0.4,0.7-0.8,1.5-0.8h7.3c0.8,0,1.4,0.3,1.3,0.8l-0.3,4.1c0,0.4-0.7,0.8-1.5,0.8h-7.5
						c-0.8,0-1.4-0.3-1.3-0.8L416.6,622z"/>
					<path class="st42" d="M418.1,621.1h7.3c0.8,0,1.5,0.4,1.4,0.8l-0.3,4.1c0,0.5-0.7,0.8-1.6,0.8h-7.5c-0.9,0-1.5-0.4-1.4-0.8
						l0.5-4.1C416.5,621.5,417.3,621.1,418.1,621.1z M424.9,626.8c0.7,0,1.3-0.3,1.4-0.7l0.3-4.1c0-0.4-0.5-0.7-1.2-0.7h-7.3
						c-0.7,0-1.3,0.3-1.4,0.7l-0.5,4.1c-0.1,0.4,0.5,0.7,1.2,0.7H424.9z"/>
				</g>
				<g>
					<path class="st7" d="M427.8,622c0-0.4,0.7-0.8,1.4-0.8h7.3c0.8,0,1.4,0.3,1.4,0.8l0,4.1c0,0.4-0.6,0.8-1.4,0.8H429
						c-0.8,0-1.4-0.3-1.4-0.8L427.8,622z"/>
					<path class="st42" d="M429.3,621.1h7.3c0.8,0,1.5,0.4,1.5,0.8l0,4.1c0,0.5-0.7,0.8-1.5,0.8H429c-0.9,0-1.5-0.4-1.5-0.8l0.2-4.1
						C427.7,621.5,428.4,621.1,429.3,621.1z M436.5,626.8c0.7,0,1.3-0.3,1.3-0.7l0-4.1c0-0.4-0.6-0.7-1.3-0.7h-7.3
						c-0.7,0-1.3,0.3-1.3,0.7l-0.2,4.1c0,0.4,0.5,0.7,1.3,0.7H436.5z"/>
				</g>
				<g>
					<path class="st7" d="M401.2,615.9c0.1-0.4,0.8-0.8,1.5-0.8h7c0.7,0,1.3,0.3,1.2,0.8l-0.7,4.1c-0.1,0.4-0.7,0.8-1.5,0.8h-7.2
						c-0.8,0-1.3-0.3-1.2-0.8L401.2,615.9z"/>
					<path class="st42" d="M402.7,615h7c0.8,0,1.4,0.4,1.3,0.8l-0.7,4.1c-0.1,0.5-0.8,0.8-1.6,0.8h-7.3c-0.8,0-1.4-0.4-1.3-0.8
						l1-4.1C401.2,615.4,401.9,615,402.7,615z M408.6,620.7c0.7,0,1.3-0.3,1.4-0.7l0.7-4.1c0.1-0.4-0.4-0.7-1.1-0.7h-7
						c-0.7,0-1.3,0.3-1.4,0.7l-1,4.1c-0.1,0.4,0.4,0.7,1.1,0.7H408.6z"/>
				</g>
				<g>
					<path class="st7" d="M390.3,615.9c0.1-0.4,0.8-0.8,1.6-0.8h7c0.7,0,1.2,0.3,1.1,0.8l-1,4.1c-0.1,0.4-0.8,0.8-1.6,0.8h-7.2
						c-0.8,0-1.3-0.3-1.1-0.8L390.3,615.9z"/>
					<path class="st42" d="M391.9,615h7c0.8,0,1.3,0.4,1.2,0.8l-1,4.1c-0.1,0.5-0.9,0.8-1.7,0.8h-7.3c-0.8,0-1.4-0.4-1.2-0.8
						l1.3-4.1C390.4,615.4,391.1,615,391.9,615z M397.4,620.7c0.7,0,1.3-0.3,1.4-0.7l1-4.1c0.1-0.4-0.4-0.7-1-0.7h-7
						c-0.7,0-1.3,0.3-1.4,0.7l-1.3,4.1c-0.1,0.4,0.3,0.7,1,0.7H397.4z"/>
				</g>
				<g>
					<path class="st7" d="M455.3,615.9c-0.1-0.4,0.5-0.8,1.2-0.8h7c0.7,0,1.4,0.3,1.5,0.8l0.8,4.1c0.1,0.4-0.5,0.8-1.2,0.8h-7.2
						c-0.8,0-1.4-0.3-1.5-0.8L455.3,615.9z"/>
					<path class="st42" d="M456.5,615h7c0.8,0,1.5,0.4,1.6,0.8l0.8,4.1c0.1,0.5-0.5,0.8-1.3,0.8h-7.3c-0.8,0-1.5-0.4-1.6-0.8
						l-0.5-4.1C455.1,615.4,455.7,615,456.5,615z M464.5,620.7c0.7,0,1.2-0.3,1.1-0.7l-0.8-4.1c-0.1-0.4-0.7-0.7-1.3-0.7h-7
						c-0.7,0-1.2,0.3-1.1,0.7l0.5,4.1c0,0.4,0.7,0.7,1.3,0.7H464.5z"/>
				</g>
				<g>
					<path class="st7" d="M433.6,615.9c0-0.4,0.6-0.8,1.3-0.8h7c0.7,0,1.3,0.3,1.4,0.8l0.2,4.1c0,0.4-0.6,0.8-1.3,0.8h-7.2
						c-0.8,0-1.4-0.3-1.4-0.8L433.6,615.9z"/>
					<path class="st42" d="M434.9,615h7c0.8,0,1.4,0.4,1.5,0.8l0.2,4.1c0,0.5-0.6,0.8-1.4,0.8h-7.3c-0.8,0-1.5-0.4-1.5-0.8l0.1-4.1
						C433.5,615.4,434.2,615,434.9,615z M442.1,620.7c0.7,0,1.2-0.3,1.2-0.7l-0.2-4.1c0-0.4-0.6-0.7-1.2-0.7h-7
						c-0.7,0-1.2,0.3-1.2,0.7l-0.1,4.1c0,0.4,0.6,0.7,1.2,0.7H442.1z"/>
				</g>
				<g>
					<path class="st7" d="M444.4,615.9c0-0.4,0.6-0.8,1.3-0.8h7c0.7,0,1.4,0.3,1.4,0.8l0.5,4.1c0.1,0.4-0.5,0.8-1.3,0.8H446
						c-0.8,0-1.4-0.3-1.4-0.8L444.4,615.9z"/>
					<path class="st42" d="M445.7,615h7c0.8,0,1.5,0.4,1.5,0.8l0.5,4.1c0.1,0.5-0.6,0.8-1.4,0.8H446c-0.8,0-1.5-0.4-1.5-0.8
						l-0.2-4.1C444.3,615.4,444.9,615,445.7,615z M453.3,620.7c0.7,0,1.2-0.3,1.2-0.7l-0.5-4.1c0-0.4-0.6-0.7-1.3-0.7h-7
						c-0.7,0-1.2,0.3-1.2,0.7l0.2,4.1c0,0.4,0.6,0.7,1.3,0.7H453.3z"/>
				</g>
				<g>
					<path class="st7" d="M487.6,615.9c-0.1-0.4,0.3-0.8,1.1-0.8h7c0.7,0,1.5,0.3,1.6,0.8l1.7,4.1c0.2,0.4-0.3,0.8-1.1,0.8h-7.2
						c-0.8,0-1.5-0.3-1.6-0.8L487.6,615.9z"/>
					<path class="st42" d="M488.6,615h7c0.8,0,1.6,0.4,1.8,0.8l1.7,4.1c0.2,0.5-0.3,0.8-1.1,0.8h-7.3c-0.8,0-1.6-0.4-1.8-0.8
						l-1.4-4.1C487.3,615.4,487.9,615,488.6,615z M497.9,620.7c0.7,0,1.1-0.3,1-0.7l-1.7-4.1c-0.2-0.4-0.8-0.7-1.5-0.7h-7
						c-0.7,0-1.1,0.3-1,0.7l1.4,4.1c0.1,0.4,0.8,0.7,1.5,0.7H497.9z"/>
				</g>
				<g>
					<path class="st7" d="M508.3,609.1c-0.2-0.5,0.1-0.9,0.8-0.9h6.7c0.7,0,1.5,0.4,1.8,0.9l2.7,4.6c0.3,0.5-0.1,0.9-0.8,0.9h-7
						c-0.7,0-1.5-0.4-1.8-0.9L508.3,609.1z"/>
					<path class="st42" d="M509.1,608.1h6.7c0.8,0,1.6,0.4,1.9,0.9l2.7,4.6c0.3,0.5-0.1,0.9-0.9,0.9h-7c-0.8,0-1.6-0.4-1.9-0.9
						l-2.3-4.6C507.9,608.6,508.3,608.1,509.1,608.1z M519.4,614.5c0.7,0,1-0.4,0.7-0.8l-2.6-4.6c-0.3-0.4-1-0.8-1.6-0.8h-6.7
						c-0.6,0-1,0.4-0.7,0.8l2.4,4.6c0.2,0.4,1,0.8,1.6,0.8H519.4z"/>
				</g>
				<g>
					<path class="st7" d="M498,609.1c-0.2-0.5,0.2-0.9,0.9-0.9h6.7c0.7,0,1.5,0.4,1.7,0.9l2.3,4.6c0.2,0.5-0.2,0.9-0.9,0.9h-7
						c-0.7,0-1.5-0.4-1.7-0.9L498,609.1z"/>
					<path class="st42" d="M498.9,608.1h6.7c0.8,0,1.6,0.4,1.8,0.9l2.3,4.6c0.3,0.5-0.2,0.9-1,0.9h-7c-0.8,0-1.6-0.4-1.8-0.9l-2-4.6
						C497.7,608.6,498.1,608.1,498.9,608.1z M508.7,614.5c0.7,0,1-0.4,0.8-0.8l-2.3-4.6c-0.2-0.4-0.9-0.8-1.6-0.8h-6.7
						c-0.6,0-1,0.4-0.8,0.8l2,4.6c0.2,0.4,0.9,0.8,1.6,0.8H508.7z"/>
				</g>
				<g>
					<path class="st7" d="M487.7,609.1c-0.2-0.5,0.2-0.9,0.9-0.9h6.7c0.7,0,1.4,0.4,1.6,0.9l2,4.6c0.2,0.5-0.2,0.9-0.9,0.9h-7
						c-0.7,0-1.5-0.4-1.6-0.9L487.7,609.1z"/>
					<path class="st42" d="M488.7,608.1h6.7c0.8,0,1.5,0.4,1.8,0.9l2,4.6c0.2,0.5-0.2,0.9-1,0.9h-7c-0.8,0-1.6-0.4-1.8-0.9l-1.7-4.6
						C487.4,608.6,487.9,608.1,488.7,608.1z M498,614.5c0.7,0,1.1-0.4,0.9-0.8l-2-4.6c-0.2-0.4-0.9-0.8-1.5-0.8h-6.7
						c-0.6,0-1,0.4-0.9,0.8l1.7,4.6c0.2,0.4,0.8,0.8,1.5,0.8H498z"/>
				</g>
				<g>
					<path class="st7" d="M400.1,609.1c0.1-0.5,0.8-0.9,1.5-0.9h6.7c0.7,0,1.2,0.4,1.1,0.9l-0.9,4.6c-0.1,0.5-0.8,0.9-1.5,0.9h-7
						c-0.7,0-1.2-0.4-1.1-0.9L400.1,609.1z"/>
					<path class="st42" d="M401.6,608.1h6.7c0.8,0,1.3,0.4,1.2,0.9l-0.9,4.6c-0.1,0.5-0.8,0.9-1.6,0.9h-7c-0.8,0-1.3-0.4-1.2-0.9
						l1.2-4.6C400.1,608.6,400.8,608.1,401.6,608.1z M406.9,614.5c0.7,0,1.3-0.4,1.4-0.8l0.9-4.6c0.1-0.4-0.4-0.8-1-0.8h-6.7
						c-0.6,0-1.3,0.4-1.4,0.8l-1.2,4.6c-0.1,0.4,0.3,0.8,1,0.8H406.9z"/>
				</g>
				<g>
					<path class="st7" d="M466,615.9c-0.1-0.4,0.4-0.8,1.2-0.8h7c0.7,0,1.4,0.3,1.5,0.8l1.1,4.1c0.1,0.4-0.4,0.8-1.2,0.8h-7.2
						c-0.8,0-1.4-0.3-1.5-0.8L466,615.9z"/>
					<path class="st42" d="M467.1,615h7c0.8,0,1.5,0.4,1.7,0.8l1.1,4.1c0.1,0.5-0.4,0.8-1.3,0.8h-7.3c-0.8,0-1.6-0.4-1.7-0.8
						l-0.8-4.1C465.8,615.4,466.3,615,467.1,615z M475.5,620.7c0.7,0,1.2-0.3,1.1-0.7l-1.1-4.1c-0.1-0.4-0.7-0.7-1.4-0.7h-7
						c-0.7,0-1.2,0.3-1.1,0.7l0.8,4.1c0.1,0.4,0.7,0.7,1.4,0.7H475.5z"/>
				</g>
				<g>
					<path class="st7" d="M476.7,615.9c-0.1-0.4,0.4-0.8,1.1-0.8h7c0.7,0,1.4,0.3,1.6,0.8l1.4,4.1c0.1,0.4-0.4,0.8-1.1,0.8h-7.2
						c-0.8,0-1.5-0.3-1.6-0.8L476.7,615.9z"/>
					<path class="st42" d="M477.8,615h7c0.8,0,1.6,0.4,1.7,0.8l1.4,4.1c0.2,0.5-0.4,0.8-1.2,0.8h-7.3c-0.8,0-1.6-0.4-1.7-0.8
						l-1.1-4.1C476.5,615.4,477.1,615,477.8,615z M486.7,620.7c0.7,0,1.2-0.3,1-0.7l-1.4-4.1c-0.1-0.4-0.8-0.7-1.5-0.7h-7
						c-0.7,0-1.1,0.3-1,0.7l1.1,4.1c0.1,0.4,0.8,0.7,1.5,0.7H486.7z"/>
				</g>
				<g>
					<path class="st7" d="M412,615.9c0.1-0.4,0.7-0.8,1.5-0.8h7c0.7,0,1.3,0.3,1.2,0.8l-0.4,4.1c0,0.4-0.7,0.8-1.5,0.8h-7.2
						c-0.8,0-1.3-0.3-1.2-0.8L412,615.9z"/>
					<path class="st42" d="M413.5,615h7c0.8,0,1.4,0.4,1.3,0.8l-0.4,4.1c0,0.5-0.8,0.8-1.6,0.8h-7.3c-0.8,0-1.4-0.4-1.3-0.8l0.7-4.1
						C412,615.4,412.7,615,413.5,615z M419.9,620.7c0.7,0,1.3-0.3,1.3-0.7l0.4-4.1c0-0.4-0.5-0.7-1.1-0.7h-7c-0.7,0-1.3,0.3-1.3,0.7
						l-0.7,4.1c-0.1,0.4,0.4,0.7,1.1,0.7H419.9z"/>
				</g>
				<g>
					<path class="st7" d="M422.8,615.9c0-0.4,0.7-0.8,1.4-0.8h7c0.7,0,1.3,0.3,1.3,0.8l-0.1,4.1c0,0.4-0.6,0.8-1.4,0.8h-7.2
						c-0.8,0-1.3-0.3-1.3-0.8L422.8,615.9z"/>
					<path class="st42" d="M424.2,615h7c0.8,0,1.4,0.4,1.4,0.8l-0.1,4.1c0,0.5-0.7,0.8-1.5,0.8h-7.3c-0.8,0-1.5-0.4-1.4-0.8l0.4-4.1
						C422.8,615.4,423.4,615,424.2,615z M431,620.7c0.7,0,1.3-0.3,1.3-0.7l0.1-4.1c0-0.4-0.5-0.7-1.2-0.7h-7c-0.7,0-1.2,0.3-1.3,0.7
						l-0.4,4.1c0,0.4,0.5,0.7,1.2,0.7H431z"/>
				</g>
				<g>
					<path class="st7" d="M524.2,640.4c-0.2-0.4,0.3-0.8,1.2-0.8h8.1c0.9,0,1.7,0.3,2,0.8l1,1.7c0.2,0.4-0.3,0.8-1.1,0.8h-8.3
						c-0.9,0-1.7-0.3-2-0.8L524.2,640.4z"/>
					<path class="st42" d="M525.3,639.6h8.1c0.9,0,1.9,0.4,2.2,0.8l1,1.7c0.3,0.5-0.3,0.8-1.2,0.8h-8.3c-0.9,0-1.9-0.4-2.1-0.8
						l-0.9-1.7C523.9,640,524.4,639.6,525.3,639.6z M535.3,642.9c0.8,0,1.3-0.3,1-0.7l-1-1.7c-0.2-0.4-1-0.7-1.8-0.7h-8.1
						c-0.8,0-1.3,0.3-1.1,0.7l0.9,1.7c0.2,0.4,1,0.7,1.8,0.7H535.3z"/>
				</g>
				<g>
					<path class="st7" d="M511,640.4c-0.2-0.4,0.4-0.8,1.2-0.8h8.1c0.9,0,1.7,0.3,1.9,0.8l0.9,1.7c0.2,0.4-0.3,0.8-1.2,0.8h-8.3
						c-0.9,0-1.7-0.3-1.9-0.8L511,640.4z"/>
					<path class="st42" d="M512.2,639.6h8.1c0.9,0,1.9,0.4,2.1,0.8l0.9,1.7c0.2,0.5-0.3,0.8-1.3,0.8h-8.3c-0.9,0-1.9-0.4-2.1-0.8
						l-0.7-1.7C510.7,640,511.3,639.6,512.2,639.6z M521.9,642.9c0.8,0,1.3-0.3,1.1-0.7l-0.9-1.7c-0.2-0.4-1-0.7-1.8-0.7h-8.1
						c-0.8,0-1.3,0.3-1.1,0.7l0.8,1.7c0.2,0.4,1,0.7,1.7,0.7H521.9z"/>
				</g>
				<g>
					<path class="st7" d="M498.1,640.4c-0.2-0.4,0.4-0.8,1.3-0.8h8.1c0.9,0,1.7,0.3,1.9,0.8l0.7,1.7c0.2,0.4-0.4,0.8-1.2,0.8h-8.3
						c-0.9,0-1.7-0.3-1.8-0.8L498.1,640.4z"/>
					<path class="st42" d="M499.3,639.6h8.1c0.9,0,1.8,0.4,2,0.8l0.7,1.7c0.2,0.5-0.4,0.8-1.3,0.8h-8.3c-0.9,0-1.8-0.4-2-0.8
						l-0.6-1.7C497.8,640,498.4,639.6,499.3,639.6z M508.8,642.9c0.8,0,1.3-0.3,1.1-0.7l-0.7-1.7c-0.2-0.4-0.9-0.7-1.7-0.7h-8.1
						c-0.8,0-1.3,0.3-1.2,0.7l0.6,1.7c0.1,0.4,0.9,0.7,1.7,0.7H508.8z"/>
				</g>
				<g>
					<path class="st7" d="M484.9,640.4c-0.1-0.4,0.5-0.8,1.3-0.8h8.1c0.9,0,1.7,0.3,1.8,0.8l0.6,1.7c0.1,0.4-0.4,0.8-1.3,0.8h-8.3
						c-0.9,0-1.7-0.3-1.8-0.8L484.9,640.4z"/>
					<path class="st42" d="M486.2,639.6h8.1c0.9,0,1.8,0.4,2,0.8l0.6,1.7c0.2,0.5-0.5,0.8-1.4,0.8h-8.3c-0.9,0-1.8-0.4-1.9-0.8
						l-0.5-1.7C484.6,640,485.3,639.6,486.2,639.6z M495.4,642.9c0.8,0,1.3-0.3,1.2-0.7l-0.6-1.7c-0.1-0.4-0.9-0.7-1.7-0.7h-8.1
						c-0.8,0-1.3,0.3-1.2,0.7l0.5,1.7c0.1,0.4,0.8,0.7,1.6,0.7H495.4z"/>
				</g>
				<g>
					<path class="st7" d="M472.1,640.4c-0.1-0.4,0.5-0.8,1.4-0.8h8.1c0.9,0,1.6,0.3,1.8,0.8l0.5,1.7c0.1,0.4-0.5,0.8-1.4,0.8h-8.3
						c-0.9,0-1.6-0.3-1.7-0.8L472.1,640.4z"/>
					<path class="st42" d="M473.4,639.6h8.1c0.9,0,1.8,0.4,1.9,0.8l0.5,1.7c0.1,0.5-0.5,0.8-1.5,0.8h-8.3c-0.9,0-1.8-0.4-1.9-0.8
						l-0.4-1.7C471.8,640,472.5,639.6,473.4,639.6z M482.4,642.9c0.8,0,1.4-0.3,1.2-0.7l-0.5-1.7c-0.1-0.4-0.8-0.7-1.6-0.7h-8.1
						c-0.8,0-1.3,0.3-1.3,0.7l0.4,1.7c0.1,0.4,0.8,0.7,1.6,0.7H482.4z"/>
				</g>
				<g>
					<path class="st7" d="M458.8,640.4c-0.1-0.4,0.6-0.8,1.4-0.8h8.1c0.9,0,1.6,0.3,1.7,0.8l0.3,1.7c0.1,0.4-0.6,0.8-1.4,0.8h-8.3
						c-0.9,0-1.6-0.3-1.7-0.8L458.8,640.4z"/>
					<path class="st42" d="M460.3,639.6h8.1c0.9,0,1.7,0.4,1.8,0.8l0.3,1.7c0.1,0.5-0.6,0.8-1.5,0.8h-8.3c-0.9,0-1.8-0.4-1.8-0.8
						l-0.2-1.7C458.6,640,459.4,639.6,460.3,639.6z M469,642.9c0.8,0,1.4-0.3,1.3-0.7l-0.3-1.7c-0.1-0.4-0.8-0.7-1.6-0.7h-8.1
						c-0.8,0-1.4,0.3-1.3,0.7l0.2,1.7c0.1,0.4,0.7,0.7,1.5,0.7H469z"/>
				</g>
				<g>
					<path class="st7" d="M445.8,640.4c0-0.4,0.7-0.8,1.5-0.8h8.1c0.9,0,1.6,0.3,1.6,0.8l0.2,1.7c0.1,0.4-0.6,0.8-1.5,0.8h-8.3
						c-0.9,0-1.6-0.3-1.6-0.8L445.8,640.4z"/>
					<path class="st42" d="M447.3,639.6h8.1c0.9,0,1.7,0.4,1.8,0.8l0.2,1.7c0.1,0.5-0.7,0.8-1.6,0.8h-8.3c-0.9,0-1.7-0.4-1.7-0.8
						l-0.1-1.7C445.7,640,446.4,639.6,447.3,639.6z M455.8,642.9c0.8,0,1.4-0.3,1.4-0.7l-0.2-1.7c0-0.4-0.7-0.7-1.5-0.7h-8.1
						c-0.8,0-1.4,0.3-1.4,0.7l0.1,1.7c0,0.4,0.7,0.7,1.5,0.7H455.8z"/>
				</g>
				<g>
					<path class="st7" d="M432.6,640.4c0-0.4,0.7-0.8,1.6-0.8h8.1c0.9,0,1.6,0.3,1.6,0.8l0.1,1.7c0,0.4-0.7,0.8-1.5,0.8h-8.3
						c-0.9,0-1.6-0.3-1.6-0.8L432.6,640.4z"/>
					<path class="st42" d="M434.2,639.6h8.1c0.9,0,1.7,0.4,1.7,0.8l0.1,1.7c0,0.5-0.7,0.8-1.7,0.8h-8.3c-0.9,0-1.7-0.4-1.7-0.8
						l0-1.7C432.5,640,433.2,639.6,434.2,639.6z M442.4,642.9c0.8,0,1.4-0.3,1.4-0.7l-0.1-1.7c0-0.4-0.7-0.7-1.4-0.7h-8.1
						c-0.8,0-1.4,0.3-1.4,0.7l0,1.7c0,0.4,0.6,0.7,1.4,0.7H442.4z"/>
				</g>
				<g>
					<path class="st7" d="M419.7,640.4c0-0.4,0.8-0.8,1.6-0.8h8.1c0.9,0,1.5,0.3,1.5,0.8l-0.1,1.7c0,0.4-0.7,0.8-1.6,0.8H421
						c-0.9,0-1.5-0.3-1.5-0.8L419.7,640.4z"/>
					<path class="st42" d="M421.3,639.6h8.1c0.9,0,1.7,0.4,1.6,0.8l-0.1,1.7c0,0.5-0.8,0.8-1.7,0.8H421c-0.9,0-1.7-0.4-1.6-0.8
						l0.2-1.7C419.6,640,420.4,639.6,421.3,639.6z M429.3,642.9c0.8,0,1.5-0.3,1.5-0.7l0.1-1.7c0-0.4-0.6-0.7-1.4-0.7h-8.1
						c-0.8,0-1.4,0.3-1.5,0.7l-0.2,1.7c0,0.4,0.6,0.7,1.4,0.7H429.3z"/>
				</g>
				<g>
					<path class="st7" d="M406.4,640.4c0.1-0.4,0.8-0.8,1.7-0.8h8.1c0.9,0,1.5,0.3,1.5,0.8l-0.2,1.7c0,0.4-0.8,0.8-1.7,0.8h-8.3
						c-0.9,0-1.5-0.3-1.4-0.8L406.4,640.4z"/>
					<path class="st42" d="M408.1,639.6h8.1c0.9,0,1.6,0.4,1.6,0.8l-0.2,1.7c-0.1,0.5-0.9,0.8-1.8,0.8h-8.3c-0.9,0-1.6-0.4-1.6-0.8
						l0.3-1.7C406.4,640,407.2,639.6,408.1,639.6z M415.9,642.9c0.8,0,1.5-0.3,1.5-0.7l0.2-1.7c0-0.4-0.6-0.7-1.3-0.7h-8.1
						c-0.8,0-1.5,0.3-1.5,0.7l-0.3,1.7c-0.1,0.4,0.5,0.7,1.3,0.7H415.9z"/>
				</g>
				<g>
					<path class="st7" d="M393.6,640.4c0.1-0.4,0.9-0.8,1.7-0.8h8.1c0.9,0,1.5,0.3,1.4,0.8l-0.3,1.7c-0.1,0.4-0.8,0.8-1.7,0.8h-8.3
						c-0.9,0-1.5-0.3-1.4-0.8L393.6,640.4z"/>
					<path class="st42" d="M395.4,639.6h8.1c0.9,0,1.6,0.4,1.5,0.8l-0.3,1.7c-0.1,0.5-0.9,0.8-1.9,0.8h-8.3c-0.9,0-1.6-0.4-1.5-0.8
						l0.4-1.7C393.6,640,394.5,639.6,395.4,639.6z M402.9,642.9c0.8,0,1.5-0.3,1.6-0.7l0.3-1.7c0.1-0.4-0.5-0.7-1.3-0.7h-8.1
						c-0.8,0-1.5,0.3-1.6,0.7l-0.4,1.7c-0.1,0.4,0.5,0.7,1.3,0.7H402.9z"/>
				</g>
				<g>
					<path class="st7" d="M380.4,640.4c0.1-0.4,0.9-0.8,1.8-0.8h8.1c0.9,0,1.5,0.3,1.3,0.8l-0.5,1.7c-0.1,0.4-0.9,0.8-1.8,0.8h-8.3
						c-0.9,0-1.5-0.3-1.3-0.8L380.4,640.4z"/>
					<path class="st42" d="M382.2,639.6h8.1c0.9,0,1.6,0.4,1.5,0.8l-0.5,1.7c-0.1,0.5-1,0.8-1.9,0.8h-8.3c-0.9,0-1.6-0.4-1.4-0.8
						l0.6-1.7C380.4,640,381.3,639.6,382.2,639.6z M389.5,642.9c0.8,0,1.5-0.3,1.6-0.7l0.5-1.7c0.1-0.4-0.4-0.7-1.2-0.7h-8.1
						c-0.8,0-1.5,0.3-1.6,0.7l-0.6,1.7c-0.1,0.4,0.4,0.7,1.2,0.7H389.5z"/>
				</g>
				<g>
					<path class="st7" d="M367.4,640.4c0.2-0.4,1-0.8,1.9-0.8h8.1c0.9,0,1.4,0.3,1.3,0.8l-0.6,1.7c-0.1,0.4-1,0.8-1.8,0.8H368
						c-0.9,0-1.4-0.3-1.3-0.8L367.4,640.4z"/>
					<path class="st42" d="M369.3,639.6h8.1c0.9,0,1.5,0.4,1.4,0.8l-0.6,1.7c-0.2,0.5-1,0.8-2,0.8H368c-0.9,0-1.6-0.4-1.4-0.8
						l0.7-1.7C367.5,640,368.4,639.6,369.3,639.6z M376.3,642.9c0.8,0,1.5-0.3,1.7-0.7l0.6-1.7c0.1-0.4-0.4-0.7-1.2-0.7h-8.1
						c-0.8,0-1.5,0.3-1.7,0.7l-0.7,1.7c-0.2,0.4,0.4,0.7,1.2,0.7H376.3z"/>
				</g>
				<g>
					<path class="st7" d="M354.2,640.4c0.2-0.4,1.1-0.8,1.9-0.8h8.1c0.9,0,1.4,0.3,1.2,0.8l-0.7,1.7c-0.2,0.4-1,0.8-1.9,0.8h-8.3
						c-0.9,0-1.4-0.3-1.2-0.8L354.2,640.4z"/>
					<path class="st42" d="M356.2,639.6h8.1c0.9,0,1.5,0.4,1.3,0.8l-0.7,1.7c-0.2,0.5-1.1,0.8-2.1,0.8h-8.3c-0.9,0-1.5-0.4-1.3-0.8
						l0.8-1.7C354.3,640,355.2,639.6,356.2,639.6z M362.9,642.9c0.8,0,1.6-0.3,1.7-0.7l0.7-1.7c0.2-0.4-0.3-0.7-1.1-0.7h-8.1
						c-0.8,0-1.6,0.3-1.8,0.7l-0.8,1.7c-0.2,0.4,0.3,0.7,1.1,0.7H362.9z"/>
				</g>
				<g>
					<path class="st7" d="M512.3,628.2c-0.2-0.4,0.3-0.8,1.1-0.8h13.3c0.8,0,1.6,0.3,1.9,0.8l2.3,4.1c0.2,0.4-0.2,0.8-1,0.8h-13.7
						c-0.8,0-1.6-0.3-1.8-0.8L512.3,628.2z"/>
					<path class="st42" d="M513.3,627.3h13.3c0.9,0,1.8,0.4,2,0.8l2.3,4.1c0.3,0.5-0.2,0.8-1.1,0.8h-13.7c-0.9,0-1.8-0.4-2-0.8
						l-1.9-4.1C512,627.7,512.5,627.3,513.3,627.3z M529.8,633c0.7,0,1.2-0.3,1-0.7l-2.3-4.1c-0.2-0.4-1-0.7-1.7-0.7h-13.3
						c-0.7,0-1.2,0.3-1,0.7l1.9,4.1c0.2,0.4,0.9,0.7,1.7,0.7H529.8z"/>
				</g>
				<g>
					<path class="st7" d="M506.5,622c-0.2-0.4,0.3-0.8,1-0.8h15.6c0.8,0,1.6,0.3,1.8,0.8l2.3,4.1c0.2,0.4-0.2,0.8-1,0.8h-16.2
						c-0.8,0-1.6-0.3-1.8-0.8L506.5,622z"/>
					<path class="st42" d="M507.5,621.1h15.6c0.8,0,1.7,0.4,2,0.8l2.3,4.1c0.3,0.5-0.2,0.8-1.1,0.8h-16.2c-0.9,0-1.7-0.4-1.9-0.8
						l-1.8-4.1C506.2,621.5,506.7,621.1,507.5,621.1z M526.3,626.8c0.7,0,1.1-0.3,0.9-0.7l-2.3-4.1c-0.2-0.4-1-0.7-1.7-0.7h-15.6
						c-0.7,0-1.1,0.3-0.9,0.7l1.9,4.1c0.2,0.4,0.9,0.7,1.6,0.7H526.3z"/>
				</g>
				<g>
					<path class="st7" d="M498.2,615.9c-0.2-0.4,0.3-0.8,1-0.8h20.5c0.7,0,1.5,0.3,1.8,0.8l2.3,4.1c0.2,0.4-0.2,0.8-0.9,0.8h-21.3
						c-0.8,0-1.5-0.3-1.7-0.8L498.2,615.9z"/>
					<path class="st42" d="M499.1,615h20.5c0.8,0,1.6,0.4,1.9,0.8l2.3,4.1c0.3,0.5-0.2,0.8-1,0.8h-21.3c-0.8,0-1.6-0.4-1.8-0.8
						l-1.7-4.1C497.9,615.4,498.4,615,499.1,615z M522.8,620.7c0.7,0,1.1-0.3,0.9-0.7l-2.3-4.1c-0.2-0.4-0.9-0.7-1.6-0.7h-20.5
						c-0.7,0-1.1,0.3-0.9,0.7l1.7,4.1c0.2,0.4,0.9,0.7,1.6,0.7H522.8z"/>
				</g>
				<g>
					<path class="st7" d="M474.9,609c-0.1-0.4,0.4-0.8,1.1-0.8h9.2c0.7,0,1.4,0.3,1.5,0.8l1.7,4.8c0.2,0.4-0.3,0.8-1,0.8h-9.6
						c-0.7,0-1.4-0.3-1.5-0.8L474.9,609z"/>
					<path class="st42" d="M475.9,608.1h9.2c0.8,0,1.5,0.4,1.7,0.8l1.7,4.8c0.2,0.5-0.3,0.8-1.1,0.8h-9.6c-0.8,0-1.5-0.4-1.7-0.8
						l-1.3-4.8C474.7,608.5,475.2,608.1,475.9,608.1z M487.3,614.5c0.7,0,1.1-0.3,1-0.7l-1.7-4.8c-0.1-0.4-0.8-0.7-1.4-0.7H476
						c-0.6,0-1.1,0.3-1,0.7l1.3,4.8c0.1,0.4,0.7,0.7,1.4,0.7H487.3z"/>
				</g>
				<g>
					<path class="st7" d="M410.7,609c0.1-0.4,0.7-0.8,1.4-0.8h9.2c0.7,0,1.2,0.3,1.2,0.8l-0.5,4.8c0,0.4-0.7,0.8-1.4,0.8H411
						c-0.7,0-1.3-0.3-1.2-0.8L410.7,609z"/>
					<path class="st42" d="M412.1,608.1h9.2c0.8,0,1.3,0.4,1.3,0.8l-0.5,4.8c0,0.5-0.7,0.8-1.5,0.8H411c-0.8,0-1.4-0.4-1.3-0.8
						l0.9-4.8C410.7,608.5,411.3,608.1,412.1,608.1z M420.6,614.5c0.7,0,1.2-0.3,1.3-0.7l0.5-4.8c0-0.4-0.4-0.7-1.1-0.7h-9.2
						c-0.6,0-1.2,0.3-1.3,0.7l-0.9,4.8c-0.1,0.4,0.4,0.7,1.1,0.7H420.6z"/>
				</g>
				<g>
					<path class="st7" d="M357.2,634.2c0.2-0.4,1-0.8,1.9-0.8h14.1c0.8,0,1.4,0.3,1.2,0.8l-1.5,4.1c-0.2,0.4-1,0.8-1.8,0.8h-14.6
						c-0.9,0-1.4-0.3-1.2-0.8L357.2,634.2z"/>
					<path class="st42" d="M359.1,633.4h14.1c0.9,0,1.5,0.4,1.3,0.8l-1.5,4.1c-0.2,0.5-1.1,0.8-2,0.8h-14.6c-0.9,0-1.5-0.4-1.3-0.8
						l2-4.1C357.3,633.8,358.2,633.4,359.1,633.4z M371,639c0.8,0,1.5-0.3,1.7-0.7l1.5-4.1c0.1-0.4-0.3-0.7-1.1-0.7H359
						c-0.8,0-1.5,0.3-1.7,0.7l-1.9,4.1c-0.2,0.4,0.3,0.7,1.1,0.7H371z"/>
				</g>
				<g>
					<path class="st7" d="M363,622c0.2-0.4,1-0.8,1.7-0.8h15.8c0.8,0,1.3,0.3,1.1,0.8l-1.5,4.1c-0.2,0.4-0.9,0.8-1.7,0.8h-16.3
						c-0.8,0-1.3-0.3-1.1-0.8L363,622z"/>
					<path class="st42" d="M364.8,621.1h15.8c0.8,0,1.4,0.4,1.2,0.8l-1.5,4.1c-0.2,0.5-1,0.8-1.8,0.8h-16.4c-0.9,0-1.4-0.4-1.1-0.8
						l2-4.1C363.1,621.5,364,621.1,364.8,621.1z M378.5,626.8c0.7,0,1.4-0.3,1.6-0.7l1.5-4.1c0.1-0.4-0.3-0.7-1-0.7h-15.8
						c-0.7,0-1.4,0.3-1.6,0.7l-1.9,4.1c-0.2,0.4,0.2,0.7,1,0.7H378.5z"/>
				</g>
				<g>
					<path class="st7" d="M365.9,615.9c0.2-0.4,1-0.8,1.7-0.8h20.4c0.7,0,1.2,0.3,1.1,0.8l-1.3,4.1c-0.1,0.4-0.9,0.8-1.6,0.8H365
						c-0.8,0-1.2-0.3-1-0.8L365.9,615.9z"/>
					<path class="st42" d="M367.7,615h20.4c0.8,0,1.3,0.4,1.2,0.8l-1.3,4.1c-0.1,0.5-0.9,0.8-1.8,0.8H365c-0.8,0-1.3-0.4-1.1-0.8
						l2-4.1C366.1,615.4,366.9,615,367.7,615z M386.2,620.7c0.7,0,1.4-0.3,1.5-0.7l1.3-4.1c0.1-0.4-0.3-0.7-1-0.7h-20.4
						c-0.7,0-1.4,0.3-1.6,0.7l-1.9,4.1c-0.2,0.4,0.2,0.7,0.9,0.7H386.2z"/>
				</g>
				<g>
					<path class="st7" d="M389.8,609c0.1-0.4,0.8-0.8,1.5-0.8h6.7c0.7,0,1.2,0.3,1.1,0.8l-0.4,1.6c-0.1,0.4-0.8,0.8-1.5,0.8h-6.8
						c-0.7,0-1.2-0.3-1-0.8L389.8,609z"/>
					<path class="st42" d="M391.3,608.1h6.7c0.8,0,1.3,0.4,1.1,0.8l-0.4,1.6c-0.1,0.5-0.8,0.8-1.6,0.8h-6.8c-0.8,0-1.3-0.4-1.1-0.8
						l0.5-1.6C389.9,608.5,390.6,608.1,391.3,608.1z M397.1,611.3c0.7,0,1.3-0.3,1.4-0.7l0.4-1.6c0.1-0.4-0.3-0.7-1-0.7h-6.7
						c-0.6,0-1.3,0.3-1.4,0.7l-0.5,1.6c-0.1,0.4,0.3,0.7,0.9,0.7H397.1z"/>
				</g>
				<g>
					<path class="st7" d="M369.2,609c0.2-0.4,0.9-0.8,1.6-0.8h6.7c0.7,0,1.1,0.3,0.9,0.8l-0.7,1.6c-0.2,0.4-0.9,0.8-1.6,0.8h-6.8
						c-0.7,0-1.1-0.3-0.9-0.8L369.2,609z"/>
					<path class="st42" d="M370.9,608.1h6.7c0.8,0,1.2,0.4,1,0.8l-0.7,1.6c-0.2,0.5-1,0.8-1.7,0.8h-6.8c-0.8,0-1.2-0.4-1-0.8
						l0.8-1.6C369.4,608.5,370.1,608.1,370.9,608.1z M376.2,611.3c0.7,0,1.3-0.3,1.5-0.7l0.7-1.6c0.2-0.4-0.2-0.7-0.9-0.7h-6.7
						c-0.6,0-1.3,0.3-1.5,0.7l-0.8,1.6c-0.2,0.4,0.2,0.7,0.8,0.7H376.2z"/>
				</g>
				<g>
					<path class="st7" d="M379.5,609c0.2-0.4,0.9-0.8,1.6-0.8h6.7c0.7,0,1.1,0.3,1,0.8l-1.6,4.8c-0.1,0.4-0.9,0.8-1.6,0.8h-7
						c-0.7,0-1.2-0.3-1-0.8L379.5,609z"/>
					<path class="st42" d="M381.1,608.1h6.7c0.8,0,1.2,0.4,1.1,0.8l-1.6,4.8c-0.2,0.5-0.9,0.8-1.7,0.8h-7c-0.8,0-1.3-0.4-1.1-0.8
						l2-4.8C379.6,608.5,380.4,608.1,381.1,608.1z M385.5,614.5c0.7,0,1.3-0.3,1.4-0.7l1.6-4.8c0.1-0.4-0.3-0.7-0.9-0.7h-6.7
						c-0.6,0-1.3,0.3-1.4,0.7l-2,4.8c-0.2,0.4,0.3,0.7,0.9,0.7H385.5z"/>
				</g>
				<g>
					<path class="st7" d="M423.5,609c0-0.4,0.6-0.8,1.3-0.8h47.6c0.7,0,1.4,0.3,1.5,0.8l1.3,4.8c0.1,0.4-0.4,0.8-1.1,0.8h-49.7
						c-0.7,0-1.3-0.3-1.2-0.8L423.5,609z"/>
				</g>
			</g>
		</g>
		<path class="st43" d="M525.3,626c-0.1-0.1,0-0.2,0.2-0.2c0.2,0,0.4,0.1,0.4,0.2c0.1,0.1,0,0.2-0.2,0.2
			C525.6,626.2,525.4,626.1,525.3,626z"/>
	</g>
</g>
</svg>
